<svg viewBox="0 0 73 73" fill="none" xmlns="http://www.w3.org/2000/svg" xmlns:xlink="http://www.w3.org/1999/xlink" x="0" y="0"><defs><mask id="mask0_2005_3272" style="mask-type:alpha" maskUnits="userSpaceOnUse" x="0" y="0" width="73" height="73">
<rect id="Rectangle 7857" x="71.74000000000001" y="1.259999999999991" width="70.48" height="70.48" rx="8.74" transform="rotate(90, 71.74000000000001, 1.259999999999991)" fill="white" stroke="black" stroke-width="2.52"/>
</mask><clipPath id="clip2_2005_3272">
<rect x="9.11999999999989" y="9.11999999999989" width="63.875" height="83.2832" rx="10" fill="white"/>
</clipPath></defs><g id="Group 118">
<g id="Mask group">
<mask id="mask0_2005_3272" style="mask-type:alpha" maskUnits="userSpaceOnUse" x="1441" y="1200" width="73" height="73">
<rect id="Rectangle 7857" x="1512.74" y="1201.26" width="70.48" height="70.48" rx="8.74" transform="rotate(90 1512.74 1201.26)" fill="white" stroke="black" stroke-width="2.52"/>
</mask>
<g mask="url(#mask0_2005_3272)">
<g id="Group 50">
<circle id="Ellipse 1" cx="40.950000000000045" cy="32.049999999999955" r="53.4146" fill="#FF5200"/>
<circle id="Ellipse 2" cx="36.5" cy="15.13000000000011" r="40.061" fill="white"/>
<g id="Asset 3 1">
<g clip-path="url(#clip2_2005_3272)">
<g id="Layer 1">
<path id="Vector_17" d="M71.13,64.88c-11.71,-20.19 -25.18,-16 -25.18,-16c3.05,-3.13 7.84,-1.37 7.84,-1.37c-3.6,-3.43 -9.53,-4.24 -12.01,-4.43c2.68,-0.09 4.1,-1.82 4.1,-1.82c0,0 -8.45,-3.2 -3.91,-10.36c4.53,-7.17 16.46,-2.74 16.46,-2.74c-4.49,-8.62 -12.17,-8.77 -12.17,-8.77c0,0 -0.54,-5.41 -8.15,-8.77c-7.6,-3.36 -14.98,0.01 -14.98,0.01c1.52,-0.15 4.03,1.37 4.03,1.37c-13.54,3.2 -13.01,18.75 -13.01,18.75c1.83,-3.51 3.5,-3.36 3.5,-3.36c-0.45,7.55 -7.23,10.29 -7.23,10.29c3.35,1.37 6.47,-0.61 6.47,-0.61c-0.99,4.57 -6.54,6.86 -6.54,6.86c3.71,1.09 5.47,0.02 5.62,-0.08c-10.64,9.3 -5.7,19.2 -5.7,19.2c0.61,-3.05 2.74,-4.34 2.74,-4.34c-4.34,13.48 10.58,22.47 10.58,22.47c-1.76,-2.66 -1.38,-6.7 -1.38,-6.7c13.93,35.58 60.64,10.59 48.92,-9.6zM35.41,21.19l-3.71,-3.08l6.7,1.52z" fill="#0D1525"/>
</g>
</g>
</g>
</g>
</g>
</g>
<rect id="Rectangle 7856" x="71.63000000000011" y="1.3699999999998909" width="70.2683" height="70.2683" rx="8.63415" transform="rotate(90, 71.63000000000011, 1.3699999999998909)" stroke="#0D1525" stroke-width="2.73171"/>
</g></svg>