<svg width="83" height="83" viewBox="0 0 83 83" fill="none" xmlns="http://www.w3.org/2000/svg">
<path d="M44.5052 14.3219C43.6179 13.821 42.6019 13.5348 41.5072 13.5348C40.3981 13.5348 39.3606 13.8282 38.4662 14.3505C36.6559 15.4023 35.4467 17.3557 35.4467 19.5952C35.4467 20.7043 35.7472 21.7418 36.2624 22.6362C37.3142 24.4393 39.2676 25.6557 41.5072 25.6557C43.7324 25.6557 45.6715 24.4607 46.7233 22.6791C47.2599 21.7776 47.5676 20.7257 47.5676 19.5952C47.5676 17.3342 46.3369 15.3665 44.5052 14.3219ZM44.5052 14.3219C43.6179 13.821 42.6019 13.5348 41.5072 13.5348C40.3981 13.5348 39.3606 13.8282 38.4662 14.3505C36.6559 15.4023 35.4467 17.3557 35.4467 19.5952C35.4467 20.7043 35.7472 21.7418 36.2624 22.6362C37.3142 24.4393 39.2676 25.6557 41.5072 25.6557C43.7324 25.6557 45.6715 24.4607 46.7233 22.6791C47.2599 21.7776 47.5676 20.7257 47.5676 19.5952C47.5676 17.3342 46.3369 15.3665 44.5052 14.3219ZM44.5052 14.3219C43.6179 13.821 42.6019 13.5348 41.5072 13.5348C40.3981 13.5348 39.3606 13.8282 38.4662 14.3505C36.6559 15.4023 35.4467 17.3557 35.4467 19.5952C35.4467 20.7043 35.7472 21.7418 36.2624 22.6362C37.3142 24.4393 39.2676 25.6557 41.5072 25.6557C43.7324 25.6557 45.6715 24.4607 46.7233 22.6791C47.2599 21.7776 47.5676 20.7257 47.5676 19.5952C47.5676 17.3342 46.3369 15.3665 44.5052 14.3219ZM44.5052 14.3219C43.6179 13.821 42.6019 13.5348 41.5072 13.5348C40.3981 13.5348 39.3606 13.8282 38.4662 14.3505C36.6559 15.4023 35.4467 17.3557 35.4467 19.5952C35.4467 20.7043 35.7472 21.7418 36.2624 22.6362C37.3142 24.4393 39.2676 25.6557 41.5072 25.6557C43.7324 25.6557 45.6715 24.4607 46.7233 22.6791C47.2599 21.7776 47.5676 20.7257 47.5676 19.5952C47.5676 17.3342 46.3369 15.3665 44.5052 14.3219ZM44.5052 14.3219C43.6179 13.821 42.6019 13.5348 41.5072 13.5348C40.3981 13.5348 39.3606 13.8282 38.4662 14.3505C36.6559 15.4023 35.4467 17.3557 35.4467 19.5952C35.4467 20.7043 35.7472 21.7418 36.2624 22.6362C37.3142 24.4393 39.2676 25.6557 41.5072 25.6557C43.7324 25.6557 45.6715 24.4607 46.7233 22.6791C47.2599 21.7776 47.5676 20.7257 47.5676 19.5952C47.5676 17.3342 46.3369 15.3665 44.5052 14.3219ZM73.3691 14.9185C71.609 12.8078 69.6341 10.8759 67.4947 9.15147C65.9206 7.885 64.2534 6.73302 62.5076 5.70267C60.1678 4.32888 57.6778 3.16974 55.0734 2.27534C50.816 0.801379 46.251 0 41.5 0C36.7347 0 32.1625 0.801379 27.898 2.2825C25.2935 3.18405 22.8107 4.34319 20.4709 5.71698C18.7251 6.74733 17.0579 7.89931 15.4838 9.16578C13.3301 10.8973 11.3553 12.8435 9.58793 14.9686C3.59905 22.1596 0 31.4112 0 41.5C0 46.3727 0.837155 51.0522 2.38267 55.3953C3.30569 57.9927 4.47914 60.4755 5.8744 62.8009L11.9062 56.7119L31.4398 37.0137L35.6471 41.2567L15.2047 61.8708L9.36612 67.7595C11.112 69.8917 13.0582 71.8451 15.1833 73.591C22.3456 79.4725 31.5114 83 41.5 83C51.46 83 60.6043 79.4868 67.7595 73.6339C69.8989 71.888 71.8594 69.9275 73.6124 67.7881L67.7738 61.8994L47.2742 41.2281L51.4815 36.9922L71.0723 56.7477L77.1041 62.8296C78.5065 60.5041 79.68 58.0213 80.603 55.4311C82.1557 51.0736 83 46.387 83 41.5C83 31.3826 79.3795 22.1166 73.3691 14.9185ZM61.928 67.7523C56.2897 72.1456 49.199 74.7644 41.5 74.7644C33.7724 74.7644 26.6602 72.1313 21.0147 67.7094L41.4499 47.1025L61.928 67.7523ZM56.8979 31.5257L51.1022 25.6799L45.6858 31.1465L41.4857 35.3895L37.2784 31.1465L31.862 25.6799L26.0377 31.5543L9.01552 48.7053C8.50035 46.387 8.2356 43.9757 8.2356 41.5C8.2356 33.7009 10.9188 26.5242 15.4194 20.8502C17.1366 18.6822 19.1186 16.7359 21.3224 15.0545C22.9395 13.8166 24.671 12.7291 26.5028 11.7989C29.0142 10.5253 31.7046 9.56646 34.5309 8.96543C36.7776 8.48603 39.1102 8.2356 41.5 8.2356C43.8755 8.2356 46.1938 8.48603 48.4262 8.95828C51.2525 9.55931 53.95 10.5181 56.4615 11.7846C58.2932 12.7076 60.0319 13.8023 61.649 15.033C63.8384 16.7002 65.8204 18.6392 67.5305 20.7929C72.0526 26.4741 74.7572 33.6651 74.7572 41.4928C74.7572 43.9828 74.4853 46.4013 73.963 48.7339L56.8979 31.5257ZM44.5052 14.3219C43.6179 13.821 42.6019 13.5348 41.5072 13.5348C40.3981 13.5348 39.3606 13.8282 38.4662 14.3505C36.6559 15.4023 35.4467 17.3557 35.4467 19.5952C35.4467 20.7043 35.7472 21.7418 36.2624 22.6362C37.3142 24.4393 39.2676 25.6557 41.5072 25.6557C43.7324 25.6557 45.6715 24.4607 46.7233 22.6791C47.2599 21.7776 47.5676 20.7257 47.5676 19.5952C47.5676 17.3342 46.3369 15.3665 44.5052 14.3219ZM44.5052 14.3219C43.6179 13.821 42.6019 13.5348 41.5072 13.5348C40.3981 13.5348 39.3606 13.8282 38.4662 14.3505C36.6559 15.4023 35.4467 17.3557 35.4467 19.5952C35.4467 20.7043 35.7472 21.7418 36.2624 22.6362C37.3142 24.4393 39.2676 25.6557 41.5072 25.6557C43.7324 25.6557 45.6715 24.4607 46.7233 22.6791C47.2599 21.7776 47.5676 20.7257 47.5676 19.5952C47.5676 17.3342 46.3369 15.3665 44.5052 14.3219ZM44.5052 14.3219C43.6179 13.821 42.6019 13.5348 41.5072 13.5348C40.3981 13.5348 39.3606 13.8282 38.4662 14.3505C36.6559 15.4023 35.4467 17.3557 35.4467 19.5952C35.4467 20.7043 35.7472 21.7418 36.2624 22.6362C37.3142 24.4393 39.2676 25.6557 41.5072 25.6557C43.7324 25.6557 45.6715 24.4607 46.7233 22.6791C47.2599 21.7776 47.5676 20.7257 47.5676 19.5952C47.5676 17.3342 46.3369 15.3665 44.5052 14.3219ZM44.5052 14.3219C43.6179 13.821 42.6019 13.5348 41.5072 13.5348C40.3981 13.5348 39.3606 13.8282 38.4662 14.3505C36.6559 15.4023 35.4467 17.3557 35.4467 19.5952C35.4467 20.7043 35.7472 21.7418 36.2624 22.6362C37.3142 24.4393 39.2676 25.6557 41.5072 25.6557C43.7324 25.6557 45.6715 24.4607 46.7233 22.6791C47.2599 21.7776 47.5676 20.7257 47.5676 19.5952C47.5676 17.3342 46.3369 15.3665 44.5052 14.3219ZM44.5052 14.3219C43.6179 13.821 42.6019 13.5348 41.5072 13.5348C40.3981 13.5348 39.3606 13.8282 38.4662 14.3505C36.6559 15.4023 35.4467 17.3557 35.4467 19.5952C35.4467 20.7043 35.7472 21.7418 36.2624 22.6362C37.3142 24.4393 39.2676 25.6557 41.5072 25.6557C43.7324 25.6557 45.6715 24.4607 46.7233 22.6791C47.2599 21.7776 47.5676 20.7257 47.5676 19.5952C47.5676 17.3342 46.3369 15.3665 44.5052 14.3219Z" fill="black"/>
</svg>
