<svg width="59" height="84" viewBox="0 0 59 84" fill="none" xmlns="http://www.w3.org/2000/svg">
<path d="M21.4632 56.4642C21.7085 56.6868 22.0054 56.8642 22.3025 57.0189C25.0828 58.3507 28.3247 58.2855 31.2431 57.6668C31.5694 57.5958 31.8893 57.5176 32.2148 57.4296C34.6056 56.8562 37.1438 55.9435 39.3928 56.9282C39.654 57.0806 39.8999 57.2885 40.0369 57.5904C40.0325 57.2566 39.8683 56.9195 39.6441 56.6431C37.4909 54.5481 34.2718 54.9933 31.7354 55.5083C31.4258 55.5788 31.1239 55.6459 30.8182 55.7124C28.0631 56.2835 25.298 56.8827 22.4138 56.6556C22.0978 56.6202 21.7748 56.5705 21.4632 56.4642Z" fill="black"/>
<path d="M21.8749 28.5378C21.625 28.5308 21.3751 28.5239 21.1252 28.5169C21.0111 29.675 21.0309 30.8713 21.1265 32.0342C21.5324 36.7103 23.1499 41.2701 25.6461 45.2647C28.9254 50.5308 33.6546 54.8495 39.0444 57.8301C47.5866 62.5379 54.918 70.1866 57.5605 79.7428C57.8445 80.8284 58.0592 81.9424 58.1253 83.0394C58.3751 83.0314 58.625 83.0233 58.8749 83.0153C58.8614 81.8412 58.6906 80.6738 58.4467 79.5315C56.1683 69.5126 48.7502 61.2597 39.9557 56.2246V56.2246C34.8528 53.2853 30.4385 49.1731 27.3412 44.2034C24.9884 40.433 23.2223 36.2638 22.3148 31.867C22.0943 30.774 21.9289 29.6417 21.8749 28.5378Z" fill="black"/>
<path d="M25.5001 43C22.5001 36 32.5923 21.7 23.5923 19C18.0949 17.3508 14.0924 21 14.0923 27.5C14.0923 34 21.7082 40.1561 25.5001 43Z" stroke="black" stroke-width="2"/>
<path d="M26.5001 44.5C25.2803 43.879 24.0813 43.2063 22.9163 42.4879C14.514 37.7946 6.80309 27.6389 12.8414 19.0118C13.9514 17.112 15.5182 15.5576 17.4623 14.7643C24.2063 11.8458 32.0193 19.5385 29.8384 26.862C28.8456 31.3339 27.5512 35.7993 26.815 40.3826C26.608 41.7437 26.441 43.1298 26.5001 44.5C26.5747 43.1323 26.8654 41.7842 27.1876 40.4571C28.3111 35.9928 29.9061 31.6698 31.1618 27.1928C34.1377 19.2027 25.3069 9.27998 16.7024 12.9143C14.2626 13.9091 12.3879 15.8519 11.1588 18.043C8.4164 22.5017 8.1471 28.7497 11.1164 33.1434C13.9303 37.5853 18.2734 40.5457 22.7312 42.8197C23.9644 43.4388 25.2256 44.0006 26.5001 44.5ZM26.5001 44.5" fill="black"/>
<path d="M6.10352e-05 28.5273C-0.0019953 29.2012 0.0946935 29.8876 0.240878 30.5585C1.73995 36.5996 6.07055 41.7264 11.2991 45.1151C11.4151 45.1895 11.532 45.2633 11.6498 45.3364C17.1139 48.6292 23.2751 48.8423 29.032 50.0502C29.6911 50.1898 30.3477 50.3448 31.0001 50.5273C30.396 50.2205 29.7743 49.9433 29.1436 49.6869C23.5772 47.4599 17.5028 46.6099 12.7074 43.6399C12.5973 43.5708 12.4878 43.5014 12.379 43.4317C7.48689 40.2388 3.07735 35.9421 0.603596 30.4452C0.348651 29.8277 0.130949 29.1877 6.10352e-05 28.5273Z" fill="black"/>
<path d="M10.0923 48.5C10.3391 48.8688 10.6627 49.2 11.003 49.5014C14.1951 52.1105 18.3395 53.2975 22.4411 53.5058C22.7934 53.52 23.1464 53.5254 23.5001 53.5214C27.0452 53.4913 30.6142 53.644 34.2017 54.2467C34.6332 54.324 35.0707 54.4109 35.5001 54.5273C35.1238 54.2885 34.7208 54.079 34.3187 53.8852C30.9565 52.3141 27.2212 51.5841 23.5001 51.5333C23.1738 51.5293 22.8479 51.5206 22.5219 51.5074C18.7195 51.3052 14.8111 50.7675 11.2148 49.1859C10.8231 48.9941 10.437 48.7776 10.0923 48.5Z" fill="black"/>
<path d="M29.0001 61.0273C29.2795 60.9901 29.5751 60.9529 29.8524 60.9248C32.4076 60.6703 34.8583 60.5517 37.2911 60.4874C39.7222 60.4384 42.1292 60.4546 44.654 60.8693C44.9352 60.9165 45.2159 60.9683 45.5001 61.0273C45.2722 60.8475 45.0379 60.6775 44.7943 60.5161C42.5979 59.0577 39.8711 58.4237 37.2455 58.4879C34.607 58.5544 32.0103 59.2614 29.7335 60.5639C29.4885 60.7076 29.2312 60.8658 29.0001 61.0273Z" fill="black"/>
<path d="M34.5001 64.0273C34.7508 64.0217 35.0078 64.0149 35.263 64.0086C37.5394 63.9662 39.7191 63.8711 41.8596 63.7414C44.0032 63.6429 46.0956 63.4022 48.2726 63.8282C48.5149 63.8809 48.7585 63.9464 49.0001 64.0273C48.8325 63.8354 48.6434 63.6544 48.4409 63.4875C46.5577 61.988 44.0219 61.6233 41.7444 61.7448C39.4352 61.8838 37.1962 62.5461 35.1646 63.6416C34.9372 63.7647 34.7125 63.894 34.5001 64.0273Z" fill="black"/>
<path d="M39.0923 68.0076C39.3403 67.9704 39.5955 67.9342 39.845 67.9029C42.0914 67.6364 44.2283 67.4937 46.3007 67.5004C48.3714 67.5277 50.3929 67.6936 52.4215 68.6544C52.6477 68.7633 52.8679 68.8776 53.0923 69.0076C52.9622 68.7833 52.8226 68.5706 52.6634 68.3613C51.2408 66.4491 48.6723 65.4938 46.3164 65.5005C43.9324 65.4902 41.6265 66.2488 39.709 67.5481C39.497 67.6935 39.2862 67.8485 39.0923 68.0076Z" fill="black"/>
<path d="M50.0923 55.5C49.9695 55.6296 49.8502 55.7755 49.7399 55.9172C48.7442 57.2289 48.1967 58.814 48.1146 60.4226C48.0326 62.03 48.4436 63.6997 49.3719 65.0608C49.4748 65.2121 49.5832 65.3577 49.698 65.5C49.698 65.5 49.698 65.5 49.698 65.5C49.7104 65.3176 49.7244 65.1394 49.7388 64.9621C49.8741 63.3726 50.0446 61.961 50.1121 60.5214C50.1884 59.0852 50.1525 57.6285 50.1005 56.0371C50.0952 55.8627 50.0936 55.6785 50.0923 55.5Z" fill="black"/>
<path d="M45.5782 51.5C45.4341 51.6105 45.2904 51.7416 45.1588 51.8684C43.96 53.0579 43.2365 54.688 43.12 56.381C42.996 58.0717 43.5467 59.8536 44.6841 61.1028C44.8098 61.243 44.9401 61.3728 45.0782 61.5C45.0593 61.3132 45.0458 61.1335 45.0331 60.9525C44.9287 59.3334 45.0241 57.9365 45.1155 56.5159C45.2184 55.0991 45.3043 53.6466 45.4976 52.0404C45.5189 51.8659 45.5484 51.679 45.5782 51.5Z" fill="black"/>
<path d="M42.6283 43.5C42.4501 43.6955 42.2744 43.9069 42.1068 44.1212C40.6119 46.0501 39.5924 48.3542 39.2515 50.8194C38.9126 53.2458 39.3358 56.0541 41.0372 57.9331C41.2227 58.1378 41.4195 58.3262 41.6283 58.5C41.5273 58.2477 41.4419 57.9972 41.3676 57.7453C40.7233 55.4739 40.9549 53.2975 41.2336 51.0866C41.5407 48.8766 41.9555 46.6268 42.4504 44.2835C42.5074 44.0223 42.5681 43.7576 42.6283 43.5Z" fill="black"/>
<path d="M39.064 37.5C38.8545 37.7447 38.6476 38.0114 38.4529 38.2772C36.708 40.6927 35.5525 43.5638 35.2153 46.5873C34.8751 49.5823 35.4804 52.8965 37.3969 55.2607C37.6072 55.5224 37.8281 55.7663 38.064 56C37.9391 55.6923 37.8303 55.3884 37.731 55.0796C36.8537 52.3047 36.9173 49.5532 37.2036 46.8027C37.5129 44.0515 38.0513 41.2729 38.7952 38.4422C38.8794 38.1292 38.9716 37.8085 39.064 37.5Z" fill="black"/>
<path d="M33.7969 53.5273C33.5658 53.1191 33.385 52.6865 33.2324 52.251C32.0785 48.8906 32.5983 45.3736 34.1729 42.4696C34.4765 41.8958 34.767 41.3187 35.0461 40.7332C36.8213 36.8913 38.3866 32.7697 38.3392 28.4097C38.3115 27.9301 38.2475 27.4426 38.0924 27C38.1158 27.467 38.0503 27.9311 37.9601 28.3835C36.9565 32.4141 34.9768 36.1071 33.2407 39.8725C32.9684 40.4439 32.6958 41.013 32.421 41.5851C30.6976 44.9947 30.8128 49.3727 32.8929 52.4216C33.1608 52.8198 33.4596 53.2 33.7969 53.5273Z" fill="black"/>
<path d="M28.5577 48.5C28.4256 47.8935 28.3726 47.2807 28.3759 46.6737C28.5456 42.0688 30.8842 38.021 32.9694 33.9333C33.4072 33.0789 33.7691 32.1976 34.0763 31.3026C35.7601 25.9484 36.5035 19.4908 32.9876 14.7127C32.5721 14.2299 32.0876 13.8126 31.5507 13.5C32.0084 13.9204 32.3802 14.4093 32.6777 14.9326C35.0245 19.8777 33.7304 25.6435 32.1843 30.6541C31.9008 31.4806 31.5817 32.2916 31.2153 33.0667C29.2536 37.2118 27.232 41.9159 27.9976 46.7091C28.1158 47.3297 28.2989 47.9358 28.5577 48.5Z" fill="black"/>
<path d="M28.0002 47.0273C27.2333 46.7712 26.4699 46.496 25.7185 46.2041C18.9965 43.5709 12.7055 39.5508 8.92308 33.6789C5.05023 27.839 4.80229 20.2454 6.86179 13.3205C7.08633 12.5346 7.31864 11.7902 7.59237 11C7.19653 11.7367 6.84512 12.4372 6.505 13.1897C3.39024 19.7258 2.92579 28.29 7.23799 34.7561C11.4142 41.2255 18.5254 44.9556 25.6076 46.5675C26.4009 46.7468 27.2017 46.9007 28.0002 47.0273Z" fill="black"/>
<path d="M9.40897 21.9189C10.0753 21.8988 10.7417 21.8787 11.4081 21.8587C11.3852 21.6519 11.368 21.4296 11.3548 21.2113C11.1811 17.2029 11.7667 13.009 13.2991 9.14087C13.3859 8.92569 13.4755 8.71279 13.5692 8.49997C13.446 8.6972 13.3265 8.89547 13.2093 9.09691C11.1239 12.7405 9.89123 16.8726 9.45506 21.1809C9.43454 21.4221 9.41823 21.672 9.40897 21.9189Z" fill="black"/>
<path d="M15.2899 14.2458C15.9484 14.3503 16.6068 14.4547 17.2652 14.5592C17.2794 14.3637 17.2971 14.1563 17.3149 13.9557C17.6801 10.3048 18.1879 6.60747 19.3536 3.08059C19.4213 2.8863 19.494 2.68968 19.5684 2.49996C19.4641 2.67502 19.3608 2.85828 19.2622 3.04014C17.5292 6.36732 16.4162 9.98244 15.4428 13.6316C15.3908 13.8339 15.3387 14.0445 15.2899 14.2458Z" fill="black"/>
<path d="M20.6056 12.5528C21.2019 12.8509 21.7982 13.1491 22.3945 13.4472C22.485 13.2289 22.5703 13.0116 22.6525 12.7914C24.1172 8.82293 24.3264 4.66853 24.0485 0.666668C24.0333 0.446541 24.0168 0.217917 24.0001 0C23.9834 0.217931 23.9666 0.446473 23.9485 0.666023C23.6354 4.65627 22.783 8.64393 20.9239 12.0026C20.8206 12.1889 20.7151 12.3711 20.6056 12.5528Z" fill="black"/>
<path d="M25.243 13.5927C25.7985 13.9613 26.354 14.3299 26.9095 14.6985C27.0174 14.5057 27.1164 14.3079 27.2061 14.1142C28.603 10.6833 29.4468 7.06962 28.6959 3.55349C28.6414 3.36293 28.5764 3.17653 28.5 3C28.5448 3.18707 28.5766 3.37943 28.5978 3.57285C28.753 7.03535 27.2725 10.4277 25.5498 13.1834C25.449 13.3287 25.3442 13.4704 25.243 13.5927Z" fill="black"/>
<circle cx="21.0923" cy="28" r="3.5" fill="black"/>
</svg>
