<svg width="91" height="85" viewBox="0 0 91 85" fill="none" xmlns="http://www.w3.org/2000/svg">
<rect x="9.1286" y="14.3765" width="78.3714" height="52.904" rx="3.58571" fill="white" stroke="#0D1525" stroke-width="3"/>
<path d="M45.9131 68.5H52.0869C53.3324 68.5 54.4891 69.1462 55.1416 70.207L59.9561 78.0361C61.4251 80.4251 59.7067 83.4997 56.9023 83.5H41.0977C38.2933 83.4997 36.5749 80.4251 38.0439 78.0361L42.8584 70.207C43.5109 69.1462 44.6677 68.5 45.9131 68.5Z" stroke="#0D1525" stroke-width="3"/>
<path d="M5.08594 1.5H28.8193C30.7995 1.50016 32.4043 3.1057 32.4043 5.08594V21.1904C32.4043 23.1707 30.7995 24.7762 28.8193 24.7764H5.08594C3.1056 24.7764 1.5 23.1708 1.5 21.1904V5.08594C1.5 3.1056 3.1056 1.5 5.08594 1.5Z" fill="white" stroke="#0D1525" stroke-width="3"/>
<path d="M73.319 21.1904V22.6904H75.4381C75.927 22.6904 76.3895 22.7875 76.8102 22.9619L77.3834 21.5762C78.627 22.0915 79.6216 23.0857 80.1373 24.3291L78.7526 24.9043C78.9269 25.3249 79.024 25.7875 79.024 26.2764V27.9717H80.524V31.3623H79.024V33.0566C79.024 33.5456 78.927 34.009 78.7526 34.4297L80.1373 35.0029C79.6218 36.2466 78.6272 37.2404 77.3834 37.7559L76.8102 36.3711C76.3895 36.5455 75.9271 36.6426 75.4381 36.6426H73.319V38.1426H69.0807V36.6426H64.8424V38.1426H60.6051V36.6426H58.486C57.9971 36.6426 57.5345 36.5455 57.1139 36.3711L56.5387 37.7559C55.2956 37.2402 54.3011 36.2463 53.7858 35.0029L55.1715 34.4297C54.997 34.009 54.9 33.5456 54.9 33.0566V31.3623H53.4V27.9717H54.9V26.2764C54.9 25.7875 54.9971 25.3249 55.1715 24.9043L53.7858 24.3291C54.3013 23.0861 55.2957 22.0917 56.5387 21.5762L57.1139 22.9619C57.5345 22.7875 57.9971 22.6904 58.486 22.6904H60.6051V21.1904H64.8424V22.6904H69.0807V21.1904H73.319Z" stroke="#0D1525" stroke-width="3" stroke-linejoin="round" stroke-dasharray="3.39 3.39"/>
<path d="M47.1462 34.6182C47.5116 35.1638 47.7729 35.784 47.905 36.4512L46.4353 36.7432C46.4799 36.9687 46.5037 37.2031 46.5037 37.4443V38.3643H48.0037V40.2041H46.5037V42.0449H48.0037V43.8848H46.5037V45.7246H48.0037V47.5654H46.5037V49.4053H48.0037V51.2451H46.5037V53.0859H48.0037V54.9258H46.5037V55.8457C46.5037 56.087 46.4799 56.3213 46.4353 56.5469L47.905 56.8379C47.773 57.5052 47.5116 58.1252 47.1462 58.6709L45.9011 57.8369C45.6389 58.2286 45.3006 58.5659 44.9089 58.8281L45.7429 60.0742C45.1972 60.4395 44.5772 60.7011 43.9099 60.833L43.6199 59.3633C43.3942 59.4079 43.1591 59.4316 42.9177 59.4316H42.0222V60.9316H40.2302V59.4316H38.4373V60.9316H36.6453V59.4316H34.8533V60.9316H33.0603V59.4316H31.2683V60.9316H29.4763V59.4316H27.6833V60.9316H25.8914V59.4316H24.0994V60.9316H22.3064V59.4316H21.4109C21.1697 59.4316 20.9352 59.4079 20.7097 59.3633L20.4177 60.833C19.7506 60.7009 19.1303 60.4396 18.5847 60.0742L19.4197 58.8281C19.028 58.5659 18.6907 58.2285 18.4285 57.8369L17.1814 58.6709C16.8162 58.1253 16.5545 57.505 16.4226 56.8379L17.8933 56.5469C17.8487 56.3213 17.825 56.087 17.825 55.8457V54.9258H16.325V53.0859H17.825V51.2451H16.325V49.4053H17.825V47.5654H16.325V45.7246H17.825V43.8848H16.325V42.0449H17.825V40.2041H16.325V38.3643H17.825V37.4443C17.825 37.2031 17.8487 36.9687 17.8933 36.7432L16.4226 36.4512C16.5546 35.7841 16.8162 35.1637 17.1814 34.6182L18.4285 35.4531C18.6907 35.0615 19.028 34.7241 19.4197 34.4619L18.5847 33.2148C19.1302 32.8496 19.7507 32.5881 20.4177 32.4561L20.7097 33.9268C20.9352 33.8822 21.1697 33.8584 21.4109 33.8584H22.3064V32.3584H24.0994V33.8584H25.8914V32.3584H27.6833V33.8584H29.4763V32.3584H31.2683V33.8584H33.0603V32.3584H34.8533V33.8584H36.6453V32.3584H38.4373V33.8584H40.2302V32.3584H42.0222V33.8584H42.9177C43.1591 33.8584 43.3942 33.8821 43.6199 33.9268L43.9099 32.4561C44.5771 32.588 45.1973 32.8497 45.7429 33.2148L44.9089 34.4619C45.3006 34.7241 45.6389 35.0615 45.9011 35.4531L47.1462 34.6182Z" stroke="#0D1525" stroke-width="3" stroke-linejoin="round" stroke-dasharray="1.7 1.7"/>
<path d="M58.486 44.7285H59.3336C61.3138 44.7287 62.9196 46.3342 62.9196 48.3145V55.0947C62.9196 57.075 61.3138 58.6805 59.3336 58.6807H58.486C56.5056 58.6807 54.9 57.0751 54.9 55.0947V48.3145C54.9 46.3341 56.5056 44.7285 58.486 44.7285Z" fill="white" stroke="#0D1525" stroke-width="3"/>
<path d="M5.08594 55.9004H22.2451C24.2255 55.9004 25.8311 57.506 25.8311 59.4863V67.9492C25.8311 69.9296 24.2255 71.5352 22.2451 71.5352H5.08594C3.1056 71.5352 1.5 69.9296 1.5 67.9492V59.4863C1.5 57.506 3.1056 55.9004 5.08594 55.9004Z" fill="white" stroke="#0D1525" stroke-width="3"/>
<circle cx="66.5381" cy="13.9858" r="10.7905" fill="white" stroke="#0D1525" stroke-width="3"/>
<path d="M88.3995 61.6886L72.7729 57.4777C72.0081 57.2717 71.3187 57.9943 71.5605 58.7485L76.3905 73.817C76.6193 74.5309 77.5233 74.7485 78.0519 74.2169L88.8484 63.3593C89.3899 62.8147 89.141 61.8884 88.3995 61.6886Z" fill="#0D1525" stroke="#0D1525" stroke-width="3" stroke-linecap="round"/>
<path d="M76.4453 61.7656L89.3814 74.0209" stroke="#0D1525" stroke-width="3" stroke-linecap="round"/>
<line x1="3.5" y1="7.5" x2="19.5" y2="7.5" stroke="#0D1525" stroke-width="3" stroke-linecap="round"/>
<line x1="3.5" y1="13.5" x2="22.5" y2="13.5" stroke="#0D1525" stroke-width="3" stroke-linecap="round"/>
<line x1="3.5" y1="19.5" x2="17.5" y2="19.5" stroke="#0D1525" stroke-width="3" stroke-linecap="round"/>
</svg>
