<svg viewBox="0 0 26.0001 40" fill="none" xmlns="http://www.w3.org/2000/svg" xmlns:xlink="http://www.w3.org/1999/xlink" x="0" y="0"><g id="Group 126">
<path id="Vector_23" d="M3.283,19.1448c0.787,0.2133 1.34,0.0389 1.765,-0.3067c0.481,-0.3914 0.844,-1.0451 1.109,-1.8056c0.262,-0.7509 0.407,-1.5497 0.487,-2.168c0.039,-0.3071 0.062,-0.5659 0.075,-0.7471c0.006,-0.0902 0.01,-0.1614 0.012,-0.209c0.002,-0.0237 0.003,-0.0421 0.003,-0.0537v-0.0156l0.002,-0.0801l0.028,-0.0752l0.001,-0.0029c0.001,-0.0026 0.003,-0.0073 0.005,-0.0127c0.003,-0.0108 0.01,-0.0275 0.017,-0.0488c0.015,-0.0432 0.037,-0.1076 0.065,-0.1895c0.056,-0.1644 0.135,-0.4012 0.225,-0.6894c0.182,-0.5782 0.409,-1.3588 0.595,-2.1729c0.187,-0.8186 0.327,-1.6498 0.345,-2.3369c0.008,-0.3436 -0.015,-0.6314 -0.069,-0.8545c-0.034,-0.1441 -0.079,-0.2437 -0.122,-0.3125c-0.08,-0.002 -0.187,0.0012 -0.321,0.0098c-0.287,0.0185 -0.644,0.0568 -1.021,0.0967c-0.368,0.039 -0.756,0.0792 -1.077,0.0937c-0.16,0.0073 -0.317,0.0091 -0.454,-0.001c-0.031,-0.0023 -0.069,-0.0063 -0.109,-0.0117c-0.083,0.073 -0.187,0.1684 -0.293,0.2705c-0.121,0.1164 -0.241,0.2346 -0.33,0.3242c-0.045,0.0446 -0.081,0.0824 -0.107,0.1084l-0.04,0.0401l-0.076,0.0781l-0.102,0.0391l-0.341,0.1445c-1.635,0.7577 -2.998,2.3588 -3.053,4.8428l-0.001,0.2607c0.028,2.24 1.524,4.3358 2.782,5.7852z" fill="white" stroke="#0D1525"/>
<path id="Vector_24" d="M7.234,13.8537c0,0 -0.2,7.0046 -4.235,5.7285c-1.279,-1.4548 -2.966,-3.7218 -2.998,-6.2159c-0.043,-3.0387 1.701,-4.9458 3.716,-5.7211c0,0 0.957,-0.9791 1.031,-0.9347c0.391,0.2289 2.985,-0.2921 3.344,-0.1075c1.324,1.2018 -0.858,7.2507 -0.858,7.2507z" stroke="#0D1525" stroke-miterlimit="10"/>
<path id="Vector_25" d="M19.688,28.7263c0.843,-1.1295 1.653,-2.671 1.413,-4.4541c-0.786,1.2656 -1.295,2.7908 -1.413,4.4541z" fill="white" stroke="#0D1525"/>
<path id="Vector_26" d="M19.178,30.1199c-0.013,-0.2123 -0.019,-0.4246 -0.019,-0.6406c0,-2.4757 0.824,-4.7223 2.166,-6.3895c1.137,3.1939 -1.027,5.795 -2.147,7.0301z" stroke="#0D1525" stroke-miterlimit="10"/>
<path id="Vector_27" d="M18.542,35.6897c0.414,-0.1605 0.807,-0.3429 1.145,-0.5566c0.534,-0.3377 0.868,-0.7108 0.982,-1.1387l0.037,-0.1865c0.063,-0.5547 -0.153,-0.8589 -0.419,-1.0508c-0.174,-0.125 -0.374,-0.2001 -0.544,-0.2442c-0.014,0.0139 -0.027,0.0278 -0.04,0.0401c-0.152,0.1353 -0.344,0.2071 -0.499,0.251c-0.322,0.0907 -0.743,0.1278 -1.14,0.1494c-0.388,0.0211 -0.855,0.0308 -1.187,0.0459c-0.178,0.0081 -0.333,0.0181 -0.459,0.0322c-0.133,0.015 -0.202,0.0316 -0.225,0.04c-0.11,0.04 -0.176,0.0754 -0.214,0.0996c0.06,0.0971 0.181,0.2301 0.375,0.4004c0.189,0.1656 0.414,0.3396 0.657,0.5264c0.238,0.1824 0.494,0.3774 0.721,0.5713c0.224,0.1913 0.447,0.4042 0.607,0.6289c0.078,0.1085 0.155,0.2412 0.203,0.3916z" fill="white" stroke="#0D1525"/>
<path id="Vector_28" d="M21.202,33.8657c-0.168,1.4474 -1.983,2.1766 -3.527,2.6492c2.02,-1.0376 -4.051,-3.0464 -1.652,-3.914c0.65,-0.2352 3.581,0.0574 3.42,-0.6386c0.51,0.0056 1.933,0.397 1.759,1.9034z" stroke="#0D1525" stroke-miterlimit="10"/>
<path id="Vector_29" d="M7.374,39.2539c0.226,-0.2269 0.56,-0.5045 1.048,-0.7891c1.083,-0.631 2.906,-1.2989 5.936,-1.5732h0.001c1.337,-0.1204 2.338,-0.4389 3.084,-0.8203l0.003,-0.002h0.001c0.93,-0.4778 1.482,-1.062 1.8,-1.5146c0.159,-0.2274 0.261,-0.4235 0.321,-0.5576c0.006,-0.0128 0.01,-0.0255 0.015,-0.0371c-0.263,-0.5962 -0.475,-1.2269 -0.626,-1.8829c-0.11,-0.4654 -0.192,-0.9451 -0.242,-1.4355l-0.039,-0.4941c-0.013,-0.223 -0.018,-0.4452 -0.018,-0.669c0,-2.5646 0.847,-4.9048 2.243,-6.6592c0.006,-0.0106 0.012,-0.0233 0.02,-0.0381c0.026,-0.0468 0.062,-0.1154 0.109,-0.2021c0.094,-0.174 0.229,-0.4228 0.389,-0.7207c0.322,-0.5958 0.751,-1.3904 1.18,-2.1846c0.429,-0.7941 0.859,-1.5877 1.181,-2.1836c0.161,-0.2979 0.295,-0.5469 0.388,-0.7207c0.009,-0.0163 0.018,-0.0319 0.026,-0.0468c-0.081,-0.1402 -0.21,-0.3368 -0.401,-0.5879c-0.28,-0.3709 -0.655,-0.8203 -1.095,-1.3213c-0.88,-1.0012 -2.002,-2.1873 -3.111,-3.3272c-1.107,-1.1389 -2.196,-2.2274 -3.009,-3.0312c-0.407,-0.4018 -0.744,-0.732 -0.98,-0.9619c-0.093,-0.0914 -0.171,-0.1669 -0.23,-0.2246c-0.046,-0.0017 -0.1,-0.0047 -0.16,-0.0069c-0.225,-0.0081 -0.545,-0.0193 -0.929,-0.0332c-0.769,-0.0278 -1.794,-0.0653 -2.819,-0.1025c-1.024,-0.0372 -2.05,-0.0743 -2.819,-0.1026c-0.384,-0.0141 -0.705,-0.0267 -0.93,-0.0351c-0.03,-0.0012 -0.059,-0.0019 -0.086,-0.0029c-0.046,0.0618 -0.099,0.1348 -0.159,0.2167c-0.189,0.2602 -0.441,0.6082 -0.694,0.96c-0.253,0.3523 -0.505,0.707 -0.694,0.9805c-0.095,0.1371 -0.172,0.2506 -0.225,0.332c-0.008,0.0129 -0.015,0.0249 -0.021,0.0352c-0.001,0.009 -0.001,0.0187 -0.001,0.0293c-0.002,0.0657 -0.002,0.1527 0,0.2607c0.003,0.2157 0.012,0.5044 0.027,0.8574c0.029,0.7056 0.079,1.6564 0.144,2.7696c0.131,2.2255 0.32,5.0915 0.514,7.9248c0.194,2.8328 0.393,5.6319 0.544,7.7226c0.075,1.0452 0.139,1.9136 0.184,2.5205c0.022,0.3035 0.039,0.5419 0.051,0.7041c0.006,0.0811 0.011,0.1437 0.014,0.1856c0.002,0.0206 0.002,0.0363 0.003,0.0468c0,0.0051 0.001,0.0091 0.001,0.0118v0.0039c-0.001,0 -0.002,0.0007 -0.005,0.001c0.002,0.0145 0.007,0.0266 0.007,0.0361l-0.513,0.0195l-0.123,0.1914c-0.053,0.0569 -0.105,0.1131 -0.155,0.1699c0.067,0.0503 0.141,0.0925 0.197,0.1104c0.087,0.0088 0.226,-0.0092 0.278,-0.0264c0.031,-0.0135 0.08,-0.0403 0.099,-0.0527c0.035,-0.024 0.06,-0.0478 0.068,-0.0557c0.01,-0.0104 0.018,-0.0192 0.023,-0.0244c0.015,-0.0169 0.026,-0.0314 0.027,-0.0332c0.002,-0.0024 0.004,-0.0049 0.005,-0.0068c-0.002,0.0034 -0.004,0.0078 -0.008,0.0127c-0.012,0.0187 -0.029,0.044 -0.046,0.0703c-0.016,0.0261 -0.034,0.0525 -0.046,0.0722c-0.007,0.0099 -0.011,0.0187 -0.015,0.0245c-0.002,0.0027 -0.004,0.0043 -0.005,0.0058l-0.001,0.002v0.001l-0.025,0.039l-0.032,0.0332l-0.271,0.3106c-0.586,0.72 -0.844,1.4134 -0.912,2.0488c-0.079,0.7334 0.091,1.4314 0.369,2.0498c0.278,0.6192 0.658,1.142 0.972,1.5127c0.06,0.0715 0.119,0.1363 0.173,0.1953zM24.304,16.5166c0.003,-0.0058 0.005,-0.0094 0.006,-0.0107c0,0 -0.001,0.0011 -0.002,0.0029zM17.323,36.1592l-0.002,0.001l-0.001,0.0009v0.001c0,-0.0004 0.001,-0.0015 0.003,-0.0029z" fill="white" stroke="#0D1525"/>
<path id="Vector_30" d="M19.443,31.962c0.161,0.696 0.39,1.3625 0.68,1.9846c0,0 -0.428,1.5304 -2.448,2.5679c-0.002,0 -0.002,0.0019 -0.004,0.0019c-0.809,0.4136 -1.873,0.7477 -3.268,0.8732c-5.954,0.5391 -6.992,2.6104 -6.992,2.6104c0,0 -4.123,-3.5962 -0.732,-7.2054c0,0 0.136,-0.2123 0.136,-0.2104c0,0 -1.635,-22.1222 -1.474,-23.2188c0.018,-0.1329 2.037,-2.8903 2.037,-2.8903c0.002,0.0037 8.2,0.2996 8.2,0.2996c0,0 8.589,8.315 9.177,9.9581c0.002,0.0037 -3.434,6.355 -3.432,6.3568c-1.342,1.6671 -2.166,3.9138 -2.166,6.3894c0,0.216 0.006,0.4283 0.019,0.6406c0.035,0.6332 0.127,1.2498 0.267,1.8424z" stroke="#0D1525" stroke-miterlimit="10"/>
<path id="Vector_31" d="M21.946,26.4275c2.012,-2.8423 3.418,-6.4741 3.537,-9.7891v-0.0039c0.093,-2.1388 -0.196,-3.405 -0.679,-4.6142c-0.248,-0.6201 -0.546,-1.2252 -0.889,-1.9463c-0.256,-0.5367 -0.53,-1.1273 -0.813,-1.8125l-0.285,-0.7188c-0.682,-1.7916 -1.588,-2.9934 -2.782,-3.7773c-1.202,-0.7885 -2.75,-1.1903 -4.778,-1.2813c-3.69,-0.1662 -6.052,-0.8869 -7.805,-1.414c-1.775,-0.5335 -2.766,-0.8017 -3.91,-0.3174c-2.097,0.8881 -2.639,4.094 -0.38,5.9004c0.494,0.3957 1.082,0.6092 1.638,0.6943c0.563,0.0861 1.056,0.0345 1.342,-0.0605l0.571,-0.1895l0.081,0.5967c0.317,2.3186 2.289,4.4928 4.505,6.2461c2.192,1.7335 4.49,2.9565 5.291,3.416c3.093,1.7745 4.566,3.7861 5.201,5.5576l-0.002,0.001c0,0.0026 0.002,0.0051 0.003,0.0078l0.002,-0.001c0.454,1.2741 0.424,2.4573 0.152,3.5059z" fill="white" stroke="#0D1525"/>
<path id="Vector_32" d="M23.284,7.3646c-1.417,-3.7255 -3.848,-5.1931 -8.005,-5.3796c-7.254,-0.3267 -9.259,-2.8245 -11.933,-1.6929c-2.492,1.056 -3.009,4.7414 -0.496,6.7513c1.153,0.922 2.697,0.9679 3.449,0.7184c0.691,5.0549 8.469,9.1249 10.043,10.0278c3.006,1.7248 4.39,3.6498 4.978,5.2929c0.004,0.0018 0.005,0.0055 0.004,0.0073c1.137,3.1939 -1.027,5.795 -2.148,7.0301c3.653,-2.843 6.627,-8.4848 6.806,-13.4638c0.193,-4.4122 -1.197,-5.3482 -2.698,-9.2915z" stroke="#0D1525" stroke-miterlimit="10"/>
<path id="Vector_33" d="M7.226,32.5276c3.732,1.3815 7.654,-0.4508 8.631,-3.3291c0.713,-2.0994 1.009,-4.0231 0.373,-5.9902c-0.637,-1.9745 -2.241,-4.0805 -5.523,-6.4708c-2.918,-2.1256 -4.159,-4.2995 -4.656,-6.0107c-0.248,-0.8511 -0.307,-1.576 -0.306,-2.1074c0,-0.0443 0.002,-0.0875 0.003,-0.1289c-0.626,0.3249 -1.048,0.8738 -1.327,1.6054c-0.378,0.9916 -0.481,2.2942 -0.422,3.7374c0.012,0.299 -0.008,0.6131 -0.013,0.8349l-0.001,0.001l-0.029,0.8037c-0.037,0.7643 -0.095,1.434 -0.161,2.0313h0.001c-0.002,0.022 -0.005,0.0438 -0.006,0.0537c-0.001,0.006 -0.002,0.0095 -0.002,0.0127c0,0.0014 0,0.0024 0,0.0029l-0.001,0.0078v0.0068l-0.072,0.5821c-0.074,0.5572 -0.153,1.0465 -0.223,1.4882h0.001c-0.167,1.0792 -0.272,1.8542 -0.171,2.7295c0.102,0.8733 0.415,1.8826 1.149,3.3877c0.875,1.7916 1.164,3.2808 1.422,4.4043c0.264,1.1548 0.478,1.7933 1.071,2.2041l0.005,0.0039c0.004,0.0025 0.008,0.0047 0.013,0.0079c0.02,0.0123 0.048,0.0296 0.08,0.0478c0.071,0.0416 0.132,0.0725 0.161,0.083z" fill="white" stroke="#0D1525"/>
<path id="Vector_34" d="M16.33,29.3594c-1.084,3.1938 -5.332,5.0971 -9.278,3.6368c-0.147,-0.0535 -0.371,-0.1993 -0.371,-0.1993l-0.002,-0.0019c-1.544,-1.0708 -0.965,-3.3378 -2.657,-6.8011c-1.494,-3.0627 -1.356,-4.2609 -1.023,-6.4116c0.093,-0.5907 0.199,-1.2553 0.291,-2.051c0.002,-0.0222 0.006,-0.0462 0.007,-0.0683c0.088,-0.7883 0.161,-1.7058 0.189,-2.8061c0.006,-0.2529 0.024,-0.5243 0.013,-0.8031c-0.119,-2.9316 0.398,-5.5332 2.8,-6.0919c0.02,0.2375 -0.969,4.4401 4.702,8.5713c6.652,4.8446 6.786,8.7377 5.329,13.0262z" stroke="#0D1525" stroke-miterlimit="10"/>
</g></svg>