<svg viewBox="0 0 83 83" fill="none" xmlns="http://www.w3.org/2000/svg" xmlns:xlink="http://www.w3.org/1999/xlink" x="0" y="0"><path id="Vector" d="M44.505,14.32c-0.887,-0.5 -1.903,-0.79 -2.998,-0.79c-1.109,0 -2.146,0.3 -3.041,0.82c-1.81,1.05 -3.019,3.01 -3.019,5.25c0,1.1 0.3,2.14 0.815,3.04c1.052,1.8 3.006,3.02 5.245,3.02c2.225,0 4.164,-1.2 5.216,-2.98c0.537,-0.9 0.845,-1.95 0.845,-3.08c0,-2.27 -1.231,-4.23 -3.063,-5.28zM44.505,14.32c-0.887,-0.5 -1.903,-0.79 -2.998,-0.79c-1.109,0 -2.146,0.3 -3.041,0.82c-1.81,1.05 -3.019,3.01 -3.019,5.25c0,1.1 0.3,2.14 0.815,3.04c1.052,1.8 3.006,3.02 5.245,3.02c2.225,0 4.164,-1.2 5.216,-2.98c0.537,-0.9 0.845,-1.95 0.845,-3.08c0,-2.27 -1.231,-4.23 -3.063,-5.28zM44.505,14.32c-0.887,-0.5 -1.903,-0.79 -2.998,-0.79c-1.109,0 -2.146,0.3 -3.041,0.82c-1.81,1.05 -3.019,3.01 -3.019,5.25c0,1.1 0.3,2.14 0.815,3.04c1.052,1.8 3.006,3.02 5.245,3.02c2.225,0 4.164,-1.2 5.216,-2.98c0.537,-0.9 0.845,-1.95 0.845,-3.08c0,-2.27 -1.231,-4.23 -3.063,-5.28zM44.505,14.32c-0.887,-0.5 -1.903,-0.79 -2.998,-0.79c-1.109,0 -2.146,0.3 -3.041,0.82c-1.81,1.05 -3.019,3.01 -3.019,5.25c0,1.1 0.3,2.14 0.815,3.04c1.052,1.8 3.006,3.02 5.245,3.02c2.225,0 4.164,-1.2 5.216,-2.98c0.537,-0.9 0.845,-1.95 0.845,-3.08c0,-2.27 -1.231,-4.23 -3.063,-5.28zM44.505,14.32c-0.887,-0.5 -1.903,-0.79 -2.998,-0.79c-1.109,0 -2.146,0.3 -3.041,0.82c-1.81,1.05 -3.019,3.01 -3.019,5.25c0,1.1 0.3,2.14 0.815,3.04c1.052,1.8 3.006,3.02 5.245,3.02c2.225,0 4.164,-1.2 5.216,-2.98c0.537,-0.9 0.845,-1.95 0.845,-3.08c0,-2.27 -1.231,-4.23 -3.063,-5.28zM73.369,14.92c-1.76,-2.11 -3.735,-4.04 -5.874,-5.77c-1.574,-1.27 -3.242,-2.42 -4.987,-3.45c-2.34,-1.37 -4.83,-2.53 -7.435,-3.42c-4.257,-1.48 -8.822,-2.28 -13.573,-2.28c-4.765,0 -9.337,0.8 -13.602,2.28c-2.604,0.9 -5.087,2.06 -7.427,3.44c-1.746,1.03 -3.413,2.18 -4.987,3.45c-2.154,1.73 -4.129,3.67 -5.896,5.8c-5.989,7.19 -9.588,16.44 -9.588,26.53c0,4.87 0.837,9.55 2.383,13.9c0.923,2.59 2.096,5.08 3.491,7.4l6.032,-6.09l19.534,-19.7l4.207,4.25l-20.442,20.61l-5.839,5.89c1.746,2.13 3.692,4.09 5.817,5.83c7.163,5.88 16.328,9.41 26.317,9.41c9.96,0 19.104,-3.51 26.259,-9.37c2.14,-1.74 4.1,-3.7 5.853,-5.84l-5.838,-5.89l-20.5,-20.67l4.207,-4.24l19.591,19.76l6.032,6.08c1.403,-2.33 2.576,-4.81 3.496,-7.4c1.56,-4.36 2.4,-9.04 2.4,-13.93c0,-10.12 -3.62,-19.38 -9.631,-26.58zM61.928,67.75c-5.638,4.4 -12.729,7.01 -20.428,7.01c-7.728,0 -14.84,-2.63 -20.485,-7.05l20.435,-20.61zM56.898,31.53l-5.796,-5.85l-5.416,5.47l-4.2,4.24l-4.208,-4.24l-5.416,-5.47l-5.824,5.87l-17.022,17.16c-0.516,-2.32 -0.78,-4.73 -0.78,-7.21c0,-7.8 2.683,-14.98 7.183,-20.65c1.718,-2.17 3.7,-4.11 5.903,-5.8c1.617,-1.23 3.349,-2.32 5.181,-3.25c2.511,-1.27 5.202,-2.23 8.028,-2.83c2.247,-0.48 4.579,-0.73 6.969,-0.73c2.376,0 4.694,0.25 6.926,0.72c2.826,0.6 5.524,1.56 8.035,2.82c1.832,0.93 3.571,2.02 5.188,3.25c2.189,1.67 4.171,3.61 5.882,5.76c4.522,5.68 7.226,12.88 7.226,20.7c0,2.49 -0.272,4.91 -0.794,7.24zM44.505,14.32c-0.887,-0.5 -1.903,-0.79 -2.998,-0.79c-1.109,0 -2.146,0.3 -3.041,0.82c-1.81,1.05 -3.019,3.01 -3.019,5.25c0,1.1 0.3,2.14 0.815,3.04c1.052,1.8 3.006,3.02 5.245,3.02c2.225,0 4.164,-1.2 5.216,-2.98c0.537,-0.9 0.845,-1.95 0.845,-3.08c0,-2.27 -1.231,-4.23 -3.063,-5.28zM44.505,14.32c-0.887,-0.5 -1.903,-0.79 -2.998,-0.79c-1.109,0 -2.146,0.3 -3.041,0.82c-1.81,1.05 -3.019,3.01 -3.019,5.25c0,1.1 0.3,2.14 0.815,3.04c1.052,1.8 3.006,3.02 5.245,3.02c2.225,0 4.164,-1.2 5.216,-2.98c0.537,-0.9 0.845,-1.95 0.845,-3.08c0,-2.27 -1.231,-4.23 -3.063,-5.28zM44.505,14.32c-0.887,-0.5 -1.903,-0.79 -2.998,-0.79c-1.109,0 -2.146,0.3 -3.041,0.82c-1.81,1.05 -3.019,3.01 -3.019,5.25c0,1.1 0.3,2.14 0.815,3.04c1.052,1.8 3.006,3.02 5.245,3.02c2.225,0 4.164,-1.2 5.216,-2.98c0.537,-0.9 0.845,-1.95 0.845,-3.08c0,-2.27 -1.231,-4.23 -3.063,-5.28zM44.505,14.32c-0.887,-0.5 -1.903,-0.79 -2.998,-0.79c-1.109,0 -2.146,0.3 -3.041,0.82c-1.81,1.05 -3.019,3.01 -3.019,5.25c0,1.1 0.3,2.14 0.815,3.04c1.052,1.8 3.006,3.02 5.245,3.02c2.225,0 4.164,-1.2 5.216,-2.98c0.537,-0.9 0.845,-1.95 0.845,-3.08c0,-2.27 -1.231,-4.23 -3.063,-5.28zM44.505,14.32c-0.887,-0.5 -1.903,-0.79 -2.998,-0.79c-1.109,0 -2.146,0.3 -3.041,0.82c-1.81,1.05 -3.019,3.01 -3.019,5.25c0,1.1 0.3,2.14 0.815,3.04c1.052,1.8 3.006,3.02 5.245,3.02c2.225,0 4.164,-1.2 5.216,-2.98c0.537,-0.9 0.845,-1.95 0.845,-3.08c0,-2.27 -1.231,-4.23 -3.063,-5.28z" fill="black"/></svg>