<svg viewBox="0 0 64.4789 69" fill="none" xmlns="http://www.w3.org/2000/svg" xmlns:xlink="http://www.w3.org/1999/xlink" x="0" y="0"><defs><linearGradient id="paint12_linear_2005_3272" x1="39.48000000000002" y1="14.410000000000082" x2="55.20500000000004" y2="13.88000000000011" gradientUnits="userSpaceOnUse">
<stop stop-color="#079646"/>
<stop offset="1" stop-color="#39B54A"/>
</linearGradient><linearGradient id="paint13_linear_2005_3272" x1="-0.23500000000001364" y1="37.25" x2="65.92899999999997" y2="37.25" gradientUnits="userSpaceOnUse">
<stop stop-color="#009245"/>
<stop offset="0.41" stop-color="#37B44A"/>
<stop offset="1" stop-color="#39B54A"/>
</linearGradient><linearGradient id="paint14_linear_2005_3272" x1="52.311000000000035" y1="18.839999999999918" x2="61.976999999999975" y2="18.839999999999918" gradientUnits="userSpaceOnUse">
<stop stop-color="#009245"/>
<stop offset="0.41" stop-color="#37B44A"/>
<stop offset="1" stop-color="#39B54A"/>
</linearGradient><linearGradient id="paint15_linear_2005_3272" x1="29.11099999999999" y1="60.430000000000064" x2="31.642000000000053" y2="10.319999999999936" gradientUnits="userSpaceOnUse">
<stop stop-color="#39B54A"/>
<stop offset="1" stop-color="#009245"/>
</linearGradient><clipPath id="clip1_2005_3272">
<rect width="64.4789" height="69" fill="white" transform="translate(0, 0)"/>
</clipPath></defs><g id="Layer_1" clip-path="url(#clip1_2005_3272)">
<path id="Vector_2" d="M23.514,31.15c-0.017,0 -0.017,0.02 -0.015,0.03c0.002,0.02 0.027,0.1 0.036,0.12c0.316,0.8 0.564,1.62 0.636,2.48c0.085,0.92 -0.021,1.87 -0.333,2.77c-0.057,0.17 -0.239,0.26 -0.407,0.2c-0.165,-0.06 -0.255,-0.24 -0.197,-0.41c0.744,-1.48 0.768,-3.27 0.322,-4.87c-0.013,-0.05 -0.049,-0.2 -0.057,-0.25c-0.002,-0.01 -0.004,-0.02 -0.004,-0.04c0,-0.01 0,-0.04 0.019,-0.03z" fill="#1DA448"/>
<path id="Vector_3" d="M21.901,26.67c0.1,-0.06 0.178,0.04 0.274,0.1c2.219,1.61 3.753,4.19 3.933,6.95c0.058,0.96 -0.019,1.93 -0.229,2.86c-0.013,0.08 -0.049,0.14 -0.085,0.2l-1.606,2.84c-0.189,0.33 -0.577,0.48 -0.929,0.38c-2.624,-0.77 -3.628,-3.55 -2.898,-6.03c0.515,-1.85 1.203,-3.66 1.491,-5.55c0.053,-0.4 0.092,-0.8 0.064,-1.2c-0.006,-0.16 -0.064,-0.38 -0.017,-0.54zM22.037,26.84c0.047,0.05 0.121,0.06 0.17,0.06c0.643,0.94 0.766,2.16 0.795,3.26c0.007,1.19 -0.133,2.36 -0.354,3.49c-0.185,0.93 -0.416,1.89 -0.274,2.83c0.092,0.81 0.607,1.52 1.326,1.85l-0.971,0.38l1.837,-2.7l-0.085,0.19c1.135,-3.28 0.025,-6.88 -2.455,-9.25l-0.059,-0.06l-0.03,-0.02l-0.015,-0.02c0,0 0.011,0.01 0.041,0.02c0.032,0 0.063,-0.02 0.074,-0.03z" fill="#1DA448"/>
<path id="Vector_4" d="M50.538,23.11c-0.014,0.04 0.083,0.1 0.068,0.09c-0.023,0 -0.07,0 -0.095,0c-1.941,0.02 -4.059,0.21 -5.811,0.98c-1.154,0.52 -2.187,1.23 -2.994,2.2l-0.186,0.24c-0.414,0.57 0.114,1.05 0.687,1.35c1.767,0.84 3.726,-0.09 4.782,-1.66c0.991,-1.26 2.117,-2.45 3.509,-3.26l0.047,-0.02l0.023,-0.02c0.013,0 -0.015,0.01 -0.023,0.03c-0.011,0.02 -0.011,0.05 -0.004,0.07zM50.751,23.09c0,0.06 -0.051,0.11 -0.089,0.13c-0.809,0.64 -1.469,1.45 -2.067,2.29c-0.488,0.66 -0.834,1.34 -1.296,2.03c-0.866,1.23 -2.253,2.09 -3.825,2.17c-2.171,0.18 -4.763,-1.57 -3.605,-3.99c0.291,-0.55 0.639,-1.07 1.046,-1.54c2.323,-2.73 6.594,-2.93 9.581,-1.29c0.032,0.02 0.127,0.07 0.159,0.09l0.011,0.01h0.006c-0.01,-0.01 0.091,0.05 0.081,0.1z" fill="#109C46"/>
<path id="Vector_5" d="M45.432,25.41c-0.013,-0.03 -0.049,0.02 -0.061,0.03c-0.036,0.04 -0.134,0.15 -0.17,0.19c-1.209,1.47 -2.843,2.51 -4.795,2.76c-1.43,0.15 -1.721,-1.92 -0.301,-2.16c0.146,-0.02 0.295,-0.01 0.428,0.03c0.747,0.19 1.57,0.23 2.408,0.06c0.804,-0.14 1.604,-0.48 2.332,-0.87l0.078,-0.04c0.013,0 0.028,-0.01 0.043,-0.01c0.011,0 0.04,-0.01 0.038,0.01z" fill="#109C46"/>
<path id="Vector_6" d="M53.584,3.51c-1.078,0.19 -2.115,0.55 -3.104,0.99c-0.989,0.44 -1.92,0.99 -2.775,1.64c-1.716,1.28 -3.076,2.97 -3.999,4.84c-0.465,0.94 -0.798,1.94 -1.07,2.95c-0.114,0.51 -0.244,1.01 -0.311,1.53c-0.039,0.26 -0.094,0.52 -0.115,0.78l-0.076,0.78c-0.183,2.09 -0.047,4.21 0.263,6.3c0.104,0.69 -0.378,1.34 -1.074,1.45c-0.696,0.1 -1.345,-0.38 -1.449,-1.08c-0.006,-0.04 -0.01,-0.08 -0.013,-0.12c-0.114,-2.26 -0.04,-4.55 0.378,-6.8l0.166,-0.84c0.053,-0.28 0.14,-0.55 0.207,-0.83c0.13,-0.56 0.323,-1.1 0.503,-1.64c0.401,-1.07 0.872,-2.12 1.475,-3.09c0.604,-0.97 1.309,-1.87 2.109,-2.67c0.799,-0.8 1.693,-1.5 2.647,-2.09c0.955,-0.58 1.969,-1.05 3.017,-1.41c1.048,-0.34 2.128,-0.6 3.221,-0.69z" fill="url(#paint12_linear_2005_3272)"/>
<path id="Vector_7" d="M63.383,36.16c0.566,6 -0.895,12.3 -4.112,17.66c-0.81,1.33 -1.718,2.61 -2.711,3.83c-1.008,1.21 -2.111,2.34 -3.284,3.4c-1.182,1.05 -2.453,2.01 -3.783,2.88c-1.334,0.87 -2.739,1.63 -4.196,2.29c-1.458,0.66 -2.973,1.18 -4.515,1.63l-1.167,0.3c-0.39,0.1 -0.785,0.16 -1.18,0.25l-0.592,0.11l-0.596,0.1c-0.396,0.05 -0.795,0.12 -1.194,0.17c-0.8,0.07 -1.602,0.17 -2.406,0.19c-0.804,0.05 -1.61,0.02 -2.417,0.02c-1.61,-0.07 -3.222,-0.22 -4.813,-0.52c-1.589,-0.3 -3.164,-0.7 -4.693,-1.23c-1.526,-0.55 -3.026,-1.18 -4.462,-1.94c-1.432,-0.76 -2.809,-1.62 -4.118,-2.58c-1.3,-0.98 -2.535,-2.03 -3.694,-3.17c-1.139,-1.16 -2.195,-2.39 -3.167,-3.69c-0.961,-1.31 -1.823,-2.69 -2.591,-4.12c-0.755,-1.44 -1.387,-2.94 -1.93,-4.46l-0.38,-1.15c-0.123,-0.39 -0.218,-0.79 -0.329,-1.17l-0.159,-0.59l-0.131,-0.59c-0.081,-0.4 -0.181,-0.79 -0.244,-1.19c-0.293,-1.6 -0.446,-3.21 -0.516,-4.82c-0.045,-1.61 0.028,-3.22 0.212,-4.82c0.047,-0.4 0.115,-0.8 0.172,-1.2l0.091,-0.59l0.119,-0.59c0.083,-0.4 0.151,-0.79 0.248,-1.18l0.299,-1.17c0.446,-1.54 0.974,-3.06 1.632,-4.52c0.66,-1.45 1.421,-2.86 2.287,-4.19c0.874,-1.33 1.827,-2.6 2.879,-3.78c1.063,-1.18 2.194,-2.28 3.399,-3.29c1.22,-0.99 2.501,-1.9 3.836,-2.71c5.359,-3.22 11.66,-4.68 17.66,-4.11c-1.498,0.17 -2.979,0.37 -4.426,0.72c-0.363,0.07 -0.719,0.18 -1.078,0.26l-0.537,0.14l-0.53,0.17c-0.352,0.11 -0.706,0.21 -1.052,0.33l-1.038,0.37c-1.366,0.54 -2.701,1.13 -3.969,1.84c-1.267,0.72 -2.491,1.49 -3.639,2.36c-4.61,3.45 -8.138,8.18 -10.096,13.43c-0.501,1.31 -0.879,2.66 -1.184,4.01c-0.304,1.36 -0.488,2.75 -0.605,4.13c-0.034,0.69 -0.083,1.39 -0.066,2.08c-0.014,0.7 0.032,1.39 0.06,2.08c0.11,1.38 0.284,2.76 0.579,4.1c0.312,1.35 0.666,2.68 1.152,3.97c0.49,1.29 1.048,2.55 1.714,3.75c0.666,1.21 1.398,2.37 2.222,3.48c0.831,1.09 1.735,2.13 2.702,3.11c0.976,0.97 2.016,1.87 3.113,2.7c1.101,0.82 2.27,1.55 3.471,2.22c1.205,0.67 2.465,1.23 3.751,1.72l0.973,0.34c0.327,0.11 0.66,0.2 0.989,0.3l0.497,0.15l0.502,0.12c0.336,0.08 0.667,0.18 1.006,0.24c1.349,0.3 2.724,0.47 4.105,0.58c1.384,0.08 2.775,0.09 4.163,0c1.385,-0.12 2.766,-0.31 4.128,-0.61c1.36,-0.3 2.71,-0.68 4.019,-1.18c5.253,-1.96 9.977,-5.49 13.433,-10.1c0.87,-1.15 1.643,-2.38 2.355,-3.64c0.711,-1.27 1.301,-2.61 1.838,-3.98l0.373,-1.03c0.121,-0.35 0.219,-0.71 0.333,-1.06l0.164,-0.53l0.137,-0.53c0.09,-0.36 0.191,-0.72 0.27,-1.08c0.344,-1.45 0.543,-2.93 0.708,-4.43z" fill="url(#paint13_linear_2005_3272)"/>
<path id="Vector_8" d="M53.137,12.83c1.033,0.67 1.977,1.46 2.847,2.32c0.867,0.87 1.667,1.81 2.378,2.81c0.176,0.26 0.35,0.51 0.52,0.77c0.165,0.25 0.329,0.51 0.488,0.78l0.458,0.8c0.144,0.27 0.282,0.54 0.422,0.82c0.541,1.1 0.995,2.24 1.309,3.43c0.036,0.13 -0.046,0.28 -0.184,0.31c-0.117,0.04 -0.236,-0.02 -0.293,-0.12c-0.594,-1.05 -1.18,-2.08 -1.806,-3.08c-0.157,-0.25 -0.322,-0.5 -0.475,-0.75l-0.486,-0.74c-0.167,-0.25 -0.337,-0.49 -0.5,-0.73l-0.514,-0.72c-0.696,-0.95 -1.417,-1.88 -2.174,-2.79c-0.756,-0.91 -1.543,-1.8 -2.332,-2.71c-0.095,-0.11 -0.085,-0.28 0.025,-0.37c0.09,-0.08 0.219,-0.09 0.314,-0.02z" fill="url(#paint14_linear_2005_3272)"/>
<path id="Vector_9" d="M52.722,48.26c0,0 2.947,-4.04 2.852,-10.97c-0.096,-6.94 5.987,-5.89 5.987,-5.89l-3.505,16.06l-5.334,0.81z" fill="#006837" stroke="white" stroke-width="0.682416" stroke-miterlimit="10"/>
<path id="Vector_10" d="M32.113,65.84c0,0 9.504,0.67 10.835,-6.65c1.33,-7.32 6.842,-15.02 7.033,-17.2c0.191,-2.19 1.71,-2.66 2.851,0c1.141,2.66 -0.38,6.65 -0.38,6.65c0,0 5.417,-1.55 6.842,-8.47c1.426,-6.93 1.522,-9.82 4.941,-10.13c0,0 1.617,13.66 -3.517,21.55c-5.132,7.88 -13.495,14.82 -28.607,15.57v-1.32z" fill="#39B54A"/>
<path id="Vector_11" d="M63.634,29.9c-2.347,0.85 -2.574,3.82 -3.826,9.89c-1.404,6.81 -6.676,8.43 -6.839,8.47c0.159,-0.11 4.378,-3.31 4.985,-10.02c0.62,-6.84 2.947,-8.65 5.68,-8.34z" fill="#009245" stroke="white" stroke-width="0.682416" stroke-miterlimit="10"/>
<path id="Vector_12" d="M30.543,45.62c0.102,-0.03 0.117,-0.04 0.166,-0.05l0.114,-0.03c0.073,-0.02 0.143,-0.03 0.211,-0.04c0.137,-0.03 0.273,-0.05 0.411,-0.06c0.278,-0.03 0.567,-0.04 0.878,0c0.31,0.03 0.641,0.1 0.978,0.22c0.338,0.13 0.675,0.32 0.972,0.56c0.605,0.48 0.985,1.12 1.18,1.66c0.201,0.56 0.271,1.05 0.303,1.5c0.007,0.11 0.015,0.22 0.015,0.32v0.16v0.08c0,0.03 0,0.05 0,0.1c-0.011,0.33 -0.066,0.67 -0.157,0.98c-0.182,0.63 -0.503,1.16 -0.863,1.58c-0.73,0.85 -1.594,1.34 -2.481,1.64c-0.889,0.29 -1.828,0.38 -2.762,0.26c-0.933,-0.12 -1.856,-0.47 -2.633,-1c-0.783,-0.53 -1.4,-1.22 -1.867,-1.95c-0.469,-0.75 -0.795,-1.57 -0.969,-2.41c-0.346,-1.68 -0.132,-3.4 0.551,-4.92c0.673,-1.51 1.855,-2.85 3.331,-3.67c0.732,-0.42 1.528,-0.72 2.328,-0.89c0.199,-0.04 0.401,-0.07 0.6,-0.11l0.554,-0.06c0.373,-0.03 0.749,-0.06 1.13,-0.05c1.52,0 3.123,0.34 4.547,1.12c1.428,0.76 2.633,1.94 3.445,3.3c0.821,1.35 1.273,2.86 1.422,4.35c0.074,0.74 0.085,1.48 0.025,2.21c-0.031,0.36 -0.068,0.72 -0.127,1.08l-0.042,0.26c-0.015,0.09 -0.039,0.2 -0.058,0.3c-0.042,0.19 -0.089,0.39 -0.144,0.58c-0.439,1.56 -1.271,2.92 -2.291,4.02c-1.023,1.11 -2.238,2 -3.562,2.64c-1.324,0.64 -2.761,1.05 -4.233,1.19c-1.47,0.13 -2.97,-0.01 -4.385,-0.41c-1.417,-0.41 -2.739,-1.07 -3.904,-1.9c-1.158,-0.83 -2.183,-1.8 -3.059,-2.93c-0.868,-1.13 -1.572,-2.41 -2.043,-3.77c-0.478,-1.36 -0.713,-2.81 -0.703,-4.25c0.007,-1.44 0.27,-2.88 0.752,-4.22c0.483,-1.35 1.185,-2.6 2.053,-3.71c0.864,-1.11 1.884,-2.08 2.994,-2.89c1.109,-0.81 2.304,-1.46 3.536,-1.98c0.308,-0.13 0.618,-0.26 0.932,-0.37c0.157,-0.06 0.312,-0.11 0.469,-0.16l0.456,-0.15c0.539,-0.17 1.067,-0.36 1.591,-0.56c1.046,-0.41 2.062,-0.87 3.03,-1.41c0.973,-0.53 1.884,-1.16 2.724,-1.85c0.833,-0.7 1.585,-1.49 2.189,-2.38c0.601,-0.88 1.065,-1.86 1.294,-2.91c0.117,-0.53 0.183,-1.07 0.196,-1.61c0.006,-0.55 -0.041,-1.1 -0.141,-1.64c-0.195,-1.1 -0.611,-2.18 -1.164,-3.19c-1.11,-2.03 -2.737,-3.82 -4.553,-5.38c-0.138,-0.12 -0.153,-0.32 -0.036,-0.46c0.112,-0.13 0.305,-0.15 0.443,-0.05c0.989,0.72 1.941,1.5 2.835,2.36c0.893,0.86 1.716,1.81 2.422,2.86c0.709,1.05 1.284,2.21 1.662,3.47c0.371,1.25 0.517,2.6 0.392,3.95c-0.125,1.35 -0.528,2.67 -1.131,3.88c-0.602,1.22 -1.398,2.32 -2.31,3.29c-1.831,1.95 -4.08,3.4 -6.454,4.44c-0.594,0.26 -1.199,0.5 -1.807,0.71l-0.401,0.15c-0.13,0.04 -0.257,0.09 -0.382,0.14c-0.255,0.1 -0.503,0.21 -0.751,0.32c-0.987,0.44 -1.914,0.98 -2.746,1.62c-1.663,1.27 -2.938,2.95 -3.56,4.83c-0.63,1.88 -0.587,3.93 0.092,5.76c0.333,0.93 0.827,1.79 1.444,2.57c0.616,0.77 1.373,1.47 2.188,2.04c0.816,0.56 1.697,0.97 2.611,1.22c0.915,0.24 1.865,0.32 2.805,0.22c0.938,-0.1 1.865,-0.37 2.711,-0.79c0.849,-0.42 1.617,-1 2.226,-1.67c0.611,-0.68 1.056,-1.45 1.267,-2.23c0.027,-0.1 0.048,-0.2 0.07,-0.29c0.008,-0.06 0.019,-0.1 0.027,-0.16l0.028,-0.18c0.04,-0.24 0.059,-0.48 0.08,-0.72c0.036,-0.48 0.024,-0.96 -0.025,-1.42c-0.102,-0.91 -0.369,-1.77 -0.804,-2.49c-0.433,-0.72 -1.023,-1.28 -1.729,-1.66c-0.707,-0.38 -1.538,-0.58 -2.432,-0.58c-0.222,0 -0.452,0.01 -0.681,0.03l-0.345,0.04l-0.293,0.05c-0.382,0.09 -0.734,0.22 -1.055,0.4c-0.32,0.17 -0.609,0.4 -0.855,0.68c-0.248,0.26 -0.458,0.58 -0.611,0.92c-0.32,0.69 -0.411,1.48 -0.271,2.17c0.07,0.35 0.199,0.67 0.367,0.96c0.178,0.28 0.39,0.51 0.607,0.67c0.218,0.15 0.456,0.24 0.721,0.29c0.263,0.04 0.56,0.01 0.821,-0.07c0.259,-0.07 0.477,-0.22 0.541,-0.3c0.034,-0.03 0.028,-0.03 0.015,0.02c-0.007,0.02 -0.011,0.05 -0.009,0.09v-0.12c0.005,-0.05 0,-0.09 0,-0.13c-0.006,-0.16 -0.032,-0.27 -0.036,-0.28c0,-0.01 0,0 0.007,0c0.004,0.02 0.012,0.02 0.025,0.05c0.026,0.03 0.074,0.09 0.138,0.14c0.062,0.05 0.136,0.08 0.189,0.1c0.055,0.02 0.089,0.02 0.097,0.02c0.011,0 -0.004,0 -0.027,0c-0.011,0 -0.026,0.01 -0.036,0.01h-0.013l0.062,-0.02c-1.114,0.36 -2.313,-0.24 -2.678,-1.36c-0.365,-1.11 0.242,-2.31 1.354,-2.67z" fill="url(#paint15_linear_2005_3272)"/>
<path id="Vector_13" d="M24.34,13.68c-0.023,-0.04 0.055,-0.13 0.053,-0.11h0.005l0.008,-0.02c0.028,-0.03 0.1,-0.1 0.132,-0.13c2.715,-2.6 7.417,-3.57 10.516,-1.03c0.582,0.47 1.152,0.92 1.386,1.7c0.367,1.19 -0.363,2.36 -1.28,3.02c-1.54,1.13 -3.71,1.23 -5.355,0.37c-0.53,-0.26 -1.001,-0.62 -1.429,-1.03c-1.078,-0.99 -2.256,-1.91 -3.588,-2.53l-0.183,-0.08l-0.093,-0.04c-0.066,-0.02 -0.146,-0.04 -0.172,-0.12zM24.55,13.65c0,-0.02 -0.006,-0.05 -0.023,-0.07c-0.015,-0.01 -0.042,-0.02 -0.03,-0.01c0.015,0 0.064,0.01 0.079,0.01c1.597,0.38 3.048,1.21 4.383,2.15c1.519,1.21 3.721,1.41 5.228,0.13c0.475,-0.43 0.903,-1.04 0.314,-1.45c-1.142,-0.82 -2.478,-1.24 -3.885,-1.4c-1.958,-0.22 -4.084,0.2 -6.013,0.72l-0.051,0.01l-0.025,0.01h-0.013h-0.006c-0.006,0.02 0.068,-0.07 0.042,-0.11z" fill="#059545"/>
<path id="Vector_14" d="M29.945,14.07c-0.006,-0.02 0.019,-0.02 0.032,-0.02c0.026,0 0.1,0.02 0.127,0.03c0.798,0.23 1.638,0.4 2.466,0.39c0.872,-0.01 1.72,-0.19 2.473,-0.54c0.268,-0.13 0.584,-0.01 0.709,0.25c0.146,0.31 -0.04,0.68 -0.367,0.75c-0.955,0.24 -1.941,0.25 -2.864,0.07c-0.859,-0.16 -1.659,-0.49 -2.427,-0.89c-0.03,-0.01 -0.142,-0.08 -0.147,-0.04z" fill="#059545"/>
<path id="Vector_15" d="M58.146,1.83c-0.006,0.04 -0.064,0.11 -0.115,0.13h-0.014l-0.06,0.03c-1.822,0.88 -3.507,2.22 -4.549,3.96c-0.246,0.42 -0.471,0.96 -0.653,1.41c-0.392,0.92 -1.046,1.73 -1.952,2.25c-1.93,1.11 -4.621,0.65 -6.048,-1.09c-1.413,-2.11 -0.643,-5.27 1.236,-6.85c3.159,-2.73 8.824,-1.7 12.153,0.16zM57.934,1.84c-0.569,-0.07 -0.978,0.08 -1.538,0.02c-1.886,-0.09 -3.792,-0.16 -5.652,0.16c-1.468,0.23 -3.064,0.84 -3.976,1.89c-0.808,0.9 -1.214,2.37 -0.76,3.51c0.482,0.85 1.515,1.28 2.472,1.38c1.402,0.17 2.724,-0.63 3.363,-1.88c0.239,-0.46 0.539,-1.01 0.844,-1.43c1.288,-1.75 3.151,-3 5.183,-3.71l0.066,-0.02l0.017,-0.01c-0.032,0.02 -0.038,0.07 -0.021,0.09z" fill="#17A047"/>
<path id="Vector_16" d="M42.948,59.19c0,0 -1.659,6.1 -13.533,6.1c-11.875,0 7.468,1.4 7.468,1.4l10.096,-6.96z" fill="#39B54A"/>
</g></svg>