<svg viewBox="0 0 403 300" fill="none" xmlns="http://www.w3.org/2000/svg" xmlns:xlink="http://www.w3.org/1999/xlink" x="0" y="0"><defs><clipPath id="clip3_2005_3272">
<rect x="0" y="0" width="403" height="300" rx="12" fill="white"/>
</clipPath><clipPath id="clip4_2005_3272">
<rect width="167.279" height="31.5101" fill="white" transform="translate(-10.687000000000012, 313.98) rotate(-17, 0, 0)"/>
</clipPath><clipPath id="clip5_2005_3272">
<rect width="167.279" height="31.5101" fill="white" transform="translate(-84.388, 72.92000000000007) rotate(-17, 0, 0)"/>
</clipPath><clipPath id="clip6_2005_3272">
<rect width="167.279" height="31.5101" fill="white" transform="translate(-47.537000000000006, 193.45000000000005) rotate(-17, 0, 0)"/>
</clipPath><clipPath id="clip7_2005_3272">
<rect width="167.279" height="31.5101" fill="white" transform="translate(309.25199999999995, 216.17000000000007) rotate(-17, 0, 0)"/>
</clipPath><clipPath id="clip8_2005_3272">
<rect width="167.279" height="31.5101" fill="white" transform="translate(235.55200000000002, -24.90000000000009) rotate(-17, 0, 0)"/>
</clipPath><clipPath id="clip9_2005_3272">
<rect width="167.279" height="31.5101" fill="white" transform="translate(346.10299999999995, 336.70000000000005) rotate(-17, 0, 0)"/>
</clipPath><clipPath id="clip10_2005_3272">
<rect width="167.279" height="31.5101" fill="white" transform="translate(272.403, 95.6400000000001) rotate(-17, 0, 0)"/>
</clipPath><clipPath id="clip11_2005_3272">
<rect width="167.279" height="31.5101" fill="white" transform="translate(149.28300000000002, 265.0799999999999) rotate(-17, 0, 0)"/>
</clipPath><clipPath id="clip12_2005_3272">
<rect width="167.279" height="31.5101" fill="white" transform="translate(75.582, 24.00999999999999) rotate(-17, 0, 0)"/>
</clipPath><clipPath id="clip13_2005_3272">
<rect width="167.279" height="31.5101" fill="white" transform="translate(112.43200000000002, 144.54999999999995) rotate(-17, 0, 0)"/>
</clipPath><clipPath id="clip14_2005_3272">
<rect width="167.279" height="31.5101" fill="white" transform="translate(-29.111999999999995, 253.72000000000003) rotate(-17, 0, 0)"/>
</clipPath><clipPath id="clip15_2005_3272">
<rect width="167.279" height="31.5101" fill="white" transform="translate(-102.81299999999999, 12.650000000000091) rotate(-17, 0, 0)"/>
</clipPath><clipPath id="clip16_2005_3272">
<rect width="167.279" height="31.5101" fill="white" transform="translate(-65.96199999999999, 133.19000000000005) rotate(-17, 0, 0)"/>
</clipPath><clipPath id="clip17_2005_3272">
<rect width="167.279" height="31.5101" fill="white" transform="translate(290.827, 155.9000000000001) rotate(-17, 0, 0)"/>
</clipPath><clipPath id="clip18_2005_3272">
<rect width="167.279" height="31.5101" fill="white" transform="translate(327.677, 276.44000000000005) rotate(-17, 0, 0)"/>
</clipPath><clipPath id="clip19_2005_3272">
<rect width="167.279" height="31.5101" fill="white" transform="translate(253.978, 35.36999999999989) rotate(-17, 0, 0)"/>
</clipPath><clipPath id="clip20_2005_3272">
<rect width="167.279" height="31.5101" fill="white" transform="translate(130.85700000000003, 204.80999999999995) rotate(-17, 0, 0)"/>
</clipPath><clipPath id="clip21_2005_3272">
<rect width="167.279" height="31.5101" fill="white" transform="translate(167.70800000000003, 325.3399999999999) rotate(-17, 0, 0)"/>
</clipPath><clipPath id="clip22_2005_3272">
<rect width="167.279" height="31.5101" fill="white" transform="translate(94.007, 84.27999999999997) rotate(-17, 0, 0)"/>
</clipPath><clipPath id="clip23_2005_3272">
<rect width="167.279" height="31.5101" fill="white" transform="translate(-19.899, 283.8499999999999) rotate(-17, 0, 0)"/>
</clipPath><clipPath id="clip24_2005_3272">
<rect width="167.279" height="31.5101" fill="white" transform="translate(-93.601, 42.789999999999964) rotate(-17, 0, 0)"/>
</clipPath><clipPath id="clip25_2005_3272">
<rect width="167.279" height="31.5101" fill="white" transform="translate(-56.75, 163.31999999999994) rotate(-17, 0, 0)"/>
</clipPath><clipPath id="clip26_2005_3272">
<rect width="167.279" height="31.5101" fill="white" transform="translate(300.039, 186.03999999999996) rotate(-17, 0, 0)"/>
</clipPath><clipPath id="clip27_2005_3272">
<rect width="167.279" height="31.5101" fill="white" transform="translate(336.89, 306.56999999999994) rotate(-17, 0, 0)"/>
</clipPath><clipPath id="clip28_2005_3272">
<rect width="167.279" height="31.5101" fill="white" transform="translate(263.19, 65.5) rotate(-17, 0, 0)"/>
</clipPath><clipPath id="clip29_2005_3272">
<rect width="167.279" height="31.5101" fill="white" transform="translate(140.07, 234.94000000000005) rotate(-17, 0, 0)"/>
</clipPath><clipPath id="clip30_2005_3272">
<rect width="167.279" height="31.5101" fill="white" transform="translate(66.37, -6.119999999999891) rotate(-17, 0, 0)"/>
</clipPath><clipPath id="clip31_2005_3272">
<rect width="167.279" height="31.5101" fill="white" transform="translate(103.22000000000003, 114.41000000000008) rotate(-17, 0, 0)"/>
</clipPath><clipPath id="clip32_2005_3272">
<rect width="167.279" height="31.5101" fill="white" transform="translate(-38.32400000000001, 223.58999999999992) rotate(-17, 0, 0)"/>
</clipPath><clipPath id="clip33_2005_3272">
<rect width="167.279" height="31.5101" fill="white" transform="translate(-112.025, -17.480000000000018) rotate(-17, 0, 0)"/>
</clipPath><clipPath id="clip34_2005_3272">
<rect width="167.279" height="31.5101" fill="white" transform="translate(-1.4749999999999943, 344.1199999999999) rotate(-17, 0, 0)"/>
</clipPath><clipPath id="clip35_2005_3272">
<rect width="167.279" height="31.5101" fill="white" transform="translate(-75.17500000000001, 103.04999999999995) rotate(-17, 0, 0)"/>
</clipPath><clipPath id="clip36_2005_3272">
<rect width="167.279" height="31.5101" fill="white" transform="translate(281.615, 125.76999999999998) rotate(-17, 0, 0)"/>
</clipPath><clipPath id="clip37_2005_3272">
<rect width="167.279" height="31.5101" fill="white" transform="translate(318.46500000000003, 246.29999999999995) rotate(-17, 0, 0)"/>
</clipPath><clipPath id="clip38_2005_3272">
<rect width="167.279" height="31.5101" fill="white" transform="translate(244.765, 5.240000000000009) rotate(-17, 0, 0)"/>
</clipPath><clipPath id="clip39_2005_3272">
<rect width="167.279" height="31.5101" fill="white" transform="translate(121.64600000000002, 174.68000000000006) rotate(-17, 0, 0)"/>
</clipPath><clipPath id="clip40_2005_3272">
<rect width="167.279" height="31.5101" fill="white" transform="translate(158.49599999999998, 295.21000000000004) rotate(-17, 0, 0)"/>
</clipPath><clipPath id="clip41_2005_3272">
<rect width="167.279" height="31.5101" fill="white" transform="translate(84.79399999999998, 54.15000000000009) rotate(-17, 0, 0)"/>
</clipPath></defs><g id="Frame 138">
<g clip-path="url(#clip3_2005_3272)">
<rect id="Rectangle 8107" x="-10" y="-9" width="419" height="309" rx="16" fill="currentColor"/>
<g id="Group 123">
<g id="bank-note 1" clip-path="url(#clip4_2005_3272)">
<g id="Page-1">
<g id="bank-note">
<path id="Combined-Shape" fill-rule="evenodd" clip-rule="evenodd" d="M32.414,333.76c0.512,-0.37 1.03,-0.75 1.556,-1.14c0.518,-0.38 2.281,-1.68 2.523,-1.86c13.704,-10.11 22.693,-15.07 39.254,-20.14c16.431,-5.02 25.138,-5.67 41.669,-4.62c1.705,0.11 3.331,0.2 4.893,0.27l9.959,-3.04c-4.354,0.13 -9,-0.04 -14.519,-0.39c-16.918,-1.07 -26.027,-0.4 -42.923,4.77c-16.998,5.2 -26.319,10.35 -40.316,20.67c-0.244,0.18 -2.006,1.48 -2.521,1.86c-3.534,2.6 -6.684,4.8 -9.708,6.71zM23.202,303.62c-11.348,8.24 -19.126,12.44 -32.046,16.39l-0.921,-3.01c9.188,-2.81 15.654,-5.74 22.833,-10.28zM113.096,276.14c13.94,0.62 22.837,-0.39 38.03,-5.04l-0.921,-3.01c-10.946,3.35 -18.463,4.75 -27.15,5zM-4.238,335.08c13.503,-4.13 21.388,-8.54 33.602,-17.53c0.517,-0.38 2.281,-1.68 2.523,-1.86c13.703,-10.1 22.692,-15.07 39.254,-20.13c16.431,-5.03 25.137,-5.68 41.669,-4.62c16.917,1.07 26.026,0.39 42.922,-4.77l-0.921,-3.01c-16.431,5.02 -25.137,5.67 -41.668,4.62c-16.918,-1.08 -26.027,-0.4 -42.923,4.76c-16.998,5.2 -26.32,10.35 -40.317,20.67c-0.243,0.18 -2.006,1.48 -2.521,1.86c-11.922,8.78 -19.482,13 -32.541,16.99z" fill="white" fill-opacity="0.1"/>
</g>
</g>
</g>
<g id="bank-note 33" clip-path="url(#clip5_2005_3272)">
<g id="Page-1_2">
<g id="bank-note_2">
<path id="Combined-Shape_2" fill-rule="evenodd" clip-rule="evenodd" d="M-41.287,92.69c0.511,-0.37 1.03,-0.75 1.556,-1.13c0.517,-0.39 2.281,-1.69 2.523,-1.87c13.703,-10.1 22.692,-15.07 39.254,-20.13c16.431,-5.02 25.137,-5.67 41.669,-4.62c1.705,0.11 3.331,0.2 4.893,0.27l9.958,-3.05c-4.353,0.13 -8.999,-0.03 -14.518,-0.38c-16.918,-1.08 -26.027,-0.4 -42.923,4.77c-16.998,5.19 -26.32,10.35 -40.317,20.66c-0.243,0.18 -2.006,1.48 -2.52,1.86c-3.534,2.61 -6.684,4.81 -9.708,6.72zM-50.499,62.56c-11.348,8.23 -19.126,12.44 -32.046,16.39l-0.921,-3.02c9.188,-2.81 15.654,-5.73 22.833,-10.27zM39.395,35.08c13.94,0.62 22.836,-0.4 38.03,-5.04l-0.921,-3.01c-10.946,3.34 -18.464,4.75 -27.15,5zM-77.939,94.01c13.502,-4.12 21.388,-8.53 33.602,-17.52c0.517,-0.38 2.281,-1.68 2.522,-1.86c13.704,-10.11 22.693,-15.07 39.255,-20.14c16.431,-5.02 25.137,-5.67 41.669,-4.62c16.917,1.08 26.026,0.4 42.922,-4.76l-0.921,-3.02c-16.431,5.03 -25.137,5.67 -41.669,4.62c-16.917,-1.08 -26.026,-0.4 -42.922,4.77c-16.999,5.2 -26.32,10.35 -40.317,20.67c-0.243,0.18 -2.006,1.48 -2.521,1.86c-11.922,8.77 -19.482,13 -32.541,16.99z" fill="white" fill-opacity="0.1"/>
</g>
</g>
</g>
<g id="bank-note 34" clip-path="url(#clip6_2005_3272)">
<g id="Page-1_3">
<g id="bank-note_3">
<path id="Combined-Shape_3" fill-rule="evenodd" clip-rule="evenodd" d="M-4.436,213.23c0.511,-0.38 1.03,-0.75 1.556,-1.14c0.517,-0.38 2.281,-1.68 2.523,-1.86c13.704,-10.11 22.692,-15.07 39.254,-20.14c16.431,-5.02 25.137,-5.67 41.669,-4.62c1.705,0.11 3.331,0.2 4.893,0.27l9.958,-3.04c-4.353,0.12 -8.999,-0.04 -14.518,-0.39c-16.918,-1.08 -26.027,-0.4 -42.923,4.77c-16.998,5.2 -26.32,10.35 -40.316,20.67c-0.244,0.18 -2.006,1.48 -2.521,1.86c-3.534,2.6 -6.684,4.8 -9.708,6.71zM-13.648,183.09c-11.348,8.24 -19.126,12.44 -32.046,16.39l-0.921,-3.01c9.188,-2.81 15.654,-5.74 22.833,-10.28zM76.246,155.61c13.94,0.62 22.837,-0.39 38.03,-5.04l-0.921,-3.01c-10.946,3.34 -18.464,4.75 -27.15,5zM-41.088,214.55c13.503,-4.13 21.388,-8.54 33.602,-17.53c0.517,-0.38 2.281,-1.68 2.523,-1.86c13.703,-10.1 22.692,-15.07 39.254,-20.13c16.431,-5.03 25.137,-5.68 41.669,-4.62c16.917,1.07 26.026,0.39 42.922,-4.77l-0.921,-3.01c-16.431,5.02 -25.137,5.67 -41.669,4.61c-16.917,-1.07 -26.026,-0.39 -42.922,4.77c-16.998,5.2 -26.32,10.35 -40.317,20.67c-0.243,0.18 -2.006,1.48 -2.521,1.86c-11.922,8.78 -19.482,13 -32.541,16.99z" fill="white" fill-opacity="0.1"/>
</g>
</g>
</g>
<g id="bank-note 9" clip-path="url(#clip7_2005_3272)">
<g id="Page-1_4">
<g id="bank-note_4">
<path id="Combined-Shape_4" fill-rule="evenodd" clip-rule="evenodd" d="M352.353,235.94c0.511,-0.37 1.03,-0.75 1.556,-1.14c0.517,-0.38 2.281,-1.68 2.523,-1.86c13.703,-10.1 22.692,-15.07 39.254,-20.13c16.431,-5.02 25.137,-5.67 41.669,-4.62c1.705,0.11 3.33,0.2 4.893,0.27l9.958,-3.05c-4.353,0.13 -9,-0.03 -14.518,-0.38c-16.918,-1.08 -26.027,-0.4 -42.923,4.77c-16.998,5.19 -26.32,10.34 -40.317,20.66c-0.243,0.18 -2.006,1.48 -2.521,1.86c-3.533,2.6 -6.684,4.81 -9.708,6.72zM343.14,205.81c-11.348,8.23 -19.125,12.44 -32.045,16.39l-0.922,-3.02c9.189,-2.81 15.655,-5.73 22.834,-10.27zM433.035,178.33c13.94,0.62 22.836,-0.4 38.03,-5.04l-0.921,-3.02c-10.946,3.35 -18.464,4.76 -27.15,5.01zM315.701,237.26c13.502,-4.13 21.388,-8.53 33.602,-17.52c0.517,-0.38 2.281,-1.69 2.522,-1.86c13.704,-10.11 22.693,-15.07 39.255,-20.14c16.431,-5.02 25.137,-5.67 41.668,-4.62c16.918,1.08 26.027,0.4 42.923,-4.77l-0.921,-3.01c-16.431,5.02 -25.137,5.67 -41.669,4.62c-16.917,-1.08 -26.026,-0.4 -42.922,4.77c-16.999,5.2 -26.32,10.35 -40.317,20.67c-0.244,0.18 -2.006,1.48 -2.521,1.86c-11.922,8.77 -19.482,13 -32.541,16.99z" fill="white" fill-opacity="0.1"/>
</g>
</g>
</g>
<g id="bank-note 35" clip-path="url(#clip8_2005_3272)">
<g id="Page-1_5">
<g id="bank-note_5">
<path id="Combined-Shape_5" fill-rule="evenodd" clip-rule="evenodd" d="M278.653,-5.12c0.511,-0.37 1.03,-0.75 1.556,-1.14c0.517,-0.38 2.281,-1.68 2.523,-1.86c13.703,-10.1 22.692,-15.07 39.254,-20.14c16.431,-5.02 25.137,-5.67 41.669,-4.62c1.705,0.11 3.33,0.2 4.893,0.27l9.958,-3.04c-4.353,0.13 -9,-0.04 -14.518,-0.39c-16.918,-1.07 -26.027,-0.39 -42.923,4.77c-16.998,5.2 -26.32,10.35 -40.317,20.67c-0.243,0.18 -2.006,1.48 -2.52,1.86c-3.534,2.6 -6.684,4.8 -9.708,6.72zM269.441,-35.26c-11.349,8.24 -19.126,12.44 -32.046,16.39l-0.921,-3.01c9.188,-2.81 15.654,-5.73 22.833,-10.28zM359.335,-62.74c13.94,0.63 22.836,-0.39 38.03,-5.04l-0.921,-3.01c-10.946,3.35 -18.464,4.75 -27.15,5.01zM242.001,-3.8c13.502,-4.13 21.388,-8.53 33.602,-17.53c0.517,-0.38 2.281,-1.68 2.522,-1.86c13.704,-10.1 22.693,-15.07 39.255,-20.13c16.431,-5.03 25.137,-5.67 41.668,-4.62c16.918,1.07 26.027,0.4 42.923,-4.77l-0.921,-3.01c-16.431,5.02 -25.137,5.67 -41.669,4.62c-16.917,-1.08 -26.026,-0.4 -42.922,4.76c-16.999,5.2 -26.32,10.35 -40.317,20.67c-0.244,0.18 -2.006,1.48 -2.521,1.86c-11.922,8.78 -19.482,13 -32.541,16.99z" fill="white" fill-opacity="0.1"/>
</g>
</g>
</g>
<g id="bank-note 18" clip-path="url(#clip9_2005_3272)">
<g id="Page-1_6">
<g id="bank-note_6">
<path id="Combined-Shape_6" fill-rule="evenodd" clip-rule="evenodd" d="M389.204,356.47c0.511,-0.37 1.029,-0.75 1.556,-1.13c0.517,-0.38 2.281,-1.69 2.523,-1.86c13.703,-10.11 22.692,-15.08 39.254,-20.14c16.431,-5.02 25.137,-5.67 41.669,-4.62c1.705,0.11 3.33,0.2 4.893,0.27l9.958,-3.04c-4.353,0.12 -9,-0.04 -14.519,-0.39c-16.917,-1.08 -26.026,-0.4 -42.922,4.77c-16.999,5.19 -26.32,10.35 -40.317,20.67c-0.243,0.18 -2.006,1.48 -2.521,1.86c-3.533,2.6 -6.684,4.8 -9.708,6.71zM379.991,326.34c-11.348,8.24 -19.125,12.44 -32.045,16.39l-0.922,-3.01c9.189,-2.81 15.655,-5.74 22.834,-10.28zM469.886,298.86c13.94,0.62 22.836,-0.39 38.03,-5.04l-0.922,-3.01c-10.945,3.34 -18.463,4.75 -27.15,5zM352.552,357.8c13.502,-4.13 21.388,-8.54 33.602,-17.53c0.517,-0.38 2.28,-1.68 2.522,-1.86c13.704,-10.1 22.693,-15.07 39.255,-20.14c16.43,-5.02 25.137,-5.67 41.668,-4.61c16.918,1.07 26.027,0.39 42.923,-4.77l-0.921,-3.02c-16.431,5.03 -25.137,5.68 -41.669,4.62c-16.918,-1.07 -26.026,-0.39 -42.923,4.77c-16.998,5.2 -26.319,10.35 -40.316,20.67c-0.244,0.18 -2.006,1.48 -2.521,1.86c-11.922,8.78 -19.482,13 -32.541,16.99z" fill="white" fill-opacity="0.1"/>
</g>
</g>
</g>
<g id="bank-note 36" clip-path="url(#clip10_2005_3272)">
<g id="Page-1_7">
<g id="bank-note_7">
<path id="Combined-Shape_7" fill-rule="evenodd" clip-rule="evenodd" d="M315.504,115.41c0.511,-0.37 1.029,-0.75 1.556,-1.14c0.517,-0.38 2.281,-1.68 2.522,-1.86c13.704,-10.1 22.693,-15.07 39.255,-20.13c16.43,-5.03 25.137,-5.68 41.668,-4.62c1.705,0.11 3.331,0.2 4.893,0.27l9.959,-3.05c-4.353,0.13 -9,-0.03 -14.519,-0.38c-16.917,-1.08 -26.026,-0.4 -42.923,4.76c-16.998,5.2 -26.319,10.35 -40.316,20.67c-0.244,0.18 -2.006,1.48 -2.521,1.86c-3.534,2.6 -6.684,4.8 -9.708,6.72zM306.291,85.28c-11.348,8.23 -19.125,12.43 -32.046,16.38l-0.921,-3.01c9.189,-2.81 15.655,-5.73 22.833,-10.28zM396.186,57.79c13.939,0.63 22.836,-0.39 38.029,-5.03l-0.921,-3.02c-10.945,3.35 -18.463,4.75 -27.15,5.01zM278.852,116.73c13.502,-4.13 21.388,-8.53 33.601,-17.52c0.518,-0.39 2.281,-1.69 2.523,-1.87c13.704,-10.1 22.693,-15.07 39.254,-20.13c16.431,-5.02 25.138,-5.67 41.669,-4.62c16.918,1.08 26.026,0.4 42.923,-4.77l-0.921,-3.01c-16.431,5.02 -25.138,5.67 -41.669,4.62c-16.918,-1.08 -26.026,-0.4 -42.923,4.77c-16.998,5.19 -26.319,10.35 -40.316,20.66c-0.244,0.18 -2.006,1.49 -2.521,1.86c-11.922,8.78 -19.482,13 -32.542,17z" fill="white" fill-opacity="0.1"/>
</g>
</g>
</g>
<g id="bank-note 10" clip-path="url(#clip11_2005_3272)">
<g id="Page-1_8">
<g id="bank-note_8">
<path id="Combined-Shape_8" fill-rule="evenodd" clip-rule="evenodd" d="M192.384,284.85c0.511,-0.37 1.029,-0.75 1.556,-1.14c0.517,-0.38 2.28,-1.68 2.522,-1.86c13.704,-10.1 22.693,-15.07 39.255,-20.13c16.43,-5.03 25.137,-5.68 41.668,-4.62c1.705,0.1 3.331,0.19 4.893,0.27l9.959,-3.05c-4.353,0.13 -9,-0.03 -14.519,-0.39c-16.918,-1.07 -26.026,-0.39 -42.923,4.77c-16.998,5.2 -26.319,10.35 -40.316,20.67c-0.244,0.18 -2.006,1.48 -2.521,1.86c-3.534,2.6 -6.684,4.8 -9.708,6.72zM183.171,254.72c-11.348,8.23 -19.125,12.43 -32.046,16.38l-0.921,-3.01c9.189,-2.81 15.655,-5.73 22.833,-10.28zM273.066,227.23c13.939,0.63 22.836,-0.39 38.029,-5.04l-0.921,-3.01c-10.946,3.35 -18.463,4.75 -27.15,5.01zM155.732,286.17c13.502,-4.13 21.387,-8.53 33.601,-17.53c0.517,-0.38 2.281,-1.68 2.523,-1.86c13.704,-10.1 22.692,-15.07 39.254,-20.13c16.431,-5.02 25.137,-5.67 41.669,-4.62c16.918,1.08 26.026,0.4 42.923,-4.77l-0.922,-3.01c-16.43,5.02 -25.137,5.67 -41.668,4.62c-16.918,-1.08 -26.027,-0.4 -42.923,4.77c-16.998,5.19 -26.32,10.34 -40.316,20.66c-0.244,0.18 -2.006,1.48 -2.521,1.86c-11.922,8.78 -19.483,13 -32.542,17z" fill="white" fill-opacity="0.1"/>
</g>
</g>
</g>
<g id="bank-note 37" clip-path="url(#clip12_2005_3272)">
<g id="Page-1_9">
<g id="bank-note_9">
<path id="Combined-Shape_9" fill-rule="evenodd" clip-rule="evenodd" d="M118.682,43.78c0.512,-0.37 1.03,-0.75 1.556,-1.13c0.518,-0.38 2.281,-1.69 2.523,-1.86c13.704,-10.11 22.693,-15.07 39.254,-20.14c16.431,-5.02 25.138,-5.67 41.669,-4.62c1.705,0.11 3.331,0.2 4.893,0.27l9.959,-3.04c-4.354,0.12 -9,-0.04 -14.519,-0.39c-16.918,-1.08 -26.026,-0.4 -42.923,4.77c-16.998,5.2 -26.319,10.35 -40.316,20.67c-0.244,0.18 -2.006,1.48 -2.521,1.86c-3.534,2.6 -6.684,4.8 -9.708,6.71zM109.47,13.65c-11.348,8.24 -19.126,12.44 -32.046,16.39l-0.921,-3.01c9.188,-2.81 15.655,-5.74 22.833,-10.28zM199.364,-13.83c13.94,0.62 22.837,-0.39 38.03,-5.04l-0.921,-3.01c-10.946,3.34 -18.463,4.75 -27.15,5zM82.03,45.11c13.503,-4.13 21.388,-8.54 33.602,-17.53c0.517,-0.38 2.281,-1.68 2.523,-1.86c13.703,-10.1 22.692,-15.07 39.254,-20.14c16.431,-5.02 25.137,-5.67 41.669,-4.61c16.917,1.07 26.026,0.39 42.923,-4.77l-0.922,-3.02c-16.431,5.03 -25.137,5.68 -41.668,4.62c-16.918,-1.07 -26.027,-0.39 -42.923,4.77c-16.998,5.2 -26.32,10.35 -40.317,20.67c-0.243,0.18 -2.006,1.48 -2.521,1.86c-11.922,8.78 -19.482,13 -32.541,16.99z" fill="white" fill-opacity="0.1"/>
</g>
</g>
</g>
<g id="bank-note 38" clip-path="url(#clip13_2005_3272)">
<g id="Page-1_10">
<g id="bank-note_10">
<path id="Combined-Shape_10" fill-rule="evenodd" clip-rule="evenodd" d="M155.533,164.32c0.511,-0.37 1.03,-0.75 1.556,-1.14c0.517,-0.38 2.281,-1.68 2.523,-1.86c13.703,-10.1 22.692,-15.07 39.254,-20.14c16.431,-5.02 25.137,-5.67 41.669,-4.62c1.705,0.11 3.33,0.2 4.893,0.27l9.958,-3.04c-4.353,0.13 -9,-0.03 -14.518,-0.39c-16.918,-1.07 -26.027,-0.39 -42.923,4.77c-16.998,5.2 -26.32,10.35 -40.317,20.67c-0.243,0.18 -2.006,1.48 -2.521,1.86c-3.533,2.6 -6.684,4.8 -9.708,6.72zM146.32,134.18c-11.348,8.24 -19.125,12.44 -32.045,16.39l-0.922,-3.01c9.189,-2.81 15.655,-5.73 22.834,-10.28zM236.215,106.7c13.94,0.63 22.836,-0.39 38.03,-5.04l-0.922,-3.01c-10.945,3.35 -18.463,4.75 -27.149,5.01zM118.881,165.64c13.502,-4.13 21.388,-8.53 33.602,-17.53c0.517,-0.38 2.281,-1.68 2.522,-1.86c13.704,-10.1 22.693,-15.07 39.255,-20.13c16.43,-5.03 25.137,-5.67 41.668,-4.62c16.918,1.08 26.027,0.4 42.923,-4.77l-0.921,-3.01c-16.431,5.02 -25.137,5.67 -41.669,4.62c-16.917,-1.08 -26.026,-0.4 -42.923,4.76c-16.998,5.2 -26.319,10.35 -40.316,20.67c-0.244,0.18 -2.006,1.48 -2.521,1.86c-11.922,8.78 -19.482,13 -32.541,17z" fill="white" fill-opacity="0.1"/>
</g>
</g>
</g>
<g id="bank-note 3" clip-path="url(#clip14_2005_3272)">
<g id="Page-1_11">
<g id="bank-note_11">
<path id="Combined-Shape_11" fill-rule="evenodd" clip-rule="evenodd" d="M13.989,273.49c0.511,-0.37 1.03,-0.75 1.556,-1.14c0.517,-0.38 2.281,-1.68 2.523,-1.86c13.703,-10.1 22.692,-15.07 39.254,-20.13c16.431,-5.03 25.137,-5.68 41.669,-4.62c1.705,0.1 3.33,0.2 4.893,0.27l9.958,-3.05c-4.353,0.13 -9,-0.03 -14.518,-0.39c-16.918,-1.07 -26.027,-0.39 -42.923,4.77c-16.998,5.2 -26.32,10.35 -40.317,20.67c-0.243,0.18 -2.006,1.48 -2.521,1.86c-3.533,2.6 -6.684,4.8 -9.708,6.72zM4.776,243.36c-11.348,8.23 -19.125,12.43 -32.045,16.38l-0.922,-3.01c9.189,-2.81 15.655,-5.73 22.834,-10.28zM94.671,215.87c13.94,0.63 22.836,-0.39 38.03,-5.03l-0.921,-3.02c-10.946,3.35 -18.464,4.75 -27.15,5.01zM-22.663,274.81c13.502,-4.13 21.388,-8.53 33.602,-17.53c0.517,-0.38 2.281,-1.68 2.522,-1.86c13.704,-10.1 22.693,-15.07 39.255,-20.13c16.431,-5.02 25.137,-5.67 41.668,-4.62c16.918,1.08 26.027,0.4 42.923,-4.77l-0.921,-3.01c-16.431,5.02 -25.137,5.67 -41.669,4.62c-16.917,-1.08 -26.026,-0.4 -42.923,4.77c-16.998,5.19 -26.319,10.34 -40.316,20.66c-0.244,0.18 -2.006,1.48 -2.521,1.86c-11.922,8.78 -19.482,13 -32.541,17z" fill="white" fill-opacity="0.1"/>
</g>
</g>
</g>
<g id="bank-note 39" clip-path="url(#clip15_2005_3272)">
<g id="Page-1_12">
<g id="bank-note_12">
<path id="Combined-Shape_12" fill-rule="evenodd" clip-rule="evenodd" d="M-59.713,32.43c0.512,-0.37 1.03,-0.75 1.556,-1.14c0.518,-0.38 2.281,-1.68 2.523,-1.86c13.704,-10.1 22.693,-15.07 39.254,-20.14c16.431,-5.02 25.138,-5.67 41.669,-4.62c1.705,0.11 3.331,0.2 4.893,0.27l9.959,-3.04c-4.354,0.13 -9,-0.04 -14.519,-0.39c-16.918,-1.07 -26.026,-0.4 -42.923,4.77c-16.998,5.2 -26.319,10.35 -40.316,20.67c-0.244,0.18 -2.006,1.48 -2.521,1.86c-3.534,2.6 -6.684,4.8 -9.708,6.71zM-68.925,2.29c-11.348,8.24 -19.126,12.44 -32.046,16.39l-0.921,-3.01c9.188,-2.81 15.654,-5.73 22.833,-10.28zM20.969,-25.19c13.94,0.63 22.837,-0.39 38.03,-5.04l-0.921,-3.01c-10.946,3.35 -18.463,4.75 -27.15,5.01zM-96.365,33.75c13.503,-4.13 21.388,-8.54 33.602,-17.53c0.517,-0.38 2.281,-1.68 2.523,-1.86c13.703,-10.1 22.692,-15.07 39.254,-20.13c16.431,-5.03 25.137,-5.68 41.669,-4.62c16.917,1.07 26.026,0.4 42.922,-4.77l-0.921,-3.01c-16.431,5.02 -25.137,5.67 -41.668,4.62c-16.918,-1.08 -26.027,-0.4 -42.923,4.76c-16.998,5.2 -26.32,10.35 -40.317,20.67c-0.243,0.18 -2.006,1.48 -2.521,1.86c-11.922,8.78 -19.482,13 -32.541,16.99z" fill="white" fill-opacity="0.1"/>
</g>
</g>
</g>
<g id="bank-note 40" clip-path="url(#clip16_2005_3272)">
<g id="Page-1_13">
<g id="bank-note_13">
<path id="Combined-Shape_13" fill-rule="evenodd" clip-rule="evenodd" d="M-22.861,152.96c0.511,-0.37 1.029,-0.75 1.555,-1.14c0.518,-0.38 2.281,-1.68 2.523,-1.86c13.704,-10.1 22.693,-15.07 39.255,-20.13c16.43,-5.03 25.137,-5.68 41.668,-4.62c1.705,0.1 3.331,0.19 4.893,0.26l9.959,-3.04c-4.353,0.13 -9,-0.03 -14.519,-0.39c-16.918,-1.07 -26.026,-0.39 -42.923,4.77c-16.998,5.2 -26.319,10.35 -40.316,20.67c-0.244,0.18 -2.006,1.48 -2.521,1.86c-3.534,2.6 -6.684,4.8 -9.708,6.72zM-32.074,122.83c-11.348,8.23 -19.126,12.43 -32.046,16.38l-0.921,-3.01c9.188,-2.81 15.655,-5.73 22.833,-10.28zM57.821,95.34c13.939,0.63 22.836,-0.39 38.029,-5.04l-0.921,-3.01c-10.946,3.35 -18.463,4.75 -27.15,5.01zM-59.514,154.28c13.503,-4.13 21.388,-8.53 33.602,-17.53c0.517,-0.38 2.281,-1.68 2.523,-1.86c13.703,-10.1 22.692,-15.07 39.254,-20.13c16.431,-5.02 25.137,-5.67 41.669,-4.62c16.917,1.08 26.026,0.4 42.923,-4.77l-0.922,-3.01c-16.43,5.02 -25.137,5.67 -41.668,4.62c-16.918,-1.08 -26.027,-0.4 -42.923,4.77c-16.998,5.19 -26.32,10.34 -40.317,20.66c-0.243,0.18 -2.006,1.48 -2.52,1.86c-11.923,8.78 -19.483,13 -32.542,17z" fill="white" fill-opacity="0.1"/>
</g>
</g>
</g>
<g id="bank-note 11" clip-path="url(#clip17_2005_3272)">
<g id="Page-1_14">
<g id="bank-note_14">
<path id="Combined-Shape_14" fill-rule="evenodd" clip-rule="evenodd" d="M333.928,175.67c0.511,-0.37 1.029,-0.75 1.555,-1.13c0.518,-0.38 2.281,-1.69 2.523,-1.86c13.704,-10.11 22.693,-15.08 39.255,-20.14c16.43,-5.02 25.137,-5.67 41.668,-4.62c1.705,0.11 3.331,0.2 4.893,0.27l9.959,-3.04c-4.353,0.12 -9,-0.04 -14.519,-0.39c-16.918,-1.08 -26.026,-0.4 -42.923,4.77c-16.998,5.2 -26.319,10.35 -40.316,20.67c-0.244,0.18 -2.006,1.48 -2.521,1.86c-3.534,2.6 -6.684,4.8 -9.708,6.71zM324.715,145.54c-11.348,8.24 -19.125,12.44 -32.046,16.39l-0.921,-3.01c9.188,-2.81 15.655,-5.74 22.833,-10.28zM414.61,118.06c13.939,0.62 22.836,-0.39 38.029,-5.04l-0.921,-3.01c-10.946,3.34 -18.463,4.75 -27.15,5zM297.276,177c13.502,-4.13 21.387,-8.54 33.601,-17.53c0.517,-0.38 2.281,-1.68 2.523,-1.86c13.703,-10.1 22.692,-15.07 39.254,-20.14c16.431,-5.02 25.137,-5.67 41.669,-4.61c16.918,1.07 26.026,0.39 42.923,-4.77l-0.922,-3.02c-16.43,5.03 -25.137,5.68 -41.668,4.62c-16.918,-1.07 -26.027,-0.39 -42.923,4.77c-16.998,5.2 -26.32,10.35 -40.317,20.67c-0.243,0.18 -2.006,1.48 -2.52,1.86c-11.922,8.78 -19.483,13 -32.542,16.99z" fill="white" fill-opacity="0.1"/>
</g>
</g>
</g>
<g id="bank-note 22" clip-path="url(#clip18_2005_3272)">
<g id="Page-1_15">
<g id="bank-note_15">
<path id="Combined-Shape_15" fill-rule="evenodd" clip-rule="evenodd" d="M370.778,296.21c0.512,-0.37 1.03,-0.75 1.556,-1.14c0.518,-0.38 2.281,-1.68 2.523,-1.86c13.704,-10.1 22.693,-15.07 39.254,-20.13c16.431,-5.03 25.138,-5.68 41.669,-4.62c1.705,0.1 3.331,0.19 4.893,0.26l9.959,-3.04c-4.354,0.13 -9,-0.03 -14.519,-0.39c-16.918,-1.07 -26.027,-0.39 -42.923,4.77c-16.998,5.2 -26.319,10.35 -40.316,20.67c-0.244,0.18 -2.006,1.48 -2.521,1.86c-3.534,2.6 -6.684,4.8 -9.708,6.72zM361.566,266.07c-11.348,8.24 -19.126,12.44 -32.046,16.39l-0.921,-3.01c9.188,-2.81 15.654,-5.73 22.833,-10.28zM451.46,238.59c13.94,0.63 22.837,-0.39 38.03,-5.04l-0.921,-3.01c-10.946,3.35 -18.463,4.75 -27.15,5.01zM334.126,297.53c13.503,-4.13 21.388,-8.53 33.602,-17.53c0.517,-0.38 2.281,-1.68 2.523,-1.86c13.703,-10.1 22.692,-15.07 39.254,-20.13c16.431,-5.02 25.137,-5.67 41.669,-4.62c16.917,1.08 26.026,0.4 42.922,-4.77l-0.921,-3.01c-16.431,5.02 -25.137,5.67 -41.668,4.62c-16.918,-1.08 -26.027,-0.4 -42.923,4.77c-16.998,5.19 -26.32,10.34 -40.317,20.66c-0.243,0.18 -2.006,1.48 -2.521,1.86c-11.922,8.78 -19.482,13 -32.541,17z" fill="white" fill-opacity="0.1"/>
</g>
</g>
</g>
<g id="bank-note 42" clip-path="url(#clip19_2005_3272)">
<g id="Page-1_16">
<g id="bank-note_16">
<path id="Combined-Shape_16" fill-rule="evenodd" clip-rule="evenodd" d="M297.078,55.14c0.512,-0.37 1.03,-0.75 1.556,-1.13c0.518,-0.39 2.281,-1.69 2.523,-1.87c13.704,-10.1 22.693,-15.07 39.254,-20.13c16.431,-5.02 25.138,-5.67 41.669,-4.62c1.705,0.11 3.331,0.2 4.893,0.27l9.959,-3.05c-4.354,0.13 -9,-0.03 -14.519,-0.38c-16.918,-1.08 -26.026,-0.4 -42.923,4.77c-16.998,5.19 -26.319,10.35 -40.316,20.66c-0.244,0.18 -2.006,1.49 -2.521,1.86c-3.534,2.61 -6.684,4.81 -9.708,6.72zM287.866,25.01c-11.348,8.23 -19.126,12.44 -32.046,16.39l-0.921,-3.02c9.188,-2.81 15.655,-5.73 22.833,-10.27zM377.76,-2.47c13.94,0.62 22.837,-0.4 38.03,-5.04l-0.921,-3.01c-10.946,3.34 -18.463,4.75 -27.15,5zM260.426,56.46c13.503,-4.12 21.388,-8.53 33.602,-17.52c0.517,-0.38 2.281,-1.68 2.523,-1.86c13.703,-10.11 22.692,-15.07 39.254,-20.14c16.431,-5.02 25.137,-5.67 41.669,-4.62c16.917,1.08 26.026,0.4 42.922,-4.76l-0.921,-3.02c-16.431,5.03 -25.137,5.67 -41.668,4.62c-16.918,-1.07 -26.027,-0.4 -42.923,4.77c-16.998,5.2 -26.32,10.35 -40.317,20.67c-0.243,0.18 -2.006,1.48 -2.521,1.86c-11.922,8.77 -19.482,13 -32.541,16.99z" fill="white" fill-opacity="0.1"/>
</g>
</g>
</g>
<g id="bank-note 12" clip-path="url(#clip20_2005_3272)">
<g id="Page-1_17">
<g id="bank-note_17">
<path id="Combined-Shape_17" fill-rule="evenodd" clip-rule="evenodd" d="M173.958,224.58c0.511,-0.37 1.03,-0.75 1.556,-1.14c0.517,-0.38 2.281,-1.68 2.523,-1.86c13.704,-10.1 22.693,-15.07 39.254,-20.13c16.431,-5.02 25.137,-5.67 41.669,-4.62c1.705,0.11 3.331,0.2 4.893,0.27l9.958,-3.05c-4.353,0.13 -8.999,-0.03 -14.518,-0.38c-16.918,-1.08 -26.027,-0.4 -42.923,4.77c-16.998,5.19 -26.32,10.34 -40.316,20.66c-0.244,0.18 -2.006,1.48 -2.521,1.86c-3.534,2.61 -6.684,4.81 -9.708,6.72zM164.746,194.45c-11.348,8.23 -19.126,12.44 -32.046,16.39l-0.921,-3.02c9.188,-2.81 15.654,-5.73 22.833,-10.27zM254.64,166.97c13.94,0.62 22.837,-0.4 38.03,-5.04l-0.921,-3.01c-10.946,3.34 -18.464,4.75 -27.15,5zM137.306,225.9c13.503,-4.13 21.388,-8.53 33.602,-17.52c0.517,-0.38 2.281,-1.68 2.523,-1.86c13.703,-10.11 22.692,-15.07 39.254,-20.14c16.431,-5.02 25.137,-5.67 41.669,-4.62c16.917,1.08 26.026,0.4 42.922,-4.76l-0.921,-3.02c-16.431,5.03 -25.137,5.67 -41.669,4.62c-16.917,-1.08 -26.026,-0.4 -42.922,4.77c-16.998,5.2 -26.32,10.35 -40.317,20.67c-0.243,0.18 -2.006,1.48 -2.521,1.86c-11.922,8.77 -19.482,13 -32.541,16.99z" fill="white" fill-opacity="0.1"/>
</g>
</g>
</g>
<g id="bank-note 24" clip-path="url(#clip21_2005_3272)">
<g id="Page-1_18">
<g id="bank-note_18">
<path id="Combined-Shape_18" fill-rule="evenodd" clip-rule="evenodd" d="M210.808,345.11c0.512,-0.37 1.03,-0.75 1.556,-1.13c0.518,-0.38 2.281,-1.69 2.523,-1.86c13.704,-10.11 22.693,-15.08 39.254,-20.14c16.431,-5.02 25.138,-5.67 41.669,-4.62c1.705,0.11 3.331,0.2 4.893,0.27l9.959,-3.04c-4.354,0.12 -9,-0.04 -14.519,-0.39c-16.918,-1.08 -26.026,-0.4 -42.923,4.77c-16.998,5.19 -26.319,10.35 -40.316,20.67c-0.244,0.18 -2.006,1.48 -2.521,1.86c-3.534,2.6 -6.684,4.8 -9.708,6.71zM201.596,314.98c-11.348,8.24 -19.126,12.44 -32.046,16.39l-0.921,-3.01c9.188,-2.81 15.654,-5.74 22.833,-10.28zM291.49,287.5c13.94,0.62 22.837,-0.39 38.03,-5.04l-0.921,-3.01c-10.946,3.34 -18.463,4.75 -27.15,5zM174.156,346.44c13.503,-4.13 21.388,-8.54 33.602,-17.53c0.517,-0.38 2.281,-1.68 2.523,-1.86c13.703,-10.1 22.692,-15.07 39.254,-20.14c16.431,-5.02 25.137,-5.67 41.669,-4.62c16.917,1.08 26.026,0.4 42.922,-4.76l-0.921,-3.02c-16.431,5.03 -25.137,5.68 -41.668,4.62c-16.918,-1.07 -26.027,-0.39 -42.923,4.77c-16.998,5.2 -26.32,10.35 -40.317,20.67c-0.243,0.18 -2.006,1.48 -2.521,1.86c-11.922,8.78 -19.482,13 -32.541,16.99z" fill="white" fill-opacity="0.1"/>
</g>
</g>
</g>
<g id="bank-note 44" clip-path="url(#clip22_2005_3272)">
<g id="Page-1_19">
<g id="bank-note_19">
<path id="Combined-Shape_19" fill-rule="evenodd" clip-rule="evenodd" d="M137.108,104.05c0.511,-0.37 1.03,-0.75 1.556,-1.14c0.517,-0.38 2.281,-1.68 2.523,-1.86c13.703,-10.1 22.692,-15.07 39.254,-20.13c16.431,-5.03 25.137,-5.67 41.669,-4.62c1.705,0.11 3.331,0.2 4.893,0.27l9.958,-3.05c-4.353,0.13 -8.999,-0.03 -14.518,-0.38c-16.918,-1.08 -26.027,-0.4 -42.923,4.76c-16.998,5.2 -26.32,10.35 -40.317,20.67c-0.243,0.18 -2.006,1.48 -2.52,1.86c-3.534,2.6 -6.684,4.81 -9.708,6.72zM127.896,73.92c-11.348,8.23 -19.126,12.44 -32.046,16.39l-0.921,-3.02c9.188,-2.81 15.654,-5.73 22.833,-10.27zM217.79,46.43c13.94,0.63 22.836,-0.39 38.03,-5.03l-0.921,-3.02c-10.946,3.35 -18.464,4.76 -27.15,5.01zM100.456,105.37c13.502,-4.13 21.388,-8.53 33.602,-17.52c0.517,-0.38 2.281,-1.69 2.523,-1.86c13.703,-10.11 22.692,-15.08 39.254,-20.14c16.431,-5.02 25.137,-5.67 41.669,-4.62c16.917,1.08 26.026,0.4 42.922,-4.77l-0.921,-3.01c-16.431,5.02 -25.137,5.67 -41.669,4.62c-16.917,-1.08 -26.026,-0.4 -42.922,4.77c-16.999,5.19 -26.32,10.35 -40.317,20.67c-0.243,0.18 -2.006,1.48 -2.521,1.86c-11.922,8.77 -19.482,13 -32.541,16.99z" fill="white" fill-opacity="0.1"/>
</g>
</g>
</g>
<g id="bank-note 2" clip-path="url(#clip23_2005_3272)">
<g id="Page-1_20">
<g id="bank-note_20">
<path id="Combined-Shape_20" fill-rule="evenodd" clip-rule="evenodd" d="M23.202,303.62c0.511,-0.37 1.029,-0.75 1.555,-1.14c0.518,-0.38 2.281,-1.68 2.523,-1.86c13.704,-10.1 22.693,-15.07 39.254,-20.13c16.431,-5.02 25.138,-5.67 41.669,-4.62c1.705,0.11 3.331,0.2 4.893,0.27l9.959,-3.05c-4.354,0.13 -9,-0.03 -14.519,-0.38c-16.918,-1.08 -26.026,-0.4 -42.923,4.77c-16.998,5.19 -26.319,10.34 -40.316,20.66c-0.244,0.18 -2.006,1.48 -2.521,1.86c-3.534,2.61 -6.684,4.81 -9.708,6.72zM13.989,273.49c-11.348,8.23 -19.126,12.44 -32.046,16.39l-0.921,-3.02c9.188,-2.81 15.655,-5.73 22.833,-10.27zM103.884,246.01c13.939,0.62 22.836,-0.4 38.029,-5.04l-0.921,-3.01c-10.946,3.34 -18.463,4.75 -27.15,5zM-13.451,304.94c13.503,-4.13 21.388,-8.53 33.602,-17.52c0.517,-0.38 2.281,-1.68 2.523,-1.86c13.703,-10.11 22.692,-15.07 39.254,-20.14c16.431,-5.02 25.137,-5.67 41.669,-4.62c16.917,1.08 26.026,0.4 42.923,-4.76l-0.922,-3.02c-16.43,5.03 -25.137,5.67 -41.668,4.62c-16.918,-1.08 -26.027,-0.4 -42.923,4.77c-16.998,5.2 -26.32,10.35 -40.317,20.67c-0.243,0.18 -2.006,1.48 -2.52,1.86c-11.923,8.77 -19.483,13 -32.542,16.99z" fill="white" fill-opacity="0.1"/>
</g>
</g>
</g>
<g id="bank-note 45" clip-path="url(#clip24_2005_3272)">
<g id="Page-1_21">
<g id="bank-note_21">
<path id="Combined-Shape_21" fill-rule="evenodd" clip-rule="evenodd" d="M-50.5,62.56c0.511,-0.37 1.03,-0.75 1.556,-1.14c0.517,-0.38 2.281,-1.68 2.523,-1.86c13.704,-10.1 22.693,-15.07 39.254,-20.13c16.431,-5.03 25.137,-5.68 41.669,-4.62c1.705,0.11 3.331,0.2 4.893,0.27l9.958,-3.05c-4.353,0.13 -8.999,-0.03 -14.518,-0.38c-16.918,-1.08 -26.027,-0.4 -42.923,4.76c-16.998,5.2 -26.32,10.35 -40.316,20.67c-0.244,0.18 -2.006,1.48 -2.521,1.86c-3.534,2.6 -6.684,4.8 -9.708,6.72zM-59.712,32.43c-11.348,8.23 -19.126,12.43 -32.046,16.38l-0.921,-3.01c9.188,-2.81 15.654,-5.73 22.833,-10.28zM30.182,4.94c13.94,0.63 22.837,-0.39 38.03,-5.03l-0.921,-3.02c-10.946,3.35 -18.464,4.75 -27.15,5.01zM-87.152,63.88c13.503,-4.13 21.388,-8.53 33.602,-17.52c0.517,-0.39 2.281,-1.69 2.523,-1.87c13.703,-10.1 22.692,-15.07 39.254,-20.13c16.431,-5.02 25.137,-5.67 41.669,-4.62c16.917,1.08 26.026,0.4 42.922,-4.77l-0.921,-3.01c-16.431,5.02 -25.137,5.67 -41.669,4.62c-16.917,-1.08 -26.026,-0.4 -42.922,4.77c-16.998,5.19 -26.32,10.35 -40.317,20.66c-0.243,0.18 -2.006,1.49 -2.521,1.86c-11.922,8.78 -19.482,13 -32.541,17z" fill="white" fill-opacity="0.1"/>
</g>
</g>
</g>
<g id="bank-note 46" clip-path="url(#clip25_2005_3272)">
<g id="Page-1_22">
<g id="bank-note_22">
<path id="Combined-Shape_22" fill-rule="evenodd" clip-rule="evenodd" d="M-13.649,183.09c0.511,-0.37 1.029,-0.75 1.556,-1.14c0.517,-0.38 2.281,-1.68 2.523,-1.86c13.703,-10.1 22.692,-15.07 39.254,-20.13c16.431,-5.03 25.137,-5.67 41.669,-4.62c1.705,0.11 3.33,0.2 4.893,0.27l9.958,-3.05c-4.353,0.13 -9,-0.03 -14.519,-0.38c-16.917,-1.08 -26.026,-0.4 -42.922,4.76c-16.999,5.2 -26.32,10.35 -40.317,20.67c-0.243,0.18 -2.006,1.48 -2.521,1.86c-3.533,2.6 -6.684,4.81 -9.708,6.72zM-22.862,152.96c-11.348,8.23 -19.125,12.44 -32.045,16.39l-0.922,-3.02c9.189,-2.81 15.655,-5.73 22.834,-10.27zM67.033,125.47c13.94,0.63 22.836,-0.39 38.03,-5.03l-0.922,-3.02c-10.945,3.35 -18.463,4.76 -27.15,5.01zM-50.301,184.41c13.502,-4.13 21.388,-8.53 33.601,-17.52c0.518,-0.38 2.281,-1.69 2.523,-1.86c13.704,-10.11 22.693,-15.07 39.255,-20.14c16.43,-5.02 25.137,-5.67 41.668,-4.62c16.918,1.08 26.027,0.4 42.923,-4.77l-0.921,-3.01c-16.431,5.02 -25.137,5.67 -41.669,4.62c-16.918,-1.08 -26.026,-0.4 -42.923,4.77c-16.998,5.2 -26.319,10.35 -40.316,20.67c-0.244,0.18 -2.006,1.48 -2.521,1.86c-11.922,8.77 -19.482,13 -32.541,16.99z" fill="white" fill-opacity="0.1"/>
</g>
</g>
</g>
<g id="bank-note 13" clip-path="url(#clip26_2005_3272)">
<g id="Page-1_23">
<g id="bank-note_23">
<path id="Combined-Shape_23" fill-rule="evenodd" clip-rule="evenodd" d="M343.14,205.81c0.511,-0.37 1.029,-0.75 1.556,-1.14c0.517,-0.38 2.281,-1.68 2.523,-1.86c13.703,-10.1 22.692,-15.07 39.254,-20.13c16.431,-5.03 25.137,-5.68 41.669,-4.62c1.705,0.1 3.33,0.19 4.893,0.26l9.958,-3.04c-4.353,0.13 -9,-0.03 -14.519,-0.39c-16.917,-1.07 -26.026,-0.39 -42.922,4.77c-16.998,5.2 -26.32,10.35 -40.317,20.67c-0.243,0.18 -2.006,1.48 -2.521,1.86c-3.533,2.6 -6.684,4.8 -9.708,6.72zM333.927,175.67c-11.348,8.24 -19.125,12.44 -32.045,16.39l-0.922,-3.01c9.189,-2.81 15.655,-5.73 22.834,-10.28zM423.822,148.19c13.94,0.63 22.836,-0.39 38.03,-5.04l-0.922,-3.01c-10.945,3.35 -18.463,4.75 -27.15,5.01zM306.488,207.13c13.502,-4.13 21.388,-8.53 33.602,-17.53c0.517,-0.38 2.28,-1.68 2.522,-1.86c13.704,-10.1 22.693,-15.07 39.255,-20.13c16.43,-5.02 25.137,-5.67 41.668,-4.62c16.918,1.08 26.027,0.4 42.923,-4.77l-0.921,-3.01c-16.431,5.02 -25.137,5.67 -41.669,4.62c-16.918,-1.08 -26.026,-0.4 -42.923,4.77c-16.998,5.19 -26.319,10.34 -40.316,20.66c-0.244,0.18 -2.006,1.48 -2.521,1.86c-11.922,8.78 -19.482,13 -32.541,17z" fill="white" fill-opacity="0.1"/>
</g>
</g>
</g>
<g id="bank-note 26" clip-path="url(#clip27_2005_3272)">
<g id="Page-1_24">
<g id="bank-note_24">
<path id="Combined-Shape_24" fill-rule="evenodd" clip-rule="evenodd" d="M379.991,326.34c0.511,-0.37 1.03,-0.75 1.556,-1.14c0.517,-0.38 2.281,-1.68 2.523,-1.86c13.704,-10.1 22.692,-15.07 39.254,-20.13c16.431,-5.03 25.137,-5.67 41.669,-4.62c1.705,0.11 3.331,0.2 4.893,0.27l9.958,-3.05c-4.353,0.13 -8.999,-0.03 -14.518,-0.38c-16.918,-1.08 -26.027,-0.4 -42.923,4.76c-16.998,5.2 -26.32,10.35 -40.316,20.67c-0.244,0.18 -2.006,1.48 -2.521,1.86c-3.534,2.6 -6.684,4.81 -9.708,6.72zM370.779,296.21c-11.348,8.23 -19.126,12.44 -32.046,16.39l-0.921,-3.02c9.188,-2.81 15.654,-5.73 22.833,-10.27zM460.673,268.72c13.94,0.63 22.837,-0.39 38.03,-5.03l-0.921,-3.02c-10.946,3.35 -18.464,4.76 -27.15,5.01zM343.339,327.66c13.503,-4.13 21.388,-8.53 33.602,-17.52c0.517,-0.38 2.281,-1.69 2.523,-1.86c13.703,-10.11 22.692,-15.08 39.254,-20.14c16.431,-5.02 25.137,-5.67 41.669,-4.62c16.917,1.08 26.026,0.4 42.922,-4.77l-0.921,-3.01c-16.431,5.02 -25.137,5.67 -41.669,4.62c-16.917,-1.08 -26.026,-0.4 -42.922,4.77c-16.998,5.19 -26.32,10.35 -40.317,20.67c-0.243,0.18 -2.006,1.48 -2.521,1.86c-11.922,8.77 -19.482,13 -32.541,16.99z" fill="white" fill-opacity="0.1"/>
</g>
</g>
</g>
<g id="bank-note 48" clip-path="url(#clip28_2005_3272)">
<g id="Page-1_25">
<g id="bank-note_25">
<path id="Combined-Shape_25" fill-rule="evenodd" clip-rule="evenodd" d="M306.291,85.28c0.511,-0.37 1.029,-0.75 1.556,-1.14c0.517,-0.38 2.281,-1.68 2.522,-1.86c13.704,-10.1 22.693,-15.07 39.255,-20.14c16.431,-5.02 25.137,-5.67 41.668,-4.62c1.705,0.11 3.331,0.2 4.894,0.27l9.958,-3.04c-4.353,0.13 -9,-0.04 -14.519,-0.39c-16.917,-1.07 -26.026,-0.4 -42.922,4.77c-16.999,5.2 -26.32,10.35 -40.317,20.67c-0.243,0.18 -2.006,1.48 -2.521,1.86c-3.533,2.6 -6.684,4.8 -9.708,6.71zM297.078,55.14c-11.348,8.24 -19.125,12.44 -32.046,16.39l-0.921,-3.01c9.189,-2.81 15.655,-5.74 22.834,-10.28zM386.973,27.66c13.94,0.63 22.836,-0.39 38.03,-5.04l-0.922,-3.01c-10.945,3.35 -18.463,4.75 -27.15,5.01zM269.639,86.6c13.502,-4.13 21.388,-8.54 33.601,-17.53c0.518,-0.38 2.281,-1.68 2.523,-1.86c13.704,-10.1 22.693,-15.07 39.255,-20.13c16.43,-5.03 25.137,-5.68 41.668,-4.62c16.918,1.07 26.027,0.4 42.923,-4.77l-0.921,-3.01c-16.431,5.02 -25.138,5.67 -41.669,4.62c-16.918,-1.08 -26.026,-0.4 -42.923,4.76c-16.998,5.2 -26.319,10.35 -40.316,20.67c-0.244,0.18 -2.006,1.48 -2.521,1.86c-11.922,8.78 -19.482,13 -32.541,16.99z" fill="white" fill-opacity="0.1"/>
</g>
</g>
</g>
<g id="bank-note 14" clip-path="url(#clip29_2005_3272)">
<g id="Page-1_26">
<g id="bank-note_26">
<path id="Combined-Shape_26" fill-rule="evenodd" clip-rule="evenodd" d="M183.171,254.71c0.511,-0.37 1.03,-0.75 1.556,-1.13c0.517,-0.38 2.281,-1.69 2.523,-1.86c13.703,-10.11 22.692,-15.07 39.254,-20.14c16.431,-5.02 25.137,-5.67 41.669,-4.62c1.705,0.11 3.331,0.2 4.893,0.27l9.958,-3.04c-4.353,0.12 -8.999,-0.04 -14.518,-0.39c-16.918,-1.08 -26.027,-0.4 -42.923,4.77c-16.998,5.2 -26.32,10.35 -40.317,20.67c-0.243,0.18 -2.006,1.48 -2.52,1.86c-3.534,2.6 -6.684,4.8 -9.708,6.71zM173.959,224.58c-11.348,8.24 -19.126,12.44 -32.046,16.39l-0.921,-3.01c9.188,-2.81 15.654,-5.74 22.833,-10.28zM263.853,197.1c13.94,0.62 22.836,-0.39 38.03,-5.04l-0.921,-3.01c-10.946,3.34 -18.464,4.75 -27.15,5zM146.519,256.04c13.502,-4.13 21.388,-8.54 33.602,-17.53c0.517,-0.38 2.281,-1.68 2.523,-1.86c13.703,-10.1 22.692,-15.07 39.254,-20.13c16.431,-5.03 25.137,-5.68 41.669,-4.62c16.917,1.07 26.026,0.39 42.922,-4.77l-0.921,-3.02c-16.431,5.03 -25.137,5.68 -41.669,4.62c-16.917,-1.07 -26.026,-0.39 -42.922,4.77c-16.999,5.2 -26.32,10.35 -40.317,20.67c-0.243,0.18 -2.006,1.48 -2.521,1.86c-11.922,8.78 -19.482,13 -32.541,16.99z" fill="white" fill-opacity="0.1"/>
</g>
</g>
</g>
<g id="bank-note 49" clip-path="url(#clip30_2005_3272)">
<g id="Page-1_27">
<g id="bank-note_27">
<path id="Combined-Shape_27" fill-rule="evenodd" clip-rule="evenodd" d="M109.471,13.65c0.511,-0.37 1.029,-0.75 1.555,-1.14c0.518,-0.38 2.281,-1.68 2.523,-1.86c13.704,-10.1 22.693,-15.07 39.255,-20.13c16.43,-5.03 25.137,-5.67 41.668,-4.62c1.705,0.11 3.331,0.2 4.893,0.27l9.959,-3.05c-4.353,0.13 -9,-0.03 -14.519,-0.38c-16.918,-1.08 -26.026,-0.4 -42.923,4.76c-16.998,5.2 -26.319,10.35 -40.316,20.67c-0.244,0.18 -2.006,1.48 -2.521,1.86c-3.534,2.6 -6.684,4.81 -9.708,6.72zM100.258,-16.48c-11.348,8.23 -19.125,12.44 -32.046,16.39l-0.921,-3.02c9.188,-2.81 15.655,-5.73 22.833,-10.27zM190.153,-43.97c13.939,0.63 22.836,-0.39 38.029,-5.03l-0.921,-3.02c-10.946,3.35 -18.463,4.76 -27.15,5.01zM72.818,14.97c13.503,-4.13 21.388,-8.53 33.602,-17.52c0.517,-0.38 2.281,-1.69 2.523,-1.86c13.703,-10.11 22.692,-15.07 39.254,-20.14c16.431,-5.02 25.137,-5.67 41.669,-4.62c16.917,1.08 26.026,0.4 42.923,-4.77l-0.922,-3.01c-16.43,5.02 -25.137,5.67 -41.668,4.62c-16.918,-1.08 -26.027,-0.4 -42.923,4.77c-16.998,5.2 -26.32,10.35 -40.317,20.67c-0.243,0.18 -2.006,1.48 -2.52,1.86c-11.923,8.77 -19.483,13 -32.542,16.99z" fill="white" fill-opacity="0.1"/>
</g>
</g>
</g>
<g id="bank-note 50" clip-path="url(#clip31_2005_3272)">
<g id="Page-1_28">
<g id="bank-note_28">
<path id="Combined-Shape_28" fill-rule="evenodd" clip-rule="evenodd" d="M146.321,134.18c0.511,-0.37 1.029,-0.75 1.556,-1.13c0.517,-0.38 2.28,-1.69 2.522,-1.86c13.704,-10.11 22.693,-15.08 39.255,-20.14c16.43,-5.02 25.137,-5.67 41.668,-4.62c1.705,0.11 3.331,0.2 4.893,0.27l9.959,-3.04c-4.353,0.12 -9,-0.04 -14.519,-0.39c-16.918,-1.08 -26.026,-0.4 -42.923,4.77c-16.998,5.19 -26.319,10.35 -40.316,20.67c-0.244,0.18 -2.006,1.48 -2.521,1.86c-3.534,2.6 -6.684,4.8 -9.708,6.71zM137.108,104.05c-11.348,8.24 -19.125,12.44 -32.046,16.39l-0.921,-3.01c9.189,-2.81 15.655,-5.74 22.833,-10.28zM227.003,76.57c13.939,0.62 22.836,-0.39 38.029,-5.04l-0.921,-3.01c-10.945,3.34 -18.463,4.75 -27.15,5zM109.669,135.51c13.502,-4.13 21.387,-8.54 33.601,-17.53c0.517,-0.38 2.281,-1.68 2.523,-1.86c13.704,-10.1 22.692,-15.07 39.254,-20.14c16.431,-5.02 25.137,-5.67 41.669,-4.62c16.918,1.08 26.026,0.4 42.923,-4.76l-0.922,-3.02c-16.43,5.03 -25.137,5.68 -41.668,4.62c-16.918,-1.07 -26.027,-0.39 -42.923,4.77c-16.998,5.2 -26.32,10.35 -40.316,20.67c-0.244,0.18 -2.006,1.48 -2.521,1.86c-11.922,8.78 -19.482,13 -32.542,16.99z" fill="white" fill-opacity="0.1"/>
</g>
</g>
</g>
<g id="bank-note 4" clip-path="url(#clip32_2005_3272)">
<g id="Page-1_29">
<g id="bank-note_29">
<path id="Combined-Shape_29" fill-rule="evenodd" clip-rule="evenodd" d="M4.777,243.36c0.511,-0.37 1.03,-0.75 1.556,-1.14c0.517,-0.38 2.281,-1.68 2.523,-1.86c13.703,-10.1 22.692,-15.07 39.254,-20.14c16.431,-5.02 25.137,-5.67 41.669,-4.62c1.705,0.11 3.331,0.2 4.893,0.27l9.958,-3.04c-4.353,0.13 -9,-0.03 -14.518,-0.39c-16.918,-1.07 -26.027,-0.39 -42.923,4.77c-16.998,5.2 -26.32,10.35 -40.317,20.67c-0.243,0.18 -2.006,1.48 -2.52,1.86c-3.534,2.6 -6.684,4.8 -9.708,6.72zM-4.435,213.22c-11.349,8.24 -19.126,12.44 -32.046,16.39l-0.921,-3.01c9.188,-2.81 15.654,-5.73 22.833,-10.28zM85.459,185.74c13.94,0.63 22.836,-0.39 38.03,-5.04l-0.921,-3.01c-10.946,3.35 -18.464,4.75 -27.15,5.01zM-31.875,244.68c13.502,-4.13 21.388,-8.53 33.602,-17.53c0.517,-0.38 2.281,-1.68 2.522,-1.86c13.704,-10.1 22.693,-15.07 39.255,-20.13c16.431,-5.03 25.137,-5.67 41.668,-4.62c16.918,1.08 26.027,0.4 42.923,-4.77l-0.921,-3.01c-16.431,5.02 -25.137,5.67 -41.669,4.62c-16.917,-1.08 -26.026,-0.4 -42.922,4.76c-16.999,5.2 -26.32,10.35 -40.317,20.67c-0.243,0.18 -2.006,1.48 -2.521,1.86c-11.922,8.78 -19.482,13 -32.541,17z" fill="white" fill-opacity="0.1"/>
</g>
</g>
</g>
<g id="bank-note 51" clip-path="url(#clip33_2005_3272)">
<g id="Page-1_30">
<g id="bank-note_30">
<path id="Combined-Shape_30" fill-rule="evenodd" clip-rule="evenodd" d="M-68.924,2.29c0.511,-0.37 1.029,-0.75 1.555,-1.14c0.518,-0.38 2.281,-1.68 2.523,-1.86c13.704,-10.1 22.693,-15.07 39.255,-20.13c16.43,-5.03 25.137,-5.67 41.668,-4.62c1.705,0.11 3.331,0.2 4.893,0.27l9.959,-3.05c-4.353,0.13 -9,-0.03 -14.519,-0.38c-16.918,-1.08 -26.026,-0.4 -42.923,4.76c-16.998,5.2 -26.319,10.35 -40.316,20.67c-0.244,0.18 -2.006,1.48 -2.521,1.86c-3.534,2.6 -6.684,4.81 -9.708,6.72zM-78.137,-27.84c-11.348,8.23 -19.126,12.44 -32.046,16.39l-0.921,-3.02c9.188,-2.81 15.655,-5.73 22.833,-10.27zM11.758,-55.33c13.939,0.63 22.836,-0.39 38.029,-5.03l-0.921,-3.02c-10.946,3.35 -18.463,4.76 -27.15,5.01zM-105.577,3.61c13.503,-4.13 21.388,-8.53 33.602,-17.52c0.517,-0.38 2.281,-1.69 2.523,-1.86c13.703,-10.11 22.692,-15.07 39.254,-20.14c16.431,-5.02 25.137,-5.67 41.669,-4.62c16.917,1.08 26.026,0.4 42.923,-4.77l-0.922,-3.01c-16.43,5.02 -25.137,5.67 -41.668,4.62c-16.918,-1.08 -26.027,-0.4 -42.923,4.77c-16.998,5.2 -26.32,10.35 -40.317,20.67c-0.243,0.18 -2.006,1.48 -2.52,1.86c-11.923,8.77 -19.483,13 -32.542,16.99z" fill="white" fill-opacity="0.1"/>
</g>
</g>
</g>
<g id="bank-note 29" clip-path="url(#clip34_2005_3272)">
<g id="Page-1_31">
<g id="bank-note_31">
<path id="Combined-Shape_31" fill-rule="evenodd" clip-rule="evenodd" d="M41.626,363.89c0.511,-0.37 1.029,-0.75 1.556,-1.14c0.517,-0.38 2.281,-1.68 2.522,-1.86c13.704,-10.1 22.693,-15.07 39.255,-20.13c16.431,-5.03 25.137,-5.68 41.668,-4.62c1.705,0.11 3.331,0.2 4.893,0.27l9.959,-3.05c-4.353,0.13 -9,-0.03 -14.519,-0.38c-16.917,-1.08 -26.026,-0.4 -42.922,4.76c-16.999,5.2 -26.32,10.35 -40.317,20.67c-0.244,0.18 -2.006,1.48 -2.521,1.86c-3.533,2.6 -6.684,4.8 -9.708,6.72zM32.413,333.76c-11.348,8.23 -19.125,12.43 -32.046,16.38l-0.921,-3.01c9.189,-2.81 15.655,-5.73 22.834,-10.28zM122.308,306.27c13.94,0.63 22.836,-0.39 38.03,-5.03l-0.922,-3.02c-10.945,3.35 -18.463,4.75 -27.15,5.01zM4.974,365.21c13.502,-4.13 21.388,-8.53 33.601,-17.52c0.518,-0.39 2.281,-1.69 2.523,-1.87c13.704,-10.1 22.693,-15.07 39.254,-20.13c16.431,-5.02 25.138,-5.67 41.669,-4.62c16.918,1.08 26.027,0.4 42.923,-4.77l-0.921,-3.01c-16.431,5.02 -25.138,5.67 -41.669,4.62c-16.918,-1.08 -26.026,-0.4 -42.923,4.77c-16.998,5.19 -26.319,10.35 -40.316,20.66c-0.244,0.18 -2.006,1.49 -2.521,1.86c-11.922,8.78 -19.482,13 -32.541,17z" fill="white" fill-opacity="0.1"/>
</g>
</g>
</g>
<g id="bank-note 52" clip-path="url(#clip35_2005_3272)">
<g id="Page-1_32">
<g id="bank-note_32">
<path id="Combined-Shape_32" fill-rule="evenodd" clip-rule="evenodd" d="M-32.074,122.83c0.511,-0.37 1.03,-0.75 1.556,-1.14c0.517,-0.38 2.281,-1.68 2.523,-1.86c13.703,-10.11 22.692,-15.07 39.254,-20.14c16.431,-5.02 25.137,-5.67 41.669,-4.62c1.705,0.11 3.33,0.2 4.893,0.27l9.958,-3.04c-4.353,0.13 -9,-0.04 -14.518,-0.39c-16.918,-1.08 -26.027,-0.4 -42.923,4.77c-16.998,5.2 -26.32,10.35 -40.317,20.67c-0.243,0.18 -2.006,1.48 -2.521,1.86c-3.533,2.6 -6.684,4.8 -9.708,6.71zM-41.287,92.69c-11.348,8.24 -19.125,12.44 -32.045,16.39l-0.922,-3.01c9.189,-2.81 15.655,-5.74 22.834,-10.28zM48.608,65.21c13.94,0.62 22.836,-0.39 38.03,-5.04l-0.921,-3.01c-10.946,3.35 -18.464,4.75 -27.15,5zM-68.726,124.15c13.502,-4.13 21.388,-8.54 33.602,-17.53c0.517,-0.38 2.281,-1.68 2.522,-1.86c13.704,-10.1 22.693,-15.07 39.255,-20.13c16.431,-5.03 25.137,-5.68 41.668,-4.62c16.918,1.07 26.027,0.39 42.923,-4.77l-0.921,-3.01c-16.431,5.02 -25.137,5.67 -41.669,4.62c-16.917,-1.08 -26.026,-0.4 -42.922,4.76c-16.999,5.2 -26.32,10.35 -40.317,20.67c-0.244,0.18 -2.006,1.48 -2.521,1.86c-11.922,8.78 -19.482,13 -32.541,16.99z" fill="white" fill-opacity="0.1"/>
</g>
</g>
</g>
<g id="bank-note 15" clip-path="url(#clip36_2005_3272)">
<g id="Page-1_33">
<g id="bank-note_33">
<path id="Combined-Shape_33" fill-rule="evenodd" clip-rule="evenodd" d="M324.715,145.54c0.512,-0.37 1.03,-0.75 1.556,-1.13c0.518,-0.39 2.281,-1.69 2.523,-1.87c13.704,-10.1 22.693,-15.07 39.254,-20.13c16.431,-5.02 25.138,-5.67 41.669,-4.62c1.705,0.11 3.331,0.2 4.893,0.27l9.959,-3.05c-4.354,0.13 -9,-0.03 -14.519,-0.38c-16.918,-1.08 -26.026,-0.4 -42.923,4.77c-16.998,5.19 -26.319,10.35 -40.316,20.66c-0.244,0.18 -2.006,1.49 -2.521,1.86c-3.534,2.61 -6.684,4.81 -9.708,6.72zM315.503,115.41c-11.348,8.23 -19.126,12.44 -32.046,16.39l-0.921,-3.02c9.188,-2.81 15.654,-5.73 22.833,-10.27zM405.397,87.93c13.94,0.62 22.837,-0.4 38.03,-5.04l-0.921,-3.01c-10.946,3.34 -18.463,4.75 -27.15,5zM288.063,146.86c13.503,-4.12 21.388,-8.53 33.602,-17.52c0.517,-0.38 2.281,-1.68 2.523,-1.86c13.703,-10.1 22.692,-15.07 39.254,-20.14c16.431,-5.02 25.137,-5.67 41.669,-4.62c16.917,1.08 26.026,0.4 42.922,-4.76l-0.921,-3.02c-16.431,5.03 -25.137,5.68 -41.668,4.62c-16.918,-1.07 -26.027,-0.4 -42.923,4.77c-16.998,5.2 -26.32,10.35 -40.317,20.67c-0.243,0.18 -2.006,1.48 -2.521,1.86c-11.922,8.78 -19.482,13 -32.541,16.99z" fill="white" fill-opacity="0.1"/>
</g>
</g>
</g>
<g id="bank-note 30" clip-path="url(#clip37_2005_3272)">
<g id="Page-1_34">
<g id="bank-note_34">
<path id="Combined-Shape_34" fill-rule="evenodd" clip-rule="evenodd" d="M361.566,266.08c0.511,-0.38 1.029,-0.75 1.556,-1.14c0.517,-0.38 2.281,-1.69 2.522,-1.86c13.704,-10.11 22.693,-15.07 39.255,-20.14c16.431,-5.02 25.137,-5.67 41.668,-4.62c1.705,0.11 3.331,0.2 4.893,0.27l9.959,-3.04c-4.353,0.12 -9,-0.04 -14.519,-0.39c-16.917,-1.08 -26.026,-0.4 -42.923,4.77c-16.998,5.2 -26.319,10.35 -40.316,20.67c-0.244,0.18 -2.006,1.48 -2.521,1.86c-3.533,2.6 -6.684,4.8 -9.708,6.71zM352.353,235.94c-11.348,8.24 -19.125,12.44 -32.046,16.39l-0.921,-3.01c9.189,-2.81 15.655,-5.74 22.833,-10.28zM442.248,208.46c13.939,0.62 22.836,-0.39 38.029,-5.04l-0.921,-3.01c-10.945,3.34 -18.463,4.75 -27.15,5zM324.914,267.4c13.502,-4.13 21.388,-8.54 33.601,-17.53c0.518,-0.38 2.281,-1.68 2.523,-1.86c13.704,-10.1 22.693,-15.07 39.254,-20.13c16.431,-5.03 25.138,-5.68 41.669,-4.62c16.918,1.07 26.026,0.39 42.923,-4.77l-0.921,-3.02c-16.431,5.03 -25.138,5.68 -41.669,4.62c-16.918,-1.07 -26.026,-0.39 -42.923,4.77c-16.998,5.2 -26.319,10.35 -40.316,20.67c-0.244,0.18 -2.006,1.48 -2.521,1.86c-11.922,8.78 -19.482,13 -32.542,16.99z" fill="white" fill-opacity="0.1"/>
</g>
</g>
</g>
<g id="bank-note 54" clip-path="url(#clip38_2005_3272)">
<g id="Page-1_35">
<g id="bank-note_35">
<path id="Combined-Shape_35" fill-rule="evenodd" clip-rule="evenodd" d="M287.866,25.01c0.511,-0.37 1.029,-0.75 1.555,-1.14c0.518,-0.38 2.281,-1.68 2.523,-1.86c13.704,-10.1 22.693,-15.07 39.255,-20.13c16.43,-5.03 25.137,-5.68 41.668,-4.62c1.705,0.11 3.331,0.2 4.893,0.27l9.959,-3.05c-4.353,0.13 -9,-0.03 -14.519,-0.38c-16.918,-1.08 -26.026,-0.4 -42.923,4.76c-16.998,5.2 -26.319,10.35 -40.316,20.67c-0.244,0.18 -2.006,1.48 -2.521,1.86c-3.534,2.6 -6.684,4.8 -9.708,6.72zM278.653,-5.12c-11.348,8.23 -19.125,12.43 -32.046,16.38l-0.921,-3.01c9.188,-2.81 15.655,-5.73 22.833,-10.27zM368.548,-32.61c13.939,0.63 22.836,-0.39 38.029,-5.03l-0.921,-3.02c-10.946,3.35 -18.463,4.75 -27.15,5.01zM251.214,26.33c13.502,-4.13 21.387,-8.53 33.601,-17.52c0.517,-0.38 2.281,-1.69 2.523,-1.87c13.703,-10.1 22.692,-15.07 39.254,-20.13c16.431,-5.02 25.137,-5.67 41.669,-4.62c16.918,1.08 26.026,0.4 42.923,-4.77l-0.922,-3.01c-16.43,5.02 -25.137,5.67 -41.668,4.62c-16.918,-1.08 -26.027,-0.4 -42.923,4.77c-16.998,5.19 -26.32,10.35 -40.317,20.67c-0.243,0.17 -2.006,1.48 -2.52,1.86c-11.922,8.77 -19.483,13 -32.542,16.99z" fill="white" fill-opacity="0.1"/>
</g>
</g>
</g>
<g id="bank-note 16" clip-path="url(#clip39_2005_3272)">
<g id="Page-1_36">
<g id="bank-note_36">
<path id="Combined-Shape_36" fill-rule="evenodd" clip-rule="evenodd" d="M164.746,194.45c0.512,-0.37 1.03,-0.75 1.556,-1.14c0.518,-0.38 2.281,-1.68 2.523,-1.86c13.704,-10.1 22.693,-15.07 39.254,-20.13c16.431,-5.03 25.138,-5.68 41.669,-4.62c1.705,0.11 3.331,0.2 4.893,0.27l9.959,-3.05c-4.354,0.13 -9,-0.03 -14.519,-0.38c-16.918,-1.08 -26.026,-0.4 -42.923,4.76c-16.998,5.2 -26.319,10.35 -40.316,20.67c-0.244,0.18 -2.006,1.48 -2.521,1.86c-3.534,2.6 -6.684,4.8 -9.708,6.72zM155.534,164.32c-11.348,8.23 -19.126,12.43 -32.046,16.38l-0.921,-3.01c9.188,-2.81 15.654,-5.73 22.833,-10.28zM245.428,136.83c13.94,0.63 22.837,-0.39 38.03,-5.03l-0.921,-3.02c-10.946,3.35 -18.463,4.75 -27.15,5.01zM128.094,195.77c13.503,-4.13 21.388,-8.53 33.602,-17.52c0.517,-0.38 2.281,-1.69 2.523,-1.87c13.703,-10.1 22.692,-15.07 39.254,-20.13c16.431,-5.02 25.137,-5.67 41.669,-4.62c16.917,1.08 26.026,0.4 42.922,-4.77l-0.921,-3.01c-16.431,5.02 -25.137,5.67 -41.668,4.62c-16.918,-1.08 -26.027,-0.4 -42.923,4.77c-16.998,5.19 -26.32,10.35 -40.317,20.66c-0.243,0.18 -2.006,1.49 -2.521,1.86c-11.922,8.78 -19.482,13 -32.541,17z" fill="white" fill-opacity="0.1"/>
</g>
</g>
</g>
<g id="bank-note 32" clip-path="url(#clip40_2005_3272)">
<g id="Page-1_37">
<g id="bank-note_37">
<path id="Combined-Shape_37" fill-rule="evenodd" clip-rule="evenodd" d="M201.597,314.98c0.511,-0.37 1.029,-0.75 1.555,-1.14c0.518,-0.38 2.281,-1.68 2.523,-1.86c13.704,-10.1 22.693,-15.07 39.255,-20.13c16.43,-5.02 25.137,-5.67 41.668,-4.62c1.705,0.11 3.331,0.2 4.893,0.27l9.959,-3.05c-4.353,0.13 -9,-0.03 -14.519,-0.38c-16.918,-1.08 -26.026,-0.4 -42.923,4.77c-16.998,5.19 -26.319,10.34 -40.316,20.66c-0.244,0.18 -2.006,1.48 -2.521,1.86c-3.534,2.6 -6.684,4.81 -9.708,6.72zM192.384,284.85c-11.348,8.23 -19.126,12.44 -32.046,16.39l-0.921,-3.02c9.188,-2.81 15.655,-5.73 22.833,-10.27zM282.279,257.37c13.939,0.62 22.836,-0.4 38.029,-5.04l-0.921,-3.02c-10.946,3.35 -18.463,4.76 -27.15,5.01zM164.944,316.3c13.503,-4.13 21.388,-8.53 33.602,-17.52c0.517,-0.38 2.281,-1.69 2.523,-1.86c13.703,-10.11 22.692,-15.07 39.254,-20.14c16.431,-5.02 25.137,-5.67 41.669,-4.62c16.917,1.08 26.026,0.4 42.923,-4.77l-0.922,-3.01c-16.43,5.02 -25.137,5.67 -41.668,4.62c-16.918,-1.08 -26.027,-0.4 -42.923,4.77c-16.998,5.2 -26.32,10.35 -40.317,20.67c-0.243,0.18 -2.006,1.48 -2.52,1.86c-11.923,8.77 -19.483,13 -32.542,16.99z" fill="white" fill-opacity="0.1"/>
</g>
</g>
</g>
<g id="bank-note 56" clip-path="url(#clip41_2005_3272)">
<g id="Page-1_38">
<g id="bank-note_38">
<path id="Combined-Shape_38" fill-rule="evenodd" clip-rule="evenodd" d="M127.895,73.92c0.511,-0.37 1.03,-0.75 1.556,-1.14c0.517,-0.38 2.281,-1.68 2.523,-1.86c13.704,-10.1 22.693,-15.07 39.254,-20.13c16.431,-5.03 25.137,-5.68 41.669,-4.62c1.705,0.1 3.331,0.19 4.893,0.26l9.959,-3.04c-4.354,0.13 -9,-0.03 -14.519,-0.39c-16.918,-1.07 -26.027,-0.39 -42.923,4.77c-16.998,5.2 -26.319,10.35 -40.316,20.67c-0.244,0.18 -2.006,1.48 -2.521,1.86c-3.534,2.6 -6.684,4.8 -9.708,6.72zM118.683,43.79c-11.348,8.23 -19.126,12.43 -32.046,16.38l-0.921,-3.01c9.188,-2.81 15.654,-5.73 22.833,-10.28zM208.577,16.3c13.94,0.63 22.837,-0.39 38.03,-5.04l-0.921,-3.01c-10.946,3.35 -18.463,4.75 -27.15,5.01zM91.243,75.24c13.503,-4.13 21.388,-8.53 33.602,-17.53c0.517,-0.38 2.281,-1.68 2.523,-1.86c13.703,-10.1 22.692,-15.07 39.254,-20.13c16.431,-5.02 25.137,-5.67 41.669,-4.62c16.917,1.08 26.026,0.4 42.922,-4.77l-0.921,-3.01c-16.431,5.02 -25.137,5.67 -41.668,4.62c-16.918,-1.08 -26.027,-0.4 -42.923,4.77c-16.998,5.19 -26.32,10.34 -40.317,20.66c-0.243,0.18 -2.006,1.48 -2.521,1.86c-11.922,8.78 -19.482,13 -32.541,17z" fill="white" fill-opacity="0.1"/>
</g>
</g>
</g>
</g>
<rect id="Rectangle 8108" x="28" y="132" width="91" height="30" rx="15" fill="white" fill-opacity="0.2"/>
</g>
</g></svg>