<svg width="657" height="440" viewBox="0 0 657 440" fill="none" xmlns="http://www.w3.org/2000/svg">
<line opacity="0.6" x1="154.5" y1="203.5" x2="555.5" y2="203.5" stroke="white" stroke-linecap="round" stroke-dasharray="4 4"/>
<line opacity="0.6" x1="154.5" y1="299.5" x2="555.5" y2="299.5" stroke="white" stroke-linecap="round" stroke-dasharray="4 4"/>
<line opacity="0.6" x1="154.5" y1="427.5" x2="555.5" y2="427.5" stroke="white" stroke-linecap="round" stroke-dasharray="4 4"/>
<line opacity="0.6" x1="154.5" y1="11.5" x2="555.5" y2="11.5" stroke="white" stroke-linecap="round" stroke-dasharray="4 4"/>
<line opacity="0.6" x1="154.5" y1="59.5" x2="555.5" y2="59.5" stroke="white" stroke-linecap="round" stroke-dasharray="4 4"/>
<line opacity="0.6" x1="154.5" y1="123.5" x2="555.5" y2="123.5" stroke="white" stroke-linecap="round" stroke-dasharray="4 4"/>
<path d="M410 429.5L324 300L423.5 203.5L285 123.5L507.5 61.5L444 11" stroke="#C49969" stroke-width="3"/>
<path opacity="0.6" d="M613.866 122H612.457C612.374 121.595 612.228 121.239 612.02 120.932C611.815 120.625 611.565 120.367 611.27 120.159C610.978 119.947 610.654 119.788 610.298 119.682C609.942 119.576 609.571 119.523 609.185 119.523C608.48 119.523 607.842 119.701 607.27 120.057C606.702 120.413 606.249 120.938 605.912 121.631C605.579 122.324 605.412 123.174 605.412 124.182C605.412 125.189 605.579 126.04 605.912 126.733C606.249 127.426 606.702 127.951 607.27 128.307C607.842 128.663 608.48 128.841 609.185 128.841C609.571 128.841 609.942 128.788 610.298 128.682C610.654 128.576 610.978 128.419 611.27 128.21C611.565 127.998 611.815 127.739 612.02 127.432C612.228 127.121 612.374 126.765 612.457 126.364H613.866C613.76 126.958 613.567 127.491 613.287 127.96C613.007 128.43 612.658 128.83 612.241 129.159C611.825 129.485 611.357 129.733 610.838 129.903C610.323 130.074 609.772 130.159 609.185 130.159C608.192 130.159 607.31 129.917 606.537 129.432C605.764 128.947 605.156 128.258 604.713 127.364C604.27 126.47 604.048 125.409 604.048 124.182C604.048 122.955 604.27 121.894 604.713 121C605.156 120.106 605.764 119.417 606.537 118.932C607.31 118.447 608.192 118.205 609.185 118.205C609.772 118.205 610.323 118.29 610.838 118.46C611.357 118.631 611.825 118.881 612.241 119.21C612.658 119.536 613.007 119.934 613.287 120.403C613.567 120.869 613.76 121.402 613.866 122ZM617.303 118.364V130H615.962V118.364H617.303ZM622.327 130.205C621.774 130.205 621.272 130.1 620.821 129.892C620.37 129.68 620.012 129.375 619.747 128.977C619.482 128.576 619.349 128.091 619.349 127.523C619.349 127.023 619.448 126.617 619.645 126.307C619.842 125.992 620.105 125.746 620.435 125.568C620.764 125.39 621.128 125.258 621.526 125.17C621.927 125.08 622.33 125.008 622.736 124.955C623.266 124.886 623.696 124.835 624.026 124.801C624.359 124.763 624.601 124.701 624.753 124.614C624.908 124.527 624.986 124.375 624.986 124.159V124.114C624.986 123.553 624.832 123.117 624.526 122.807C624.223 122.496 623.762 122.341 623.145 122.341C622.505 122.341 622.003 122.481 621.639 122.761C621.276 123.042 621.02 123.341 620.872 123.659L619.599 123.205C619.827 122.674 620.13 122.261 620.509 121.966C620.891 121.667 621.308 121.458 621.759 121.341C622.213 121.22 622.66 121.159 623.099 121.159C623.38 121.159 623.702 121.193 624.065 121.261C624.433 121.326 624.787 121.46 625.128 121.665C625.473 121.869 625.759 122.178 625.986 122.591C626.213 123.004 626.327 123.557 626.327 124.25V130H624.986V128.818H624.918C624.827 129.008 624.675 129.21 624.463 129.426C624.251 129.642 623.969 129.826 623.616 129.977C623.264 130.129 622.834 130.205 622.327 130.205ZM622.531 129C623.062 129 623.509 128.896 623.872 128.688C624.24 128.479 624.516 128.21 624.702 127.881C624.891 127.551 624.986 127.205 624.986 126.841V125.614C624.929 125.682 624.804 125.744 624.611 125.801C624.421 125.854 624.202 125.902 623.952 125.943C623.705 125.981 623.465 126.015 623.23 126.045C622.999 126.072 622.812 126.095 622.668 126.114C622.319 126.159 621.993 126.233 621.69 126.335C621.391 126.434 621.149 126.583 620.963 126.784C620.781 126.981 620.69 127.25 620.69 127.591C620.69 128.057 620.863 128.409 621.207 128.648C621.556 128.883 621.997 129 622.531 129ZM634.956 123.227L633.751 123.568C633.676 123.367 633.564 123.172 633.416 122.983C633.272 122.79 633.075 122.631 632.825 122.506C632.575 122.381 632.255 122.318 631.865 122.318C631.331 122.318 630.886 122.441 630.53 122.688C630.178 122.93 630.001 123.239 630.001 123.614C630.001 123.947 630.123 124.21 630.365 124.403C630.607 124.597 630.986 124.758 631.501 124.886L632.797 125.205C633.577 125.394 634.159 125.684 634.541 126.074C634.924 126.46 635.115 126.958 635.115 127.568C635.115 128.068 634.971 128.515 634.683 128.909C634.399 129.303 634.001 129.614 633.49 129.841C632.979 130.068 632.384 130.182 631.706 130.182C630.816 130.182 630.079 129.989 629.496 129.602C628.912 129.216 628.543 128.652 628.388 127.909L629.661 127.591C629.782 128.061 630.011 128.413 630.348 128.648C630.689 128.883 631.134 129 631.683 129C632.308 129 632.804 128.867 633.172 128.602C633.543 128.333 633.729 128.011 633.729 127.636C633.729 127.333 633.623 127.08 633.411 126.875C633.198 126.667 632.873 126.511 632.433 126.409L630.979 126.068C630.179 125.879 629.592 125.585 629.217 125.188C628.846 124.786 628.661 124.284 628.661 123.682C628.661 123.189 628.799 122.754 629.075 122.375C629.356 121.996 629.736 121.699 630.217 121.483C630.702 121.267 631.251 121.159 631.865 121.159C632.729 121.159 633.407 121.348 633.899 121.727C634.395 122.106 634.748 122.606 634.956 123.227ZM643.315 123.227L642.111 123.568C642.035 123.367 641.923 123.172 641.776 122.983C641.632 122.79 641.435 122.631 641.185 122.506C640.935 122.381 640.615 122.318 640.224 122.318C639.69 122.318 639.245 122.441 638.889 122.688C638.537 122.93 638.361 123.239 638.361 123.614C638.361 123.947 638.482 124.21 638.724 124.403C638.967 124.597 639.346 124.758 639.861 124.886L641.156 125.205C641.937 125.394 642.518 125.684 642.901 126.074C643.283 126.46 643.474 126.958 643.474 127.568C643.474 128.068 643.33 128.515 643.043 128.909C642.759 129.303 642.361 129.614 641.849 129.841C641.338 130.068 640.743 130.182 640.065 130.182C639.175 130.182 638.438 129.989 637.855 129.602C637.272 129.216 636.902 128.652 636.747 127.909L638.02 127.591C638.141 128.061 638.37 128.413 638.707 128.648C639.048 128.883 639.493 129 640.043 129C640.668 129 641.164 128.867 641.531 128.602C641.902 128.333 642.088 128.011 642.088 127.636C642.088 127.333 641.982 127.08 641.77 126.875C641.558 126.667 641.232 126.511 640.793 126.409L639.338 126.068C638.539 125.879 637.952 125.585 637.577 125.188C637.205 124.786 637.02 124.284 637.02 123.682C637.02 123.189 637.158 122.754 637.435 122.375C637.715 121.996 638.096 121.699 638.577 121.483C639.062 121.267 639.611 121.159 640.224 121.159C641.088 121.159 641.766 121.348 642.259 121.727C642.755 122.106 643.107 122.606 643.315 123.227ZM645.493 130V121.273H646.834V130H645.493ZM646.175 119.818C645.913 119.818 645.688 119.729 645.499 119.551C645.313 119.373 645.22 119.159 645.22 118.909C645.22 118.659 645.313 118.445 645.499 118.267C645.688 118.089 645.913 118 646.175 118C646.436 118 646.66 118.089 646.845 118.267C647.035 118.445 647.129 118.659 647.129 118.909C647.129 119.159 647.035 119.373 646.845 119.551C646.66 119.729 646.436 119.818 646.175 119.818ZM652.835 130.182C652.017 130.182 651.313 129.989 650.722 129.602C650.131 129.216 649.676 128.684 649.358 128.006C649.04 127.328 648.881 126.553 648.881 125.682C648.881 124.795 649.044 124.013 649.369 123.335C649.699 122.653 650.157 122.121 650.744 121.739C651.335 121.352 652.025 121.159 652.812 121.159C653.426 121.159 653.979 121.273 654.472 121.5C654.964 121.727 655.367 122.045 655.682 122.455C655.996 122.864 656.191 123.341 656.267 123.886H654.926C654.824 123.489 654.597 123.136 654.244 122.83C653.896 122.519 653.426 122.364 652.835 122.364C652.313 122.364 651.854 122.5 651.46 122.773C651.07 123.042 650.765 123.422 650.545 123.915C650.33 124.403 650.222 124.977 650.222 125.636C650.222 126.311 650.328 126.898 650.54 127.398C650.756 127.898 651.059 128.286 651.449 128.562C651.843 128.839 652.305 128.977 652.835 128.977C653.184 128.977 653.5 128.917 653.784 128.795C654.068 128.674 654.309 128.5 654.506 128.273C654.703 128.045 654.843 127.773 654.926 127.455H656.267C656.191 127.97 656.004 128.434 655.705 128.847C655.409 129.256 655.017 129.581 654.528 129.824C654.044 130.062 653.479 130.182 652.835 130.182Z" fill="white"/>
<path opacity="0.6" d="M607.987 306V294.364H611.919C612.832 294.364 613.578 294.528 614.158 294.858C614.741 295.184 615.173 295.625 615.453 296.182C615.733 296.739 615.874 297.36 615.874 298.045C615.874 298.731 615.733 299.354 615.453 299.915C615.177 300.475 614.749 300.922 614.169 301.256C613.589 301.585 612.847 301.75 611.942 301.75H609.124V300.5H611.896C612.521 300.5 613.023 300.392 613.402 300.176C613.781 299.96 614.055 299.669 614.226 299.301C614.4 298.93 614.487 298.511 614.487 298.045C614.487 297.58 614.4 297.163 614.226 296.795C614.055 296.428 613.779 296.14 613.396 295.932C613.014 295.72 612.506 295.614 611.874 295.614H609.396V306H607.987ZM619.303 294.364V306H617.962V294.364H619.303ZM624.327 306.205C623.774 306.205 623.272 306.1 622.821 305.892C622.37 305.68 622.012 305.375 621.747 304.977C621.482 304.576 621.349 304.091 621.349 303.523C621.349 303.023 621.448 302.617 621.645 302.307C621.842 301.992 622.105 301.746 622.435 301.568C622.764 301.39 623.128 301.258 623.526 301.17C623.927 301.08 624.33 301.008 624.736 300.955C625.266 300.886 625.696 300.835 626.026 300.801C626.359 300.763 626.601 300.701 626.753 300.614C626.908 300.527 626.986 300.375 626.986 300.159V300.114C626.986 299.553 626.832 299.117 626.526 298.807C626.223 298.496 625.762 298.341 625.145 298.341C624.505 298.341 624.003 298.481 623.639 298.761C623.276 299.042 623.02 299.341 622.872 299.659L621.599 299.205C621.827 298.674 622.13 298.261 622.509 297.966C622.891 297.667 623.308 297.458 623.759 297.341C624.213 297.22 624.66 297.159 625.099 297.159C625.38 297.159 625.702 297.193 626.065 297.261C626.433 297.326 626.787 297.46 627.128 297.665C627.473 297.869 627.759 298.178 627.986 298.591C628.213 299.004 628.327 299.557 628.327 300.25V306H626.986V304.818H626.918C626.827 305.008 626.675 305.21 626.463 305.426C626.251 305.642 625.969 305.826 625.616 305.977C625.264 306.129 624.834 306.205 624.327 306.205ZM624.531 305C625.062 305 625.509 304.896 625.872 304.688C626.24 304.479 626.516 304.21 626.702 303.881C626.891 303.551 626.986 303.205 626.986 302.841V301.614C626.929 301.682 626.804 301.744 626.611 301.801C626.421 301.854 626.202 301.902 625.952 301.943C625.705 301.981 625.465 302.015 625.23 302.045C624.999 302.072 624.812 302.095 624.668 302.114C624.319 302.159 623.993 302.233 623.69 302.335C623.391 302.434 623.149 302.583 622.963 302.784C622.781 302.981 622.69 303.25 622.69 303.591C622.69 304.057 622.863 304.409 623.207 304.648C623.556 304.883 623.997 305 624.531 305ZM631.325 309.273C631.098 309.273 630.895 309.254 630.717 309.216C630.539 309.182 630.416 309.148 630.348 309.114L630.689 307.932C631.015 308.015 631.303 308.045 631.553 308.023C631.803 308 632.024 307.888 632.217 307.688C632.414 307.491 632.594 307.17 632.757 306.727L633.007 306.045L629.78 297.273H631.234L633.643 304.227H633.734L636.143 297.273H637.598L633.893 307.273C633.727 307.723 633.52 308.097 633.274 308.392C633.028 308.691 632.742 308.913 632.416 309.057C632.094 309.201 631.731 309.273 631.325 309.273ZM643.254 297.273V298.409H638.55V297.273H643.254ZM639.959 306V296.068C639.959 295.568 640.076 295.152 640.311 294.818C640.546 294.485 640.851 294.235 641.226 294.068C641.601 293.902 641.997 293.818 642.413 293.818C642.743 293.818 643.012 293.845 643.22 293.898C643.429 293.951 643.584 294 643.686 294.045L643.3 295.205C643.232 295.182 643.137 295.153 643.016 295.119C642.898 295.085 642.743 295.068 642.55 295.068C642.107 295.068 641.786 295.18 641.589 295.403C641.396 295.627 641.3 295.955 641.3 296.386V306H639.959ZM650.634 302.432V297.273H651.974V306H650.634V304.523H650.543C650.338 304.966 650.02 305.343 649.588 305.653C649.156 305.96 648.611 306.114 647.952 306.114C647.406 306.114 646.921 305.994 646.497 305.756C646.073 305.513 645.74 305.15 645.497 304.665C645.255 304.176 645.134 303.561 645.134 302.818V297.273H646.474V302.727C646.474 303.364 646.652 303.871 647.009 304.25C647.368 304.629 647.827 304.818 648.384 304.818C648.717 304.818 649.056 304.733 649.401 304.562C649.749 304.392 650.041 304.131 650.276 303.778C650.514 303.426 650.634 302.977 650.634 302.432ZM655.771 294.364V306H654.43V294.364H655.771Z" fill="white"/>
<path opacity="0.6" d="M1.88636 434H0.409091L4.68182 422.364H6.13636L10.4091 434H8.93182L5.45455 424.205H5.36364L1.88636 434ZM2.43182 429.455H8.38636V430.705H2.43182V429.455ZM12.2216 434V422.364H13.5625V426.659H13.6761C13.7746 426.508 13.911 426.314 14.0852 426.08C14.2633 425.841 14.517 425.629 14.8466 425.443C15.1799 425.254 15.6307 425.159 16.1989 425.159C16.9337 425.159 17.5814 425.343 18.142 425.71C18.7027 426.078 19.1402 426.598 19.4545 427.273C19.7689 427.947 19.9261 428.742 19.9261 429.659C19.9261 430.583 19.7689 431.384 19.4545 432.062C19.1402 432.737 18.7045 433.259 18.1477 433.631C17.5909 433.998 16.9489 434.182 16.2216 434.182C15.661 434.182 15.2121 434.089 14.875 433.903C14.5379 433.714 14.2784 433.5 14.0966 433.261C13.9148 433.019 13.7746 432.818 13.6761 432.659H13.517V434H12.2216ZM13.5398 429.636C13.5398 430.295 13.6364 430.877 13.8295 431.381C14.0227 431.881 14.3049 432.273 14.6761 432.557C15.0473 432.837 15.5019 432.977 16.0398 432.977C16.6004 432.977 17.0682 432.83 17.4432 432.534C17.822 432.235 18.1061 431.833 18.2955 431.33C18.4886 430.822 18.5852 430.258 18.5852 429.636C18.5852 429.023 18.4905 428.47 18.3011 427.977C18.1155 427.481 17.8333 427.089 17.4545 426.801C17.0795 426.509 16.608 426.364 16.0398 426.364C15.4943 426.364 15.036 426.502 14.6648 426.778C14.2936 427.051 14.0133 427.434 13.8239 427.926C13.6345 428.415 13.5398 428.985 13.5398 429.636ZM28.1591 427.227L26.9545 427.568C26.8788 427.367 26.767 427.172 26.6193 426.983C26.4754 426.79 26.2784 426.631 26.0284 426.506C25.7784 426.381 25.4583 426.318 25.0682 426.318C24.5341 426.318 24.089 426.441 23.733 426.688C23.3807 426.93 23.2045 427.239 23.2045 427.614C23.2045 427.947 23.3258 428.21 23.5682 428.403C23.8106 428.597 24.1894 428.758 24.7045 428.886L26 429.205C26.7803 429.394 27.3617 429.684 27.7443 430.074C28.1269 430.46 28.3182 430.958 28.3182 431.568C28.3182 432.068 28.1742 432.515 27.8864 432.909C27.6023 433.303 27.2045 433.614 26.6932 433.841C26.1818 434.068 25.5871 434.182 24.9091 434.182C24.0189 434.182 23.2822 433.989 22.6989 433.602C22.1155 433.216 21.7462 432.652 21.5909 431.909L22.8636 431.591C22.9848 432.061 23.214 432.413 23.5511 432.648C23.892 432.883 24.3371 433 24.8864 433C25.5114 433 26.0076 432.867 26.375 432.602C26.7462 432.333 26.9318 432.011 26.9318 431.636C26.9318 431.333 26.8258 431.08 26.6136 430.875C26.4015 430.667 26.0758 430.511 25.6364 430.409L24.1818 430.068C23.3826 429.879 22.7955 429.585 22.4205 429.188C22.0492 428.786 21.8636 428.284 21.8636 427.682C21.8636 427.189 22.0019 426.754 22.2784 426.375C22.5587 425.996 22.9394 425.699 23.4205 425.483C23.9053 425.267 24.4545 425.159 25.0682 425.159C25.9318 425.159 26.6098 425.348 27.1023 425.727C27.5985 426.106 27.9508 426.606 28.1591 427.227ZM34.1321 425.273V426.409H29.6094V425.273H34.1321ZM30.9276 423.182H32.2685V431.5C32.2685 431.879 32.3234 432.163 32.4332 432.352C32.5469 432.538 32.6908 432.663 32.8651 432.727C33.0431 432.788 33.2306 432.818 33.4276 432.818C33.5753 432.818 33.6965 432.811 33.7912 432.795C33.8859 432.777 33.9616 432.761 34.0185 432.75L34.2912 433.955C34.2003 433.989 34.0734 434.023 33.9105 434.057C33.7476 434.095 33.5412 434.114 33.2912 434.114C32.9124 434.114 32.5412 434.032 32.1776 433.869C31.8177 433.706 31.5185 433.458 31.2798 433.125C31.045 432.792 30.9276 432.371 30.9276 431.864V423.182ZM36.1491 434V425.273H37.4446V426.591H37.5355C37.6946 426.159 37.9825 425.809 38.3991 425.54C38.8158 425.271 39.2855 425.136 39.8082 425.136C39.9067 425.136 40.0298 425.138 40.1776 425.142C40.3253 425.146 40.437 425.152 40.5128 425.159V426.523C40.4673 426.511 40.3632 426.494 40.2003 426.472C40.0412 426.445 39.8726 426.432 39.6946 426.432C39.2704 426.432 38.8916 426.521 38.5582 426.699C38.2287 426.873 37.9673 427.116 37.7741 427.426C37.5848 427.733 37.4901 428.083 37.4901 428.477V434H36.1491ZM44.6705 434.205C44.1174 434.205 43.6155 434.1 43.1648 433.892C42.714 433.68 42.3561 433.375 42.0909 432.977C41.8258 432.576 41.6932 432.091 41.6932 431.523C41.6932 431.023 41.7917 430.617 41.9886 430.307C42.1856 429.992 42.4489 429.746 42.7784 429.568C43.108 429.39 43.4716 429.258 43.8693 429.17C44.2708 429.08 44.6742 429.008 45.0795 428.955C45.6098 428.886 46.0398 428.835 46.3693 428.801C46.7027 428.763 46.9451 428.701 47.0966 428.614C47.2519 428.527 47.3295 428.375 47.3295 428.159V428.114C47.3295 427.553 47.1761 427.117 46.8693 426.807C46.5663 426.496 46.1061 426.341 45.4886 426.341C44.8485 426.341 44.3466 426.481 43.983 426.761C43.6193 427.042 43.3636 427.341 43.2159 427.659L41.9432 427.205C42.1705 426.674 42.4735 426.261 42.8523 425.966C43.2348 425.667 43.6515 425.458 44.1023 425.341C44.5568 425.22 45.0038 425.159 45.4432 425.159C45.7235 425.159 46.0455 425.193 46.4091 425.261C46.7765 425.326 47.1307 425.46 47.4716 425.665C47.8163 425.869 48.1023 426.178 48.3295 426.591C48.5568 427.004 48.6705 427.557 48.6705 428.25V434H47.3295V432.818H47.2614C47.1705 433.008 47.0189 433.21 46.8068 433.426C46.5947 433.642 46.3125 433.826 45.9602 433.977C45.608 434.129 45.178 434.205 44.6705 434.205ZM44.875 433C45.4053 433 45.8523 432.896 46.2159 432.688C46.5833 432.479 46.8598 432.21 47.0455 431.881C47.2348 431.551 47.3295 431.205 47.3295 430.841V429.614C47.2727 429.682 47.1477 429.744 46.9545 429.801C46.7652 429.854 46.5455 429.902 46.2955 429.943C46.0492 429.981 45.8087 430.015 45.5739 430.045C45.3428 430.072 45.1553 430.095 45.0114 430.114C44.6629 430.159 44.3371 430.233 44.0341 430.335C43.7348 430.434 43.4924 430.583 43.3068 430.784C43.125 430.981 43.0341 431.25 43.0341 431.591C43.0341 432.057 43.2064 432.409 43.5511 432.648C43.8996 432.883 44.3409 433 44.875 433ZM54.6634 434.182C53.8452 434.182 53.1406 433.989 52.5497 433.602C51.9588 433.216 51.5043 432.684 51.1861 432.006C50.8679 431.328 50.7088 430.553 50.7088 429.682C50.7088 428.795 50.8717 428.013 51.1974 427.335C51.527 426.653 51.9853 426.121 52.5724 425.739C53.1634 425.352 53.8527 425.159 54.6406 425.159C55.2543 425.159 55.8073 425.273 56.2997 425.5C56.7921 425.727 57.1955 426.045 57.5099 426.455C57.8243 426.864 58.0194 427.341 58.0952 427.886H56.7543C56.652 427.489 56.4247 427.136 56.0724 426.83C55.724 426.519 55.2543 426.364 54.6634 426.364C54.1406 426.364 53.6823 426.5 53.2884 426.773C52.8982 427.042 52.5933 427.422 52.3736 427.915C52.1577 428.403 52.0497 428.977 52.0497 429.636C52.0497 430.311 52.1558 430.898 52.3679 431.398C52.5838 431.898 52.8868 432.286 53.277 432.562C53.6709 432.839 54.133 432.977 54.6634 432.977C55.0118 432.977 55.3281 432.917 55.6122 432.795C55.8963 432.674 56.1368 432.5 56.3338 432.273C56.5308 432.045 56.6709 431.773 56.7543 431.455H58.0952C58.0194 431.97 57.8319 432.434 57.5327 432.847C57.2372 433.256 56.8452 433.581 56.3565 433.824C55.8717 434.062 55.3073 434.182 54.6634 434.182ZM63.8509 425.273V426.409H59.3281V425.273H63.8509ZM60.6463 423.182H61.9872V431.5C61.9872 431.879 62.0421 432.163 62.152 432.352C62.2656 432.538 62.4096 432.663 62.5838 432.727C62.7618 432.788 62.9493 432.818 63.1463 432.818C63.294 432.818 63.4152 432.811 63.5099 432.795C63.6046 432.777 63.6804 432.761 63.7372 432.75L64.0099 433.955C63.919 433.989 63.7921 434.023 63.6293 434.057C63.4664 434.095 63.2599 434.114 63.0099 434.114C62.6312 434.114 62.2599 434.032 61.8963 433.869C61.5365 433.706 61.2372 433.458 60.9986 433.125C60.7637 432.792 60.6463 432.371 60.6463 431.864V423.182Z" fill="white"/>
<path d="M1.14773 118.364H3.72727L7.18182 126.795H7.31818L10.7727 118.364H13.3523V130H11.3295V122.006H11.2216L8.00568 129.966H6.49432L3.27841 121.989H3.17045V130H1.14773V118.364ZM19.3636 130.17C18.5114 130.17 17.7727 129.983 17.1477 129.608C16.5227 129.233 16.0379 128.708 15.6932 128.034C15.3523 127.36 15.1818 126.572 15.1818 125.67C15.1818 124.769 15.3523 123.979 15.6932 123.301C16.0379 122.623 16.5227 122.097 17.1477 121.722C17.7727 121.347 18.5114 121.159 19.3636 121.159C20.2159 121.159 20.9545 121.347 21.5795 121.722C22.2045 122.097 22.6875 122.623 23.0284 123.301C23.3731 123.979 23.5455 124.769 23.5455 125.67C23.5455 126.572 23.3731 127.36 23.0284 128.034C22.6875 128.708 22.2045 129.233 21.5795 129.608C20.9545 129.983 20.2159 130.17 19.3636 130.17ZM19.375 128.523C19.8371 128.523 20.2235 128.396 20.5341 128.142C20.8447 127.884 21.0758 127.54 21.2273 127.108C21.3826 126.676 21.4602 126.195 21.4602 125.665C21.4602 125.131 21.3826 124.648 21.2273 124.216C21.0758 123.78 20.8447 123.434 20.5341 123.176C20.2235 122.919 19.8371 122.79 19.375 122.79C18.9015 122.79 18.5076 122.919 18.1932 123.176C17.8826 123.434 17.6496 123.78 17.4943 124.216C17.3428 124.648 17.267 125.131 17.267 125.665C17.267 126.195 17.3428 126.676 17.4943 127.108C17.6496 127.54 17.8826 127.884 18.1932 128.142C18.5076 128.396 18.9015 128.523 19.375 128.523ZM28.5298 130.153C27.8442 130.153 27.2306 129.977 26.6889 129.625C26.1473 129.273 25.7192 128.761 25.4048 128.091C25.0904 127.42 24.9332 126.606 24.9332 125.648C24.9332 124.678 25.0923 123.86 25.4105 123.193C25.7325 122.523 26.1662 122.017 26.7116 121.676C27.2571 121.331 27.8651 121.159 28.5355 121.159C29.0469 121.159 29.4673 121.246 29.7969 121.42C30.1264 121.591 30.3878 121.797 30.581 122.04C30.7741 122.278 30.9238 122.504 31.0298 122.716H31.1151V118.364H33.1776V130H31.1548V128.625H31.0298C30.9238 128.837 30.7704 129.062 30.5696 129.301C30.3688 129.536 30.1037 129.737 29.7741 129.903C29.4446 130.07 29.0298 130.153 28.5298 130.153ZM29.1037 128.466C29.5393 128.466 29.9105 128.348 30.2173 128.114C30.5241 127.875 30.7571 127.544 30.9162 127.119C31.0753 126.695 31.1548 126.201 31.1548 125.636C31.1548 125.072 31.0753 124.581 30.9162 124.165C30.7609 123.748 30.5298 123.424 30.223 123.193C29.92 122.962 29.5469 122.847 29.1037 122.847C28.6454 122.847 28.2628 122.966 27.956 123.205C27.6491 123.443 27.4181 123.773 27.2628 124.193C27.1075 124.614 27.0298 125.095 27.0298 125.636C27.0298 126.182 27.1075 126.669 27.2628 127.097C27.4219 127.521 27.6548 127.856 27.9616 128.102C28.2723 128.345 28.6529 128.466 29.1037 128.466ZM39.233 130.17C38.358 130.17 37.6023 129.989 36.9659 129.625C36.3333 129.258 35.8466 128.739 35.5057 128.068C35.1648 127.394 34.9943 126.6 34.9943 125.688C34.9943 124.79 35.1648 124.002 35.5057 123.324C35.8504 122.642 36.3314 122.112 36.9489 121.733C37.5663 121.35 38.2917 121.159 39.125 121.159C39.6629 121.159 40.1705 121.246 40.6477 121.42C41.1288 121.591 41.553 121.856 41.9205 122.216C42.2917 122.576 42.5833 123.034 42.7955 123.591C43.0076 124.144 43.1136 124.803 43.1136 125.568V126.199H35.9602V124.812H41.142C41.1383 124.419 41.053 124.068 40.8864 123.761C40.7197 123.451 40.4867 123.206 40.1875 123.028C39.892 122.85 39.5473 122.761 39.1534 122.761C38.733 122.761 38.3636 122.864 38.0455 123.068C37.7273 123.269 37.4792 123.534 37.3011 123.864C37.1269 124.189 37.0379 124.547 37.0341 124.938V126.148C37.0341 126.655 37.1269 127.091 37.3125 127.455C37.4981 127.814 37.7576 128.091 38.0909 128.284C38.4242 128.473 38.8144 128.568 39.2614 128.568C39.5606 128.568 39.8314 128.527 40.0739 128.443C40.3163 128.356 40.5265 128.229 40.7045 128.062C40.8826 127.896 41.017 127.689 41.108 127.443L43.0284 127.659C42.9072 128.167 42.6761 128.61 42.3352 128.989C41.9981 129.364 41.5663 129.655 41.0398 129.864C40.5133 130.068 39.911 130.17 39.233 130.17ZM44.8537 130V121.273H46.848V122.727H46.9389C47.098 122.223 47.3707 121.835 47.7571 121.562C48.1473 121.286 48.5923 121.148 49.0923 121.148C49.206 121.148 49.3329 121.153 49.473 121.165C49.617 121.172 49.7363 121.186 49.831 121.205V123.097C49.7438 123.066 49.6056 123.04 49.4162 123.017C49.2306 122.991 49.0507 122.977 48.8764 122.977C48.5014 122.977 48.1643 123.059 47.8651 123.222C47.5696 123.381 47.3366 123.602 47.1662 123.886C46.9957 124.17 46.9105 124.498 46.9105 124.869V130H44.8537ZM53.2543 124.886V130H51.1974V121.273H53.1634V122.756H53.2656C53.4664 122.267 53.7865 121.879 54.2259 121.591C54.669 121.303 55.2164 121.159 55.8679 121.159C56.4702 121.159 56.9948 121.288 57.4418 121.545C57.8925 121.803 58.241 122.176 58.4872 122.665C58.7372 123.153 58.8603 123.746 58.8565 124.443V130H56.7997V124.761C56.7997 124.178 56.6482 123.722 56.3452 123.392C56.0459 123.062 55.6312 122.898 55.1009 122.898C54.741 122.898 54.4209 122.977 54.1406 123.136C53.8641 123.292 53.6463 123.517 53.4872 123.812C53.3319 124.108 53.2543 124.466 53.2543 124.886Z" fill="#C49969"/>
<path d="M609.898 434V422.364H612.006V432.233H617.131V434H609.898ZM618.869 434V425.273H620.926V434H618.869ZM619.903 424.034C619.578 424.034 619.297 423.926 619.062 423.71C618.828 423.491 618.71 423.227 618.71 422.92C618.71 422.61 618.828 422.347 619.062 422.131C619.297 421.911 619.578 421.801 619.903 421.801C620.233 421.801 620.513 421.911 620.744 422.131C620.979 422.347 621.097 422.61 621.097 422.92C621.097 423.227 620.979 423.491 620.744 423.71C620.513 423.926 620.233 424.034 619.903 424.034ZM627.399 425.273V426.864H622.382V425.273H627.399ZM623.621 423.182H625.678V431.375C625.678 431.652 625.719 431.864 625.803 432.011C625.89 432.155 626.003 432.254 626.143 432.307C626.284 432.36 626.439 432.386 626.609 432.386C626.738 432.386 626.856 432.377 626.962 432.358C627.071 432.339 627.155 432.322 627.212 432.307L627.558 433.915C627.448 433.953 627.291 433.994 627.087 434.04C626.886 434.085 626.64 434.112 626.348 434.119C625.833 434.134 625.369 434.057 624.956 433.886C624.543 433.712 624.215 433.443 623.973 433.08C623.734 432.716 623.617 432.261 623.621 431.716V423.182ZM632.889 434.17C632.014 434.17 631.259 433.989 630.622 433.625C629.99 433.258 629.503 432.739 629.162 432.068C628.821 431.394 628.651 430.6 628.651 429.688C628.651 428.79 628.821 428.002 629.162 427.324C629.507 426.642 629.988 426.112 630.605 425.733C631.223 425.35 631.948 425.159 632.781 425.159C633.319 425.159 633.827 425.246 634.304 425.42C634.785 425.591 635.209 425.856 635.577 426.216C635.948 426.576 636.24 427.034 636.452 427.591C636.664 428.144 636.77 428.803 636.77 429.568V430.199H629.616V428.812H634.798C634.795 428.419 634.709 428.068 634.543 427.761C634.376 427.451 634.143 427.206 633.844 427.028C633.548 426.85 633.204 426.761 632.81 426.761C632.389 426.761 632.02 426.864 631.702 427.068C631.384 427.269 631.135 427.534 630.957 427.864C630.783 428.189 630.694 428.547 630.69 428.938V430.148C630.69 430.655 630.783 431.091 630.969 431.455C631.154 431.814 631.414 432.091 631.747 432.284C632.08 432.473 632.471 432.568 632.918 432.568C633.217 432.568 633.488 432.527 633.73 432.443C633.973 432.356 634.183 432.229 634.361 432.062C634.539 431.896 634.673 431.689 634.764 431.443L636.685 431.659C636.563 432.167 636.332 432.61 635.991 432.989C635.654 433.364 635.223 433.655 634.696 433.864C634.17 434.068 633.567 434.17 632.889 434.17ZM638.51 434V425.273H640.504V426.727H640.595C640.754 426.223 641.027 425.835 641.413 425.562C641.804 425.286 642.249 425.148 642.749 425.148C642.862 425.148 642.989 425.153 643.129 425.165C643.273 425.172 643.393 425.186 643.487 425.205V427.097C643.4 427.066 643.262 427.04 643.072 427.017C642.887 426.991 642.707 426.977 642.533 426.977C642.158 426.977 641.821 427.059 641.521 427.222C641.226 427.381 640.993 427.602 640.822 427.886C640.652 428.17 640.567 428.498 640.567 428.869V434H638.51ZM647.209 434.176C646.656 434.176 646.158 434.078 645.714 433.881C645.275 433.68 644.927 433.384 644.669 432.994C644.415 432.604 644.288 432.123 644.288 431.551C644.288 431.059 644.379 430.652 644.561 430.33C644.743 430.008 644.991 429.75 645.305 429.557C645.62 429.364 645.974 429.218 646.368 429.119C646.766 429.017 647.177 428.943 647.601 428.898C648.112 428.845 648.527 428.797 648.845 428.756C649.163 428.71 649.394 428.642 649.538 428.551C649.686 428.456 649.76 428.311 649.76 428.114V428.08C649.76 427.652 649.633 427.32 649.379 427.085C649.125 426.85 648.76 426.733 648.283 426.733C647.779 426.733 647.379 426.843 647.084 427.062C646.792 427.282 646.595 427.542 646.493 427.841L644.572 427.568C644.724 427.038 644.974 426.595 645.322 426.239C645.671 425.879 646.097 425.61 646.601 425.432C647.105 425.25 647.661 425.159 648.271 425.159C648.692 425.159 649.11 425.208 649.527 425.307C649.944 425.405 650.324 425.568 650.669 425.795C651.014 426.019 651.29 426.324 651.499 426.71C651.711 427.097 651.817 427.58 651.817 428.159V434H649.839V432.801H649.771C649.646 433.044 649.47 433.271 649.243 433.483C649.019 433.691 648.737 433.86 648.396 433.989C648.059 434.114 647.663 434.176 647.209 434.176ZM647.743 432.665C648.156 432.665 648.514 432.583 648.817 432.42C649.12 432.254 649.353 432.034 649.516 431.761C649.682 431.489 649.766 431.191 649.766 430.869V429.841C649.701 429.894 649.591 429.943 649.436 429.989C649.285 430.034 649.114 430.074 648.925 430.108C648.735 430.142 648.548 430.172 648.362 430.199C648.177 430.225 648.016 430.248 647.879 430.267C647.572 430.309 647.298 430.377 647.055 430.472C646.813 430.566 646.622 430.699 646.482 430.869C646.341 431.036 646.271 431.252 646.271 431.517C646.271 431.896 646.41 432.182 646.686 432.375C646.963 432.568 647.315 432.665 647.743 432.665ZM655.942 422.364V434H653.885V422.364H655.942Z" fill="#C49969"/>
<path d="M7.47159 297.562C7.41856 297.066 7.19508 296.68 6.80114 296.403C6.41099 296.127 5.90341 295.989 5.27841 295.989C4.83902 295.989 4.46212 296.055 4.14773 296.188C3.83333 296.32 3.5928 296.5 3.42614 296.727C3.25947 296.955 3.17424 297.214 3.17045 297.506C3.17045 297.748 3.22538 297.958 3.33523 298.136C3.44886 298.314 3.60227 298.466 3.79545 298.591C3.98864 298.712 4.20265 298.814 4.4375 298.898C4.67235 298.981 4.90909 299.051 5.14773 299.108L6.23864 299.381C6.67803 299.483 7.10038 299.621 7.50568 299.795C7.91477 299.97 8.2803 300.189 8.60227 300.455C8.92803 300.72 9.18561 301.04 9.375 301.415C9.56439 301.79 9.65909 302.229 9.65909 302.733C9.65909 303.415 9.48485 304.015 9.13636 304.534C8.78788 305.049 8.28409 305.453 7.625 305.744C6.9697 306.032 6.17614 306.176 5.24432 306.176C4.33902 306.176 3.55303 306.036 2.88636 305.756C2.22348 305.475 1.70455 305.066 1.32955 304.528C0.958333 303.991 0.757576 303.335 0.727273 302.562H2.80114C2.83144 302.968 2.95644 303.305 3.17614 303.574C3.39583 303.843 3.68182 304.044 4.03409 304.176C4.39015 304.309 4.78788 304.375 5.22727 304.375C5.68561 304.375 6.08712 304.307 6.43182 304.17C6.7803 304.03 7.05303 303.837 7.25 303.591C7.44697 303.341 7.54735 303.049 7.55114 302.716C7.54735 302.413 7.45833 302.163 7.28409 301.966C7.10985 301.765 6.86553 301.598 6.55114 301.466C6.24053 301.33 5.87689 301.208 5.46023 301.102L4.13636 300.761C3.17803 300.515 2.42045 300.142 1.86364 299.642C1.31061 299.138 1.03409 298.47 1.03409 297.636C1.03409 296.951 1.2197 296.35 1.59091 295.835C1.96591 295.32 2.47538 294.92 3.11932 294.636C3.76326 294.348 4.49242 294.205 5.30682 294.205C6.13258 294.205 6.85606 294.348 7.47727 294.636C8.10227 294.92 8.5928 295.316 8.94886 295.824C9.30492 296.328 9.48864 296.907 9.5 297.562H7.47159ZM15.3111 306.17C14.4361 306.17 13.6804 305.989 13.044 305.625C12.4115 305.258 11.9247 304.739 11.5838 304.068C11.2429 303.394 11.0724 302.6 11.0724 301.688C11.0724 300.79 11.2429 300.002 11.5838 299.324C11.9285 298.642 12.4096 298.112 13.027 297.733C13.6444 297.35 14.3698 297.159 15.2031 297.159C15.741 297.159 16.2486 297.246 16.7259 297.42C17.2069 297.591 17.6312 297.856 17.9986 298.216C18.3698 298.576 18.6615 299.034 18.8736 299.591C19.0857 300.144 19.1918 300.803 19.1918 301.568V302.199H12.0384V300.812H17.2202C17.2164 300.419 17.1312 300.068 16.9645 299.761C16.7978 299.451 16.5649 299.206 16.2656 299.028C15.9702 298.85 15.6255 298.761 15.2315 298.761C14.8111 298.761 14.4418 298.864 14.1236 299.068C13.8054 299.269 13.5573 299.534 13.3793 299.864C13.205 300.189 13.116 300.547 13.1122 300.938V302.148C13.1122 302.655 13.205 303.091 13.3906 303.455C13.5762 303.814 13.8357 304.091 14.169 304.284C14.5024 304.473 14.8925 304.568 15.3395 304.568C15.6387 304.568 15.9096 304.527 16.152 304.443C16.3944 304.356 16.6046 304.229 16.7827 304.062C16.9607 303.896 17.0952 303.689 17.1861 303.443L19.1065 303.659C18.9853 304.167 18.7543 304.61 18.4134 304.989C18.0762 305.364 17.6444 305.655 17.1179 305.864C16.5914 306.068 15.9891 306.17 15.3111 306.17ZM20.9318 306V297.273H22.9261V298.727H23.017C23.1761 298.223 23.4489 297.835 23.8352 297.562C24.2254 297.286 24.6705 297.148 25.1705 297.148C25.2841 297.148 25.411 297.153 25.5511 297.165C25.6951 297.172 25.8144 297.186 25.9091 297.205V299.097C25.822 299.066 25.6837 299.04 25.4943 299.017C25.3087 298.991 25.1288 298.977 24.9545 298.977C24.5795 298.977 24.2424 299.059 23.9432 299.222C23.6477 299.381 23.4148 299.602 23.2443 299.886C23.0739 300.17 22.9886 300.498 22.9886 300.869V306H20.9318ZM27.2756 306V297.273H29.3324V306H27.2756ZM28.3097 296.034C27.9839 296.034 27.7036 295.926 27.4688 295.71C27.2339 295.491 27.1165 295.227 27.1165 294.92C27.1165 294.61 27.2339 294.347 27.4688 294.131C27.7036 293.911 27.9839 293.801 28.3097 293.801C28.6392 293.801 28.9195 293.911 29.1506 294.131C29.3854 294.347 29.5028 294.61 29.5028 294.92C29.5028 295.227 29.3854 295.491 29.1506 295.71C28.9195 295.926 28.6392 296.034 28.3097 296.034ZM35.2543 306.17C34.402 306.17 33.6634 305.983 33.0384 305.608C32.4134 305.233 31.9285 304.708 31.5838 304.034C31.2429 303.36 31.0724 302.572 31.0724 301.67C31.0724 300.769 31.2429 299.979 31.5838 299.301C31.9285 298.623 32.4134 298.097 33.0384 297.722C33.6634 297.347 34.402 297.159 35.2543 297.159C36.1065 297.159 36.8452 297.347 37.4702 297.722C38.0952 298.097 38.5781 298.623 38.919 299.301C39.2637 299.979 39.4361 300.769 39.4361 301.67C39.4361 302.572 39.2637 303.36 38.919 304.034C38.5781 304.708 38.0952 305.233 37.4702 305.608C36.8452 305.983 36.1065 306.17 35.2543 306.17ZM35.2656 304.523C35.7277 304.523 36.1141 304.396 36.4247 304.142C36.7353 303.884 36.9664 303.54 37.1179 303.108C37.2732 302.676 37.3509 302.195 37.3509 301.665C37.3509 301.131 37.2732 300.648 37.1179 300.216C36.9664 299.78 36.7353 299.434 36.4247 299.176C36.1141 298.919 35.7277 298.79 35.2656 298.79C34.7921 298.79 34.3982 298.919 34.0838 299.176C33.7732 299.434 33.5402 299.78 33.3849 300.216C33.2334 300.648 33.1577 301.131 33.1577 301.665C33.1577 302.195 33.2334 302.676 33.3849 303.108C33.5402 303.54 33.7732 303.884 34.0838 304.142C34.3982 304.396 34.7921 304.523 35.2656 304.523ZM46.7443 302.33V297.273H48.8011V306H46.8068V304.449H46.7159C46.5189 304.937 46.1951 305.337 45.7443 305.648C45.2973 305.958 44.7462 306.114 44.0909 306.114C43.5189 306.114 43.0133 305.987 42.5739 305.733C42.1383 305.475 41.7973 305.102 41.5511 304.614C41.3049 304.121 41.1818 303.527 41.1818 302.83V297.273H43.2386V302.511C43.2386 303.064 43.3902 303.504 43.6932 303.83C43.9962 304.155 44.3939 304.318 44.8864 304.318C45.1894 304.318 45.483 304.244 45.767 304.097C46.0511 303.949 46.2841 303.729 46.4659 303.438C46.6515 303.142 46.7443 302.773 46.7443 302.33ZM57.8139 299.58L55.9389 299.784C55.8859 299.595 55.7931 299.417 55.6605 299.25C55.5317 299.083 55.3575 298.949 55.1378 298.847C54.9181 298.744 54.6491 298.693 54.331 298.693C53.9029 298.693 53.5431 298.786 53.2514 298.972C52.9635 299.157 52.8215 299.398 52.8253 299.693C52.8215 299.947 52.9143 300.153 53.1037 300.312C53.2969 300.472 53.6151 300.602 54.0582 300.705L55.5469 301.023C56.3726 301.201 56.9863 301.483 57.3878 301.869C57.7931 302.256 57.9976 302.761 58.0014 303.386C57.9976 303.936 57.8366 304.42 57.5185 304.841C57.2041 305.258 56.7666 305.583 56.206 305.818C55.6454 306.053 55.0014 306.17 54.2741 306.17C53.206 306.17 52.3461 305.947 51.6946 305.5C51.0431 305.049 50.6548 304.422 50.5298 303.619L52.5355 303.426C52.6264 303.82 52.8196 304.117 53.1151 304.318C53.4105 304.519 53.795 304.619 54.2685 304.619C54.7571 304.619 55.1491 304.519 55.4446 304.318C55.7438 304.117 55.8935 303.869 55.8935 303.574C55.8935 303.324 55.7969 303.117 55.6037 302.955C55.4143 302.792 55.1188 302.667 54.7173 302.58L53.2287 302.267C52.3916 302.093 51.7723 301.799 51.3707 301.386C50.9692 300.97 50.7704 300.443 50.7741 299.807C50.7704 299.269 50.9162 298.803 51.2116 298.409C51.5109 298.011 51.9257 297.705 52.456 297.489C52.9901 297.269 53.6056 297.159 54.3026 297.159C55.3253 297.159 56.1302 297.377 56.7173 297.812C57.3082 298.248 57.6738 298.837 57.8139 299.58Z" fill="#C49969"/>
<path opacity="0.6" d="M0.409091 198.364H2.02273L5.25 203.795H5.38636L8.61364 198.364H10.2273L6.02273 205.205V210H4.61364V205.205L0.409091 198.364ZM14.179 210.182C13.3911 210.182 12.6998 209.994 12.1051 209.619C11.5142 209.244 11.0521 208.72 10.7188 208.045C10.3892 207.371 10.2244 206.583 10.2244 205.682C10.2244 204.773 10.3892 203.979 10.7188 203.301C11.0521 202.623 11.5142 202.097 12.1051 201.722C12.6998 201.347 13.3911 201.159 14.179 201.159C14.9669 201.159 15.6563 201.347 16.2472 201.722C16.8419 202.097 17.304 202.623 17.6335 203.301C17.9669 203.979 18.1335 204.773 18.1335 205.682C18.1335 206.583 17.9669 207.371 17.6335 208.045C17.304 208.72 16.8419 209.244 16.2472 209.619C15.6563 209.994 14.9669 210.182 14.179 210.182ZM14.179 208.977C14.7775 208.977 15.2699 208.824 15.6562 208.517C16.0426 208.21 16.3286 207.807 16.5142 207.307C16.6998 206.807 16.7926 206.265 16.7926 205.682C16.7926 205.098 16.6998 204.555 16.5142 204.051C16.3286 203.547 16.0426 203.14 15.6562 202.83C15.2699 202.519 14.7775 202.364 14.179 202.364C13.5805 202.364 13.0881 202.519 12.7017 202.83C12.3153 203.14 12.0294 203.547 11.8438 204.051C11.6581 204.555 11.5653 205.098 11.5653 205.682C11.5653 206.265 11.6581 206.807 11.8438 207.307C12.0294 207.807 12.3153 208.21 12.7017 208.517C13.0881 208.824 13.5805 208.977 14.179 208.977ZM25.6804 206.432V201.273H27.0213V210H25.6804V208.523H25.5895C25.3849 208.966 25.0668 209.343 24.6349 209.653C24.2031 209.96 23.6577 210.114 22.9986 210.114C22.4531 210.114 21.9683 209.994 21.544 209.756C21.1198 209.513 20.7865 209.15 20.544 208.665C20.3016 208.176 20.1804 207.561 20.1804 206.818V201.273H21.5213V206.727C21.5213 207.364 21.6993 207.871 22.0554 208.25C22.4152 208.629 22.8736 208.818 23.4304 208.818C23.7637 208.818 24.1027 208.733 24.4474 208.562C24.7959 208.392 25.0876 208.131 25.3224 207.778C25.5611 207.426 25.6804 206.977 25.6804 206.432ZM30.8182 204.75V210H29.4773V201.273H30.7727V202.636H30.8864C31.0909 202.193 31.4015 201.837 31.8182 201.568C32.2348 201.295 32.7727 201.159 33.4318 201.159C34.0227 201.159 34.5398 201.28 34.983 201.523C35.4261 201.761 35.7708 202.125 36.017 202.614C36.2633 203.098 36.3864 203.712 36.3864 204.455V210H35.0455V204.545C35.0455 203.86 34.8674 203.326 34.5114 202.943C34.1553 202.557 33.6667 202.364 33.0455 202.364C32.6174 202.364 32.2348 202.456 31.8977 202.642C31.5644 202.828 31.3011 203.098 31.108 203.455C30.9148 203.811 30.8182 204.242 30.8182 204.75ZM42.3594 213.455C41.7116 213.455 41.1548 213.371 40.6889 213.205C40.223 213.042 39.8348 212.826 39.5241 212.557C39.2173 212.292 38.973 212.008 38.7912 211.705L39.8594 210.955C39.9806 211.114 40.134 211.295 40.3196 211.5C40.5052 211.708 40.759 211.888 41.081 212.04C41.4067 212.195 41.8329 212.273 42.3594 212.273C43.0639 212.273 43.6454 212.102 44.1037 211.761C44.562 211.42 44.7912 210.886 44.7912 210.159V208.386H44.6776C44.5791 208.545 44.4389 208.742 44.2571 208.977C44.0791 209.208 43.8215 209.415 43.4844 209.597C43.151 209.775 42.7003 209.864 42.1321 209.864C41.4276 209.864 40.795 209.697 40.2344 209.364C39.6776 209.03 39.2363 208.545 38.9105 207.909C38.5885 207.273 38.4276 206.5 38.4276 205.591C38.4276 204.697 38.5848 203.919 38.8991 203.256C39.2135 202.589 39.651 202.074 40.2116 201.71C40.7723 201.343 41.42 201.159 42.1548 201.159C42.723 201.159 43.1738 201.254 43.5071 201.443C43.8442 201.629 44.1018 201.841 44.2798 202.08C44.4616 202.314 44.6018 202.508 44.7003 202.659H44.8366V201.273H46.1321V210.25C46.1321 211 45.9616 211.61 45.6207 212.08C45.2836 212.553 44.8291 212.9 44.2571 213.119C43.6889 213.343 43.0563 213.455 42.3594 213.455ZM42.3139 208.659C42.8518 208.659 43.3063 208.536 43.6776 208.29C44.0488 208.044 44.331 207.689 44.5241 207.227C44.7173 206.765 44.8139 206.212 44.8139 205.568C44.8139 204.939 44.7192 204.384 44.5298 203.903C44.3404 203.422 44.0601 203.045 43.6889 202.773C43.3177 202.5 42.8594 202.364 42.3139 202.364C41.7457 202.364 41.2723 202.508 40.8935 202.795C40.5185 203.083 40.2363 203.47 40.0469 203.955C39.8613 204.439 39.7685 204.977 39.7685 205.568C39.7685 206.174 39.8632 206.71 40.0526 207.176C40.2457 207.638 40.5298 208.002 40.9048 208.267C41.2836 208.528 41.7533 208.659 42.3139 208.659Z" fill="white"/>
<path opacity="0.6" d="M1.40909 66V54.3636H8.43182V55.6136H2.81818V59.5455H8.06818V60.7955H2.81818V64.75H8.52273V66H1.40909ZM14.3352 66.1818C13.517 66.1818 12.8125 65.9886 12.2216 65.6023C11.6307 65.2159 11.1761 64.6837 10.858 64.0057C10.5398 63.3277 10.3807 62.553 10.3807 61.6818C10.3807 60.7955 10.5436 60.0133 10.8693 59.3352C11.1989 58.6534 11.6572 58.1212 12.2443 57.7386C12.8352 57.3523 13.5246 57.1591 14.3125 57.1591C14.9261 57.1591 15.4792 57.2727 15.9716 57.5C16.464 57.7273 16.8674 58.0455 17.1818 58.4545C17.4962 58.8636 17.6913 59.3409 17.767 59.8864H16.4261C16.3239 59.4886 16.0966 59.1364 15.7443 58.8295C15.3958 58.5189 14.9261 58.3636 14.3352 58.3636C13.8125 58.3636 13.3542 58.5 12.9602 58.7727C12.5701 59.0417 12.2652 59.4223 12.0455 59.9148C11.8295 60.4034 11.7216 60.9773 11.7216 61.6364C11.7216 62.3106 11.8277 62.8977 12.0398 63.3977C12.2557 63.8977 12.5587 64.286 12.9489 64.5625C13.3428 64.839 13.8049 64.9773 14.3352 64.9773C14.6837 64.9773 15 64.9167 15.2841 64.7955C15.5682 64.6742 15.8087 64.5 16.0057 64.2727C16.2027 64.0455 16.3428 63.7727 16.4261 63.4545H17.767C17.6913 63.9697 17.5038 64.4337 17.2045 64.8466C16.9091 65.2557 16.517 65.5814 16.0284 65.8239C15.5436 66.0625 14.9792 66.1818 14.3352 66.1818ZM23.2727 66.1818C22.4848 66.1818 21.7936 65.9943 21.1989 65.6193C20.608 65.2443 20.1458 64.7197 19.8125 64.0455C19.483 63.3712 19.3182 62.5833 19.3182 61.6818C19.3182 60.7727 19.483 59.9792 19.8125 59.3011C20.1458 58.6231 20.608 58.0966 21.1989 57.7216C21.7936 57.3466 22.4848 57.1591 23.2727 57.1591C24.0606 57.1591 24.75 57.3466 25.3409 57.7216C25.9356 58.0966 26.3977 58.6231 26.7273 59.3011C27.0606 59.9792 27.2273 60.7727 27.2273 61.6818C27.2273 62.5833 27.0606 63.3712 26.7273 64.0455C26.3977 64.7197 25.9356 65.2443 25.3409 65.6193C24.75 65.9943 24.0606 66.1818 23.2727 66.1818ZM23.2727 64.9773C23.8712 64.9773 24.3636 64.8239 24.75 64.517C25.1364 64.2102 25.4223 63.8068 25.608 63.3068C25.7936 62.8068 25.8864 62.2652 25.8864 61.6818C25.8864 61.0985 25.7936 60.5549 25.608 60.0511C25.4223 59.5473 25.1364 59.1402 24.75 58.8295C24.3636 58.5189 23.8712 58.3636 23.2727 58.3636C22.6742 58.3636 22.1818 58.5189 21.7955 58.8295C21.4091 59.1402 21.1231 59.5473 20.9375 60.0511C20.7519 60.5549 20.6591 61.0985 20.6591 61.6818C20.6591 62.2652 20.7519 62.8068 20.9375 63.3068C21.1231 63.8068 21.4091 64.2102 21.7955 64.517C22.1818 64.8239 22.6742 64.9773 23.2727 64.9773ZM30.6151 60.75V66H29.2741V57.2727H30.5696V58.6364H30.6832C30.8878 58.1932 31.1984 57.8371 31.6151 57.5682C32.0317 57.2955 32.5696 57.1591 33.2287 57.1591C33.8196 57.1591 34.3366 57.2803 34.7798 57.5227C35.223 57.7614 35.5677 58.125 35.8139 58.6136C36.0601 59.0985 36.1832 59.7121 36.1832 60.4545V66H34.8423V60.5455C34.8423 59.8598 34.6643 59.3258 34.3082 58.9432C33.9522 58.5568 33.4635 58.3636 32.8423 58.3636C32.4143 58.3636 32.0317 58.4564 31.6946 58.642C31.3613 58.8277 31.098 59.0985 30.9048 59.4545C30.7116 59.8106 30.6151 60.2424 30.6151 60.75ZM42.179 66.1818C41.3911 66.1818 40.6998 65.9943 40.1051 65.6193C39.5142 65.2443 39.0521 64.7197 38.7188 64.0455C38.3892 63.3712 38.2244 62.5833 38.2244 61.6818C38.2244 60.7727 38.3892 59.9792 38.7188 59.3011C39.0521 58.6231 39.5142 58.0966 40.1051 57.7216C40.6998 57.3466 41.3911 57.1591 42.179 57.1591C42.9669 57.1591 43.6563 57.3466 44.2472 57.7216C44.8419 58.0966 45.304 58.6231 45.6335 59.3011C45.9669 59.9792 46.1335 60.7727 46.1335 61.6818C46.1335 62.5833 45.9669 63.3712 45.6335 64.0455C45.304 64.7197 44.8419 65.2443 44.2472 65.6193C43.6563 65.9943 42.9669 66.1818 42.179 66.1818ZM42.179 64.9773C42.7775 64.9773 43.2699 64.8239 43.6562 64.517C44.0426 64.2102 44.3286 63.8068 44.5142 63.3068C44.6998 62.8068 44.7926 62.2652 44.7926 61.6818C44.7926 61.0985 44.6998 60.5549 44.5142 60.0511C44.3286 59.5473 44.0426 59.1402 43.6562 58.8295C43.2699 58.5189 42.7775 58.3636 42.179 58.3636C41.5805 58.3636 41.0881 58.5189 40.7017 58.8295C40.3153 59.1402 40.0294 59.5473 39.8438 60.0511C39.6581 60.5549 39.5653 61.0985 39.5653 61.6818C39.5653 62.2652 39.6581 62.8068 39.8438 63.3068C40.0294 63.8068 40.3153 64.2102 40.7017 64.517C41.0881 64.8239 41.5805 64.9773 42.179 64.9773ZM48.1804 66V57.2727H49.4759V58.6364H49.5895C49.7713 58.1705 50.0649 57.8087 50.4702 57.5511C50.8755 57.2898 51.3622 57.1591 51.9304 57.1591C52.5062 57.1591 52.9853 57.2898 53.3679 57.5511C53.7543 57.8087 54.0554 58.1705 54.2713 58.6364H54.3622C54.5857 58.1856 54.9209 57.8277 55.3679 57.5625C55.8149 57.2936 56.3509 57.1591 56.9759 57.1591C57.7562 57.1591 58.3944 57.4034 58.8906 57.892C59.3868 58.3769 59.6349 59.1326 59.6349 60.1591V66H58.294V60.1591C58.294 59.5152 58.1179 59.0549 57.7656 58.7784C57.4134 58.5019 56.9986 58.3636 56.5213 58.3636C55.9077 58.3636 55.4323 58.5492 55.0952 58.9205C54.758 59.2879 54.5895 59.7538 54.5895 60.3182V66H53.2259V60.0227C53.2259 59.5265 53.0649 59.1269 52.7429 58.8239C52.4209 58.517 52.0062 58.3636 51.4986 58.3636C51.1501 58.3636 50.8243 58.4564 50.5213 58.642C50.2221 58.8277 49.9796 59.0852 49.794 59.4148C49.6122 59.7405 49.5213 60.1174 49.5213 60.5455V66H48.1804ZM62.0866 66V57.2727H63.4276V66H62.0866ZM62.7685 55.8182C62.5071 55.8182 62.2817 55.7292 62.0923 55.5511C61.9067 55.3731 61.8139 55.1591 61.8139 54.9091C61.8139 54.6591 61.9067 54.4451 62.0923 54.267C62.2817 54.089 62.5071 54 62.7685 54C63.0298 54 63.2533 54.089 63.4389 54.267C63.6283 54.4451 63.723 54.6591 63.723 54.9091C63.723 55.1591 63.6283 55.3731 63.4389 55.5511C63.2533 55.7292 63.0298 55.8182 62.7685 55.8182ZM69.429 66.1818C68.6108 66.1818 67.9063 65.9886 67.3153 65.6023C66.7244 65.2159 66.2699 64.6837 65.9517 64.0057C65.6335 63.3277 65.4744 62.553 65.4744 61.6818C65.4744 60.7955 65.6373 60.0133 65.9631 59.3352C66.2926 58.6534 66.7509 58.1212 67.3381 57.7386C67.929 57.3523 68.6184 57.1591 69.4062 57.1591C70.0199 57.1591 70.5729 57.2727 71.0653 57.5C71.5578 57.7273 71.9612 58.0455 72.2756 58.4545C72.59 58.8636 72.785 59.3409 72.8608 59.8864H71.5199C71.4176 59.4886 71.1903 59.1364 70.8381 58.8295C70.4896 58.5189 70.0199 58.3636 69.429 58.3636C68.9063 58.3636 68.4479 58.5 68.054 58.7727C67.6638 59.0417 67.3589 59.4223 67.1392 59.9148C66.9233 60.4034 66.8153 60.9773 66.8153 61.6364C66.8153 62.3106 66.9214 62.8977 67.1335 63.3977C67.3494 63.8977 67.6525 64.286 68.0426 64.5625C68.4366 64.839 68.8987 64.9773 69.429 64.9773C69.7775 64.9773 70.0938 64.9167 70.3778 64.7955C70.6619 64.6742 70.9025 64.5 71.0994 64.2727C71.2964 64.0455 71.4366 63.7727 71.5199 63.4545H72.8608C72.785 63.9697 72.5975 64.4337 72.2983 64.8466C72.0028 65.2557 71.6108 65.5814 71.1222 65.8239C70.6373 66.0625 70.0729 66.1818 69.429 66.1818ZM77.3892 66.2045C76.8362 66.2045 76.3343 66.1004 75.8835 65.892C75.4328 65.6799 75.0748 65.375 74.8097 64.9773C74.5445 64.5758 74.4119 64.0909 74.4119 63.5227C74.4119 63.0227 74.5104 62.6174 74.7074 62.3068C74.9044 61.9924 75.1676 61.7462 75.4972 61.5682C75.8267 61.3902 76.1903 61.2576 76.5881 61.1705C76.9896 61.0795 77.393 61.0076 77.7983 60.9545C78.3286 60.8864 78.7585 60.8352 79.0881 60.8011C79.4214 60.7633 79.6638 60.7008 79.8153 60.6136C79.9706 60.5265 80.0483 60.375 80.0483 60.1591V60.1136C80.0483 59.553 79.8949 59.1174 79.5881 58.8068C79.285 58.4962 78.8248 58.3409 78.2074 58.3409C77.5672 58.3409 77.0653 58.4811 76.7017 58.7614C76.3381 59.0417 76.0824 59.3409 75.9347 59.6591L74.6619 59.2045C74.8892 58.6742 75.1922 58.2614 75.571 57.9659C75.9536 57.6667 76.3703 57.4583 76.821 57.3409C77.2756 57.2197 77.7225 57.1591 78.1619 57.1591C78.4422 57.1591 78.7642 57.1932 79.1278 57.2614C79.4953 57.3258 79.8494 57.4602 80.1903 57.6648C80.535 57.8693 80.821 58.178 81.0483 58.5909C81.2756 59.0038 81.3892 59.5568 81.3892 60.25V66H80.0483V64.8182H79.9801C79.8892 65.0076 79.7377 65.2102 79.5256 65.4261C79.3134 65.642 79.0313 65.8258 78.679 65.9773C78.3267 66.1288 77.8968 66.2045 77.3892 66.2045ZM77.5938 65C78.1241 65 78.571 64.8958 78.9347 64.6875C79.3021 64.4792 79.5786 64.2102 79.7642 63.8807C79.9536 63.5511 80.0483 63.2045 80.0483 62.8409V61.6136C79.9915 61.6818 79.8665 61.7443 79.6733 61.8011C79.4839 61.8542 79.2642 61.9015 79.0142 61.9432C78.768 61.9811 78.5275 62.0152 78.2926 62.0455C78.0616 62.072 77.8741 62.0947 77.7301 62.1136C77.3816 62.1591 77.0559 62.233 76.7528 62.3352C76.4536 62.4337 76.2112 62.5833 76.0256 62.7841C75.8438 62.9811 75.7528 63.25 75.7528 63.5909C75.7528 64.0568 75.9252 64.4091 76.2699 64.6477C76.6184 64.8826 77.0597 65 77.5938 65ZM85.1776 54.3636V66H83.8366V54.3636H85.1776Z" fill="white"/>
<path opacity="0.6" d="M1.40909 18V6.36364H8.38636V7.61364H2.81818V11.5455H7.86364V12.7955H2.81818V18H1.40909ZM13.6364 18.1818C12.7955 18.1818 12.0701 17.9962 11.4602 17.625C10.8542 17.25 10.3864 16.7273 10.0568 16.0568C9.73106 15.3826 9.56818 14.5985 9.56818 13.7045C9.56818 12.8106 9.73106 12.0227 10.0568 11.3409C10.3864 10.6553 10.8447 10.1212 11.4318 9.73864C12.0227 9.35227 12.7121 9.15909 13.5 9.15909C13.9545 9.15909 14.4034 9.23485 14.8466 9.38636C15.2898 9.53788 15.6932 9.78409 16.0568 10.125C16.4205 10.4621 16.7102 10.9091 16.9261 11.4659C17.142 12.0227 17.25 12.7083 17.25 13.5227V14.0909H10.5227V12.9318H15.8864C15.8864 12.4394 15.7879 12 15.5909 11.6136C15.3977 11.2273 15.1212 10.9223 14.7614 10.6989C14.4053 10.4754 13.9848 10.3636 13.5 10.3636C12.9659 10.3636 12.5038 10.4962 12.1136 10.7614C11.7273 11.0227 11.4299 11.3636 11.2216 11.7841C11.0133 12.2045 10.9091 12.6553 10.9091 13.1364V13.9091C10.9091 14.5682 11.0227 15.1269 11.25 15.5852C11.4811 16.0398 11.8011 16.3864 12.2102 16.625C12.6193 16.8598 13.0947 16.9773 13.6364 16.9773C13.9886 16.9773 14.3068 16.928 14.5909 16.8295C14.8788 16.7273 15.1269 16.5758 15.3352 16.375C15.5436 16.1705 15.7045 15.9167 15.8182 15.6136L17.1136 15.9773C16.9773 16.4167 16.7481 16.803 16.4261 17.1364C16.1042 17.4659 15.7064 17.7235 15.233 17.9091C14.7595 18.0909 14.2273 18.1818 13.6364 18.1818ZM19.2898 18V9.27273H20.5852V10.6364H20.6989C20.8807 10.1705 21.1742 9.80871 21.5795 9.55114C21.9848 9.28977 22.4716 9.15909 23.0398 9.15909C23.6155 9.15909 24.0947 9.28977 24.4773 9.55114C24.8636 9.80871 25.1648 10.1705 25.3807 10.6364H25.4716C25.6951 10.1856 26.0303 9.82765 26.4773 9.5625C26.9242 9.29356 27.4602 9.15909 28.0852 9.15909C28.8655 9.15909 29.5038 9.40341 30 9.89205C30.4962 10.3769 30.7443 11.1326 30.7443 12.1591V18H29.4034V12.1591C29.4034 11.5152 29.2273 11.0549 28.875 10.7784C28.5227 10.5019 28.108 10.3636 27.6307 10.3636C27.017 10.3636 26.5417 10.5492 26.2045 10.9205C25.8674 11.2879 25.6989 11.7538 25.6989 12.3182V18H24.3352V12.0227C24.3352 11.5265 24.1742 11.1269 23.8523 10.8239C23.5303 10.517 23.1155 10.3636 22.608 10.3636C22.2595 10.3636 21.9337 10.4564 21.6307 10.642C21.3314 10.8277 21.089 11.0852 20.9034 11.4148C20.7216 11.7405 20.6307 12.1174 20.6307 12.5455V18H19.2898ZM33.196 18V9.27273H34.5369V18H33.196ZM33.8778 7.81818C33.6165 7.81818 33.3911 7.72917 33.2017 7.55114C33.0161 7.37311 32.9233 7.15909 32.9233 6.90909C32.9233 6.65909 33.0161 6.44508 33.2017 6.26705C33.3911 6.08902 33.6165 6 33.8778 6C34.1392 6 34.3627 6.08902 34.5483 6.26705C34.7377 6.44508 34.8324 6.65909 34.8324 6.90909C34.8324 7.15909 34.7377 7.37311 34.5483 7.55114C34.3627 7.72917 34.1392 7.81818 33.8778 7.81818ZM38.3338 12.75V18H36.9929V9.27273H38.2884V10.6364H38.402C38.6065 10.1932 38.9171 9.83712 39.3338 9.56818C39.7505 9.29545 40.2884 9.15909 40.9474 9.15909C41.5384 9.15909 42.0554 9.2803 42.4986 9.52273C42.9418 9.76136 43.2865 10.125 43.5327 10.6136C43.7789 11.0985 43.902 11.7121 43.902 12.4545V18H42.5611V12.5455C42.5611 11.8598 42.383 11.3258 42.027 10.9432C41.6709 10.5568 41.1823 10.3636 40.5611 10.3636C40.133 10.3636 39.7505 10.4564 39.4134 10.642C39.08 10.8277 38.8168 11.0985 38.6236 11.4545C38.4304 11.8106 38.3338 12.2424 38.3338 12.75ZM46.3523 18V9.27273H47.6932V18H46.3523ZM47.0341 7.81818C46.7727 7.81818 46.5473 7.72917 46.358 7.55114C46.1723 7.37311 46.0795 7.15909 46.0795 6.90909C46.0795 6.65909 46.1723 6.44508 46.358 6.26705C46.5473 6.08902 46.7727 6 47.0341 6C47.2955 6 47.5189 6.08902 47.7045 6.26705C47.8939 6.44508 47.9886 6.65909 47.9886 6.90909C47.9886 7.15909 47.8939 7.37311 47.7045 7.55114C47.5189 7.72917 47.2955 7.81818 47.0341 7.81818ZM51.4901 12.75V18H50.1491V9.27273H51.4446V10.6364H51.5582C51.7628 10.1932 52.0734 9.83712 52.4901 9.56818C52.9067 9.29545 53.4446 9.15909 54.1037 9.15909C54.6946 9.15909 55.2116 9.2803 55.6548 9.52273C56.098 9.76136 56.4427 10.125 56.6889 10.6136C56.9351 11.0985 57.0582 11.7121 57.0582 12.4545V18H55.7173V12.5455C55.7173 11.8598 55.5393 11.3258 55.1832 10.9432C54.8272 10.5568 54.3385 10.3636 53.7173 10.3636C53.2893 10.3636 52.9067 10.4564 52.5696 10.642C52.2363 10.8277 51.973 11.0985 51.7798 11.4545C51.5866 11.8106 51.4901 12.2424 51.4901 12.75ZM63.1676 18.1818C62.3267 18.1818 61.6013 17.9962 60.9915 17.625C60.3854 17.25 59.9176 16.7273 59.5881 16.0568C59.2623 15.3826 59.0994 14.5985 59.0994 13.7045C59.0994 12.8106 59.2623 12.0227 59.5881 11.3409C59.9176 10.6553 60.3759 10.1212 60.9631 9.73864C61.554 9.35227 62.2434 9.15909 63.0312 9.15909C63.4858 9.15909 63.9347 9.23485 64.3778 9.38636C64.821 9.53788 65.2244 9.78409 65.5881 10.125C65.9517 10.4621 66.2415 10.9091 66.4574 11.4659C66.6733 12.0227 66.7812 12.7083 66.7812 13.5227V14.0909H60.054V12.9318H65.4176C65.4176 12.4394 65.3191 12 65.1222 11.6136C64.929 11.2273 64.6525 10.9223 64.2926 10.6989C63.9366 10.4754 63.5161 10.3636 63.0312 10.3636C62.4972 10.3636 62.035 10.4962 61.6449 10.7614C61.2585 11.0227 60.9612 11.3636 60.7528 11.7841C60.5445 12.2045 60.4403 12.6553 60.4403 13.1364V13.9091C60.4403 14.5682 60.554 15.1269 60.7812 15.5852C61.0123 16.0398 61.3324 16.3864 61.7415 16.625C62.1506 16.8598 62.6259 16.9773 63.1676 16.9773C63.5199 16.9773 63.8381 16.928 64.1222 16.8295C64.41 16.7273 64.6581 16.5758 64.8665 16.375C65.0748 16.1705 65.2358 15.9167 65.3494 15.6136L66.6449 15.9773C66.5085 16.4167 66.2794 16.803 65.9574 17.1364C65.6354 17.4659 65.2377 17.7235 64.7642 17.9091C64.2907 18.0909 63.7585 18.1818 63.1676 18.1818Z" fill="white"/>
<path d="M603.179 198.364H605.759L609.213 206.795H609.349L612.804 198.364H615.384V210H613.361V202.006H613.253L610.037 209.966H608.526L605.31 201.989H605.202V210H603.179V198.364ZM620.099 210.176C619.546 210.176 619.048 210.078 618.605 209.881C618.166 209.68 617.817 209.384 617.56 208.994C617.306 208.604 617.179 208.123 617.179 207.551C617.179 207.059 617.27 206.652 617.452 206.33C617.634 206.008 617.882 205.75 618.196 205.557C618.51 205.364 618.865 205.218 619.259 205.119C619.656 205.017 620.067 204.943 620.491 204.898C621.003 204.845 621.418 204.797 621.736 204.756C622.054 204.71 622.285 204.642 622.429 204.551C622.577 204.456 622.651 204.311 622.651 204.114V204.08C622.651 203.652 622.524 203.32 622.27 203.085C622.016 202.85 621.651 202.733 621.173 202.733C620.67 202.733 620.27 202.843 619.974 203.062C619.683 203.282 619.486 203.542 619.384 203.841L617.463 203.568C617.615 203.038 617.865 202.595 618.213 202.239C618.562 201.879 618.988 201.61 619.491 201.432C619.995 201.25 620.552 201.159 621.162 201.159C621.582 201.159 622.001 201.208 622.418 201.307C622.834 201.405 623.215 201.568 623.56 201.795C623.904 202.019 624.181 202.324 624.389 202.71C624.601 203.097 624.707 203.58 624.707 204.159V210H622.73V208.801H622.662C622.537 209.044 622.361 209.271 622.134 209.483C621.91 209.691 621.628 209.86 621.287 209.989C620.95 210.114 620.554 210.176 620.099 210.176ZM620.634 208.665C621.046 208.665 621.404 208.583 621.707 208.42C622.01 208.254 622.243 208.034 622.406 207.761C622.573 207.489 622.656 207.191 622.656 206.869V205.841C622.592 205.894 622.482 205.943 622.327 205.989C622.175 206.034 622.005 206.074 621.815 206.108C621.626 206.142 621.438 206.172 621.253 206.199C621.067 206.225 620.906 206.248 620.77 206.267C620.463 206.309 620.188 206.377 619.946 206.472C619.704 206.566 619.512 206.699 619.372 206.869C619.232 207.036 619.162 207.252 619.162 207.517C619.162 207.896 619.3 208.182 619.577 208.375C619.853 208.568 620.205 208.665 620.634 208.665ZM631.134 201.273V202.864H626.116V201.273H631.134ZM627.355 199.182H629.412V207.375C629.412 207.652 629.454 207.864 629.537 208.011C629.624 208.155 629.738 208.254 629.878 208.307C630.018 208.36 630.173 208.386 630.344 208.386C630.473 208.386 630.59 208.377 630.696 208.358C630.806 208.339 630.889 208.322 630.946 208.307L631.293 209.915C631.183 209.953 631.026 209.994 630.821 210.04C630.62 210.085 630.374 210.112 630.082 210.119C629.567 210.134 629.103 210.057 628.69 209.886C628.277 209.712 627.95 209.443 627.707 209.08C627.469 208.716 627.351 208.261 627.355 207.716V199.182ZM638.416 206.33V201.273H640.473V210H638.479V208.449H638.388C638.191 208.937 637.867 209.337 637.416 209.648C636.969 209.958 636.418 210.114 635.763 210.114C635.191 210.114 634.685 209.987 634.246 209.733C633.81 209.475 633.469 209.102 633.223 208.614C632.977 208.121 632.854 207.527 632.854 206.83V201.273H634.911V206.511C634.911 207.064 635.062 207.504 635.365 207.83C635.668 208.155 636.066 208.318 636.558 208.318C636.861 208.318 637.155 208.244 637.439 208.097C637.723 207.949 637.956 207.729 638.138 207.438C638.323 207.142 638.416 206.773 638.416 206.33ZM642.588 210V201.273H644.582V202.727H644.673C644.832 202.223 645.105 201.835 645.491 201.562C645.882 201.286 646.327 201.148 646.827 201.148C646.94 201.148 647.067 201.153 647.207 201.165C647.351 201.172 647.471 201.186 647.565 201.205V203.097C647.478 203.066 647.34 203.04 647.151 203.017C646.965 202.991 646.785 202.977 646.611 202.977C646.236 202.977 645.899 203.059 645.599 203.222C645.304 203.381 645.071 203.602 644.901 203.886C644.73 204.17 644.645 204.498 644.645 204.869V210H642.588ZM652.436 210.17C651.561 210.17 650.805 209.989 650.169 209.625C649.536 209.258 649.05 208.739 648.709 208.068C648.368 207.394 648.197 206.6 648.197 205.688C648.197 204.79 648.368 204.002 648.709 203.324C649.054 202.642 649.535 202.112 650.152 201.733C650.769 201.35 651.495 201.159 652.328 201.159C652.866 201.159 653.374 201.246 653.851 201.42C654.332 201.591 654.756 201.856 655.124 202.216C655.495 202.576 655.786 203.034 655.999 203.591C656.211 204.144 656.317 204.803 656.317 205.568V206.199H649.163V204.812H654.345C654.341 204.419 654.256 204.068 654.089 203.761C653.923 203.451 653.69 203.206 653.391 203.028C653.095 202.85 652.75 202.761 652.357 202.761C651.936 202.761 651.567 202.864 651.249 203.068C650.93 203.269 650.682 203.534 650.504 203.864C650.33 204.189 650.241 204.547 650.237 204.938V206.148C650.237 206.655 650.33 207.091 650.516 207.455C650.701 207.814 650.961 208.091 651.294 208.284C651.627 208.473 652.018 208.568 652.464 208.568C652.764 208.568 653.035 208.527 653.277 208.443C653.519 208.356 653.73 208.229 653.908 208.062C654.086 207.896 654.22 207.689 654.311 207.443L656.232 207.659C656.11 208.167 655.879 208.61 655.538 208.989C655.201 209.364 654.769 209.655 654.243 209.864C653.716 210.068 653.114 210.17 652.436 210.17Z" fill="#C49969"/>
<path d="M581.851 66V54.3636H583.959V64.233H589.084V66H581.851ZM596.385 62.3295V57.2727H598.442V66H596.447V64.4489H596.357C596.16 64.9375 595.836 65.3371 595.385 65.6477C594.938 65.9583 594.387 66.1136 593.732 66.1136C593.16 66.1136 592.654 65.9867 592.214 65.733C591.779 65.4754 591.438 65.1023 591.192 64.6136C590.946 64.1212 590.822 63.5265 590.822 62.8295V57.2727H592.879V62.5114C592.879 63.0644 593.031 63.5038 593.334 63.8295C593.637 64.1553 594.035 64.3182 594.527 64.3182C594.83 64.3182 595.124 64.2443 595.408 64.0966C595.692 63.9489 595.925 63.7292 596.107 63.4375C596.292 63.142 596.385 62.7727 596.385 62.3295ZM602.239 57.2727L604 60.4943L605.79 57.2727H607.966L605.335 61.6364L608.011 66H605.847L604 62.858L602.17 66H599.989L602.648 61.6364L600.057 57.2727H602.239ZM615.119 62.3295V57.2727H617.176V66H615.182V64.4489H615.091C614.894 64.9375 614.57 65.3371 614.119 65.6477C613.672 65.9583 613.121 66.1136 612.466 66.1136C611.894 66.1136 611.388 65.9867 610.949 65.733C610.513 65.4754 610.172 65.1023 609.926 64.6136C609.68 64.1212 609.557 63.5265 609.557 62.8295V57.2727H611.614V62.5114C611.614 63.0644 611.765 63.5038 612.068 63.8295C612.371 64.1553 612.769 64.3182 613.261 64.3182C613.564 64.3182 613.858 64.2443 614.142 64.0966C614.426 63.9489 614.659 63.7292 614.841 63.4375C615.027 63.142 615.119 62.7727 615.119 62.3295ZM619.291 66V57.2727H621.286V58.7273H621.376C621.536 58.2235 621.808 57.8352 622.195 57.5625C622.585 57.286 623.03 57.1477 623.53 57.1477C623.643 57.1477 623.77 57.1534 623.911 57.1648C624.054 57.1723 624.174 57.1856 624.268 57.2045V59.0966C624.181 59.0663 624.043 59.0398 623.854 59.017C623.668 58.9905 623.488 58.9773 623.314 58.9773C622.939 58.9773 622.602 59.0587 622.303 59.2216C622.007 59.3807 621.774 59.6023 621.604 59.8864C621.433 60.1705 621.348 60.4981 621.348 60.8693V66H619.291ZM625.635 66V57.2727H627.692V66H625.635ZM626.669 56.0341C626.343 56.0341 626.063 55.9261 625.828 55.7102C625.593 55.4905 625.476 55.2273 625.476 54.9205C625.476 54.6098 625.593 54.3466 625.828 54.1307C626.063 53.911 626.343 53.8011 626.669 53.8011C626.999 53.8011 627.279 53.911 627.51 54.1307C627.745 54.3466 627.862 54.6098 627.862 54.9205C627.862 55.2273 627.745 55.4905 627.51 55.7102C627.279 55.9261 626.999 56.0341 626.669 56.0341ZM633.614 66.1705C632.761 66.1705 632.023 65.983 631.398 65.608C630.773 65.233 630.288 64.7083 629.943 64.0341C629.602 63.3598 629.432 62.572 629.432 61.6705C629.432 60.7689 629.602 59.9792 629.943 59.3011C630.288 58.6231 630.773 58.0966 631.398 57.7216C632.023 57.3466 632.761 57.1591 633.614 57.1591C634.466 57.1591 635.205 57.3466 635.83 57.7216C636.455 58.0966 636.938 58.6231 637.278 59.3011C637.623 59.9792 637.795 60.7689 637.795 61.6705C637.795 62.572 637.623 63.3598 637.278 64.0341C636.938 64.7083 636.455 65.233 635.83 65.608C635.205 65.983 634.466 66.1705 633.614 66.1705ZM633.625 64.5227C634.087 64.5227 634.473 64.3958 634.784 64.142C635.095 63.8845 635.326 63.5398 635.477 63.108C635.633 62.6761 635.71 62.1951 635.71 61.6648C635.71 61.1307 635.633 60.6477 635.477 60.2159C635.326 59.7803 635.095 59.4337 634.784 59.1761C634.473 58.9186 634.087 58.7898 633.625 58.7898C633.152 58.7898 632.758 58.9186 632.443 59.1761C632.133 59.4337 631.9 59.7803 631.744 60.2159C631.593 60.6477 631.517 61.1307 631.517 61.6648C631.517 62.1951 631.593 62.6761 631.744 63.108C631.9 63.5398 632.133 63.8845 632.443 64.142C632.758 64.3958 633.152 64.5227 633.625 64.5227ZM645.104 62.3295V57.2727H647.161V66H645.166V64.4489H645.075C644.878 64.9375 644.554 65.3371 644.104 65.6477C643.657 65.9583 643.106 66.1136 642.45 66.1136C641.878 66.1136 641.373 65.9867 640.933 65.733C640.498 65.4754 640.157 65.1023 639.911 64.6136C639.664 64.1212 639.541 63.5265 639.541 62.8295V57.2727H641.598V62.5114C641.598 63.0644 641.75 63.5038 642.053 63.8295C642.356 64.1553 642.753 64.3182 643.246 64.3182C643.549 64.3182 643.842 64.2443 644.126 64.0966C644.411 63.9489 644.643 63.7292 644.825 63.4375C645.011 63.142 645.104 62.7727 645.104 62.3295ZM656.173 59.5795L654.298 59.7841C654.245 59.5947 654.152 59.4167 654.02 59.25C653.891 59.0833 653.717 58.9489 653.497 58.8466C653.277 58.7443 653.009 58.6932 652.69 58.6932C652.262 58.6932 651.902 58.786 651.611 58.9716C651.323 59.1572 651.181 59.3977 651.185 59.6932C651.181 59.947 651.274 60.1534 651.463 60.3125C651.656 60.4716 651.974 60.6023 652.418 60.7045L653.906 61.0227C654.732 61.2008 655.346 61.483 655.747 61.8693C656.152 62.2557 656.357 62.7614 656.361 63.3864C656.357 63.9356 656.196 64.4205 655.878 64.8409C655.563 65.2576 655.126 65.5833 654.565 65.8182C654.005 66.053 653.361 66.1705 652.634 66.1705C651.565 66.1705 650.705 65.947 650.054 65.5C649.402 65.0492 649.014 64.4223 648.889 63.6193L650.895 63.4261C650.986 63.8201 651.179 64.1174 651.474 64.3182C651.77 64.5189 652.154 64.6193 652.628 64.6193C653.116 64.6193 653.509 64.5189 653.804 64.3182C654.103 64.1174 654.253 63.8693 654.253 63.5739C654.253 63.3239 654.156 63.1174 653.963 62.9545C653.774 62.7917 653.478 62.6667 653.077 62.5795L651.588 62.267C650.751 62.0928 650.132 61.7992 649.73 61.3864C649.329 60.9697 649.13 60.4432 649.134 59.8068C649.13 59.2689 649.276 58.803 649.571 58.4091C649.87 58.0114 650.285 57.7045 650.815 57.4886C651.349 57.2689 651.965 57.1591 652.662 57.1591C653.685 57.1591 654.49 57.3769 655.077 57.8125C655.668 58.2481 656.033 58.8371 656.173 59.5795Z" fill="#C49969"/>
<path d="M579.132 6.36364H581.712L585.166 14.7955H585.303L588.757 6.36364H591.337V18H589.314V10.0057H589.206L585.99 17.9659H584.479L581.263 9.98864H581.155V18H579.132V6.36364ZM596.053 18.1761C595.5 18.1761 595.001 18.0777 594.558 17.8807C594.119 17.6799 593.77 17.3845 593.513 16.9943C593.259 16.6042 593.132 16.1231 593.132 15.5511C593.132 15.0587 593.223 14.6515 593.405 14.3295C593.587 14.0076 593.835 13.75 594.149 13.5568C594.464 13.3636 594.818 13.2178 595.212 13.1193C595.609 13.017 596.02 12.9432 596.445 12.8977C596.956 12.8447 597.371 12.7973 597.689 12.7557C598.007 12.7102 598.238 12.642 598.382 12.5511C598.53 12.4564 598.604 12.3106 598.604 12.1136V12.0795C598.604 11.6515 598.477 11.3201 598.223 11.0852C597.969 10.8504 597.604 10.733 597.126 10.733C596.623 10.733 596.223 10.8428 595.928 11.0625C595.636 11.2822 595.439 11.5417 595.337 11.8409L593.416 11.5682C593.568 11.0379 593.818 10.5947 594.166 10.2386C594.515 9.87879 594.941 9.60985 595.445 9.43182C595.948 9.25 596.505 9.15909 597.115 9.15909C597.536 9.15909 597.954 9.20833 598.371 9.30682C598.787 9.4053 599.168 9.56818 599.513 9.79545C599.857 10.0189 600.134 10.3239 600.342 10.7102C600.554 11.0966 600.661 11.5795 600.661 12.1591V18H598.683V16.8011H598.615C598.49 17.0436 598.314 17.2708 598.087 17.483C597.863 17.6913 597.581 17.8598 597.24 17.9886C596.903 18.1136 596.507 18.1761 596.053 18.1761ZM596.587 16.6648C597 16.6648 597.357 16.5833 597.661 16.4205C597.964 16.2538 598.196 16.0341 598.359 15.7614C598.526 15.4886 598.609 15.1913 598.609 14.8693V13.8409C598.545 13.8939 598.435 13.9432 598.28 13.9886C598.128 14.0341 597.958 14.0739 597.768 14.108C597.579 14.142 597.392 14.1723 597.206 14.1989C597.02 14.2254 596.859 14.2481 596.723 14.267C596.416 14.3087 596.142 14.3769 595.899 14.4716C595.657 14.5663 595.465 14.6989 595.325 14.8693C595.185 15.036 595.115 15.2519 595.115 15.517C595.115 15.8958 595.253 16.1818 595.53 16.375C595.806 16.5682 596.159 16.6648 596.587 16.6648ZM609.626 11.5795L607.751 11.7841C607.698 11.5947 607.606 11.4167 607.473 11.25C607.344 11.0833 607.17 10.9489 606.95 10.8466C606.731 10.7443 606.462 10.6932 606.143 10.6932C605.715 10.6932 605.356 10.786 605.064 10.9716C604.776 11.1572 604.634 11.3977 604.638 11.6932C604.634 11.947 604.727 12.1534 604.916 12.3125C605.109 12.4716 605.428 12.6023 605.871 12.7045L607.359 13.0227C608.185 13.2008 608.799 13.483 609.2 13.8693C609.606 14.2557 609.81 14.7614 609.814 15.3864C609.81 15.9356 609.649 16.4205 609.331 16.8409C609.017 17.2576 608.579 17.5833 608.018 17.8182C607.458 18.053 606.814 18.1705 606.087 18.1705C605.018 18.1705 604.159 17.947 603.507 17.5C602.856 17.0492 602.467 16.4223 602.342 15.6193L604.348 15.4261C604.439 15.8201 604.632 16.1174 604.928 16.3182C605.223 16.5189 605.607 16.6193 606.081 16.6193C606.57 16.6193 606.962 16.5189 607.257 16.3182C607.556 16.1174 607.706 15.8693 607.706 15.5739C607.706 15.3239 607.609 15.1174 607.416 14.9545C607.227 14.7917 606.931 14.6667 606.53 14.5795L605.041 14.267C604.204 14.0928 603.585 13.7992 603.183 13.3864C602.782 12.9697 602.583 12.4432 602.587 11.8068C602.583 11.2689 602.729 10.803 603.024 10.4091C603.323 10.0114 603.738 9.70455 604.268 9.48864C604.803 9.26894 605.418 9.15909 606.115 9.15909C607.138 9.15909 607.943 9.37689 608.53 9.8125C609.121 10.2481 609.486 10.8371 609.626 11.5795ZM615.317 18.1705C614.446 18.1705 613.697 17.9792 613.072 17.5966C612.451 17.214 611.972 16.6856 611.635 16.0114C611.302 15.3333 611.135 14.553 611.135 13.6705C611.135 12.7841 611.305 12.0019 611.646 11.3239C611.987 10.642 612.468 10.1117 613.089 9.73295C613.714 9.35038 614.453 9.15909 615.305 9.15909C616.014 9.15909 616.641 9.28977 617.186 9.55114C617.735 9.80871 618.173 10.1742 618.499 10.6477C618.824 11.1174 619.01 11.6667 619.055 12.2955H617.089C617.01 11.875 616.821 11.5246 616.521 11.2443C616.226 10.9602 615.83 10.8182 615.334 10.8182C614.913 10.8182 614.544 10.9318 614.226 11.1591C613.908 11.3826 613.66 11.7045 613.482 12.125C613.307 12.5455 613.22 13.0492 613.22 13.6364C613.22 14.2311 613.307 14.7424 613.482 15.1705C613.656 15.5947 613.9 15.9223 614.214 16.1534C614.533 16.3807 614.906 16.4943 615.334 16.4943C615.637 16.4943 615.908 16.4375 616.146 16.3239C616.389 16.2064 616.591 16.0379 616.754 15.8182C616.917 15.5985 617.029 15.3314 617.089 15.017H619.055C619.006 15.6345 618.824 16.1818 618.51 16.6591C618.196 17.1326 617.768 17.5038 617.226 17.7727C616.684 18.0379 616.048 18.1705 615.317 18.1705ZM626.307 14.3295V9.27273H628.364V18H626.369V16.4489H626.278C626.081 16.9375 625.758 17.3371 625.307 17.6477C624.86 17.9583 624.309 18.1136 623.653 18.1136C623.081 18.1136 622.576 17.9867 622.136 17.733C621.701 17.4754 621.36 17.1023 621.114 16.6136C620.867 16.1212 620.744 15.5265 620.744 14.8295V9.27273H622.801V14.5114C622.801 15.0644 622.953 15.5038 623.256 15.8295C623.559 16.1553 623.956 16.3182 624.449 16.3182C624.752 16.3182 625.045 16.2443 625.33 16.0966C625.614 15.9489 625.847 15.7292 626.028 15.4375C626.214 15.142 626.307 14.7727 626.307 14.3295ZM632.536 6.36364V18H630.479V6.36364H632.536ZM634.651 18V9.27273H636.707V18H634.651ZM635.685 8.03409C635.359 8.03409 635.079 7.92614 634.844 7.71023C634.609 7.49053 634.491 7.22727 634.491 6.92045C634.491 6.60985 634.609 6.34659 634.844 6.13068C635.079 5.91098 635.359 5.80114 635.685 5.80114C636.014 5.80114 636.295 5.91098 636.526 6.13068C636.76 6.34659 636.878 6.60985 636.878 6.92045C636.878 7.22727 636.76 7.49053 636.526 7.71023C636.295 7.92614 636.014 8.03409 635.685 8.03409ZM640.879 12.8864V18H638.822V9.27273H640.788V10.7557H640.891C641.091 10.267 641.411 9.87879 641.851 9.59091C642.294 9.30303 642.841 9.15909 643.493 9.15909C644.095 9.15909 644.62 9.28788 645.067 9.54545C645.518 9.80303 645.866 10.1761 646.112 10.6648C646.362 11.1534 646.485 11.7462 646.482 12.4432V18H644.425V12.7614C644.425 12.178 644.273 11.7216 643.97 11.392C643.671 11.0625 643.256 10.8977 642.726 10.8977C642.366 10.8977 642.046 10.9773 641.766 11.1364C641.489 11.2917 641.271 11.517 641.112 11.8125C640.957 12.108 640.879 12.4659 640.879 12.8864ZM652.436 18.1705C651.561 18.1705 650.805 17.9886 650.169 17.625C649.536 17.2576 649.05 16.7386 648.709 16.0682C648.368 15.3939 648.197 14.6004 648.197 13.6875C648.197 12.7898 648.368 12.0019 648.709 11.3239C649.054 10.642 649.535 10.1117 650.152 9.73295C650.769 9.35038 651.495 9.15909 652.328 9.15909C652.866 9.15909 653.374 9.24621 653.851 9.42045C654.332 9.59091 654.756 9.85606 655.124 10.2159C655.495 10.5758 655.786 11.0341 655.999 11.5909C656.211 12.1439 656.317 12.803 656.317 13.5682V14.1989H649.163V12.8125H654.345C654.341 12.4186 654.256 12.0682 654.089 11.7614C653.923 11.4508 653.69 11.2064 653.391 11.0284C653.095 10.8504 652.75 10.7614 652.357 10.7614C651.936 10.7614 651.567 10.8636 651.249 11.0682C650.93 11.2689 650.682 11.5341 650.504 11.8636C650.33 12.1894 650.241 12.5473 650.237 12.9375V14.1477C650.237 14.6553 650.33 15.0909 650.516 15.4545C650.701 15.8144 650.961 16.0909 651.294 16.2841C651.627 16.4735 652.018 16.5682 652.464 16.5682C652.764 16.5682 653.035 16.5265 653.277 16.4432C653.519 16.3561 653.73 16.2292 653.908 16.0625C654.086 15.8958 654.22 15.6894 654.311 15.4432L656.232 15.6591C656.11 16.1667 655.879 16.6098 655.538 16.9886C655.201 17.3636 654.769 17.6553 654.243 17.8636C653.716 18.0682 653.114 18.1705 652.436 18.1705Z" fill="#C49969"/>
<ellipse cx="508" cy="60" rx="12" ry="12" transform="rotate(90 508 60)" fill="#C49969"/>
<ellipse cx="508" cy="60" rx="8" ry="8" transform="rotate(90 508 60)" fill="#131736"/>
<ellipse cx="508" cy="60" rx="3" ry="3" transform="rotate(90 508 60)" fill="#C49969"/>
<ellipse cx="444" cy="12" rx="12" ry="12" transform="rotate(90 444 12)" fill="#C49969"/>
<ellipse cx="444" cy="12" rx="8" ry="8" transform="rotate(90 444 12)" fill="#131736"/>
<ellipse cx="444" cy="12" rx="3" ry="3" transform="rotate(90 444 12)" fill="#C49969"/>
<ellipse cx="285" cy="124" rx="12" ry="12" transform="rotate(90 285 124)" fill="#C49969"/>
<ellipse cx="285" cy="124" rx="8" ry="8" transform="rotate(90 285 124)" fill="#131736"/>
<ellipse cx="285" cy="124" rx="3" ry="3" transform="rotate(90 285 124)" fill="#C49969"/>
<ellipse cx="326" cy="300" rx="12" ry="12" transform="rotate(90 326 300)" fill="#C49969"/>
<ellipse cx="326" cy="300" rx="8" ry="8" transform="rotate(90 326 300)" fill="#131736"/>
<ellipse cx="326" cy="300" rx="3" ry="3" transform="rotate(90 326 300)" fill="#C49969"/>
<ellipse cx="409" cy="428" rx="12" ry="12" transform="rotate(90 409 428)" fill="#C49969"/>
<ellipse cx="409" cy="428" rx="8" ry="8" transform="rotate(90 409 428)" fill="#131736"/>
<ellipse cx="409" cy="428" rx="3" ry="3" transform="rotate(90 409 428)" fill="#C49969"/>
<ellipse cx="424" cy="204" rx="12" ry="12" transform="rotate(90 424 204)" fill="#C49969"/>
<ellipse cx="424" cy="204" rx="8" ry="8" transform="rotate(90 424 204)" fill="#131736"/>
<ellipse cx="424" cy="204" rx="3" ry="3" transform="rotate(90 424 204)" fill="#C49969"/>
</svg>
